<?xml version="1.0" encoding="utf-8"?>
<!-- Generator: Adobe Illustrator 27.0.0, SVG Export Plug-In . SVG Version: 6.00 Build 0)  -->
<svg version="1.1" id="Layer_1" xmlns="http://www.w3.org/2000/svg" xmlns:xlink="http://www.w3.org/1999/xlink" x="0px" y="0px"
	 viewBox="0 0 1892.4 1894.8" style="enable-background:new 0 0 1892.4 1894.8;" xml:space="preserve">
<style type="text/css">
	.st0{fill:#FACFCF;}
	.st1{fill:#0070CE;}
	.st2{fill:#EAEAEA;}
	.st3{fill:#C9C9C9;}
	.st4{fill:#FEC020;}
	.st5{opacity:0.25;fill:#231F20;enable-background:new    ;}
	.st6{fill:#0270CD;}
	.st7{fill:none;}
	.st8{fill:#FFFFFF;}
	.st9{fill:#FCCB1B;}
	.st10{fill:#E53A54;}
	.st11{fill:#CB344D;}
	.st12{fill:#F03D5A;}
	.st13{fill:#D83651;}
	.st14{fill:#FDD019;}
	.st15{fill:#FE9418;}
	.st16{fill:#FC4162;}
	.st17{fill:#FD4060;}
	.st18{fill:#BE3147;}
	.st19{fill:#C62750;}
	.st20{fill:#E02543;}
	.st21{fill:#E02B59;}
	.st22{fill:#FEBD18;}
</style>
<path class="st0" d="M941.5,948.6c0-0.3,0-0.6,0-0.8c5.7,0,11.4,0,17.1,0c0,0.3,0,0.6,0,0.8C952.8,948.6,947.2,948.6,941.5,948.6z"
	/>
<g>
	<circle class="st1" cx="946.2" cy="947.4" r="944.7"/>
	<path class="st2" d="M54.7,947C54.1,454.3,458.1,49,959.1,55.9c487.7,6.7,886.8,408.8,878.4,907.2
		c-8.1,482.6-402.4,876-891.9,875.8C451.7,1838.6,53.9,1436.9,54.7,947z"/>
	<path class="st3" d="M945.9,1796c-467.3,0.5-852.6-381.5-848.4-857.3c4.2-460,380.2-846.3,860.5-839.8
		c231.5,3.1,430.8,88.8,593.2,254.1c162.3,165.2,244.1,365.8,243.7,597.1C1794.1,1418.4,1413.4,1796.4,945.9,1796z"/>
</g>
<g>
	<polygon class="st4" points="946.5,947.4 946.5,947.4 946.5,947.4 	"/>
	<path class="st1" d="M946.5,947.4L946.5,947.4L1361.3,229c-122-70.6-263.7-111.1-414.8-111.2V947.4L946.5,947.4z"/>
	<path class="st4" d="M1664.8,532.7C1592,406.8,1487.1,301.9,1361.3,229L946.5,947.4L1664.8,532.7z"/>
	<polygon class="st4" points="946.5,947.4 946.5,947.4 946.5,947.4 	"/>
	<path class="st1" d="M946.5,947.4h829.2c0-151.1-40.4-292.7-110.9-414.7L946.5,947.4L946.5,947.4z"/>
	<polygon class="st4" points="946.5,947.4 946.5,947.4 946.5,947.4 	"/>
	<polygon class="st4" points="946.5,947.4 946.5,947.4 946.5,947.4 	"/>
	<polygon class="st4" points="946.5,947.4 946.5,947.4 946.5,947.4 	"/>
	<polygon class="st4" points="946.5,947.4 946.5,947.4 946.5,947.4 	"/>
	<path class="st1" d="M946.5,947.4L531.6,228.7c-126,72.8-231,177.8-303.9,303.7L946.5,947.4L946.5,947.4z"/>
	<path class="st4" d="M946.5,117.8c-0.1,0-0.2,0-0.3,0c-151,0-292.6,40.4-414.6,110.9l414.9,718.7V117.8z"/>
	<path class="st1" d="M531.6,1666.1c122,70.5,263.6,110.9,414.6,110.9c0.1,0,0.2,0,0.3,0V947.4L531.6,1666.1z"/>
	<path class="st4" d="M946.5,947.4l-718.8,415c72.9,125.9,177.9,230.9,303.9,303.7L946.5,947.4L946.5,947.4z"/>
	<path class="st1" d="M1361.3,1665.8c125.8-72.9,230.7-177.8,303.5-303.7L946.5,947.4L1361.3,1665.8z"/>
	<path class="st4" d="M946.5,947.4L946.5,947.4V1777c151.1-0.1,292.8-40.5,414.8-111.2L946.5,947.4L946.5,947.4z"/>
	<path class="st4" d="M946.5,947.4L946.5,947.4l718.3,414.7c70.6-122,110.9-263.6,110.9-414.7H946.5z"/>
	<path class="st4" d="M227.7,532.4c-70.7,122.1-111.1,263.8-111.1,415h829.9L227.7,532.4z"/>
	<path class="st1" d="M116.6,947.4c0,151.2,40.5,292.9,111.1,415l718.8-415H116.6z"/>
</g>
<path class="st5" d="M1775.8,948.4c0-59.7-5.6-117.4-16.7-172.9c-11.6-57.6-29.3-112.8-52.9-165.6c-23.4-52.4-52.8-102.4-88.1-149.9
	c-24-32.5-50.9-63.6-80.4-93.7c-11.8-12-23.9-23.7-36.2-34.9c-44-40.2-90.5-74.8-139.5-103.6c-50.3-29.7-103.3-53.4-158.7-71.1
	c-54.4-17.3-111.2-29-170.3-34.7c-24.6-2.4-49.8-3.8-75.2-4.1c-33.4-0.4-66.1,1-98.3,4.3c-58.8,6-115.6,18.1-169.8,35.7
	c-55.8,18-108.9,41.8-158.6,70.6c-50.4,29.2-97.4,63.5-140.3,102.2c-43,38.9-81.9,82.2-115.9,129.1c-34,46.7-63,97.1-86.8,150.2
	c-23.3,52.5-41.5,107.7-53.6,164.9c-11.2,53.1-17.4,108-17.9,163.9c0,3.2,0,6.3,0,9.5c0.1,59.2,6.4,116.8,18.2,172.4
	c12.2,57.4,30.4,112.5,53.7,164.7c23.8,53.2,53,103.4,87,149.9c34.2,46.9,73.1,90,116,128.7c43,38.7,89.9,72.8,140.1,101.9
	c49.8,28.9,102.8,52.6,158.2,70.6c54.4,17.6,111.1,29.9,169.5,36c28.5,2.9,57.2,4.4,86.4,4.4c29.4,0,58.4-1.5,87-4.4
	c58.5-6,115.3-18.2,169.6-35.8c55.6-18,108.7-41.8,158.5-70.5c50.4-29.1,97.4-63.3,140.4-102c43.1-38.8,82.1-82,116.2-128.9
	c34-46.6,63.2-97,87-150.2c23.3-52.4,41.4-107.6,53.5-165.1c11.5-54.8,17.7-111.7,17.8-170C1775.8,949.5,1775.8,949,1775.8,948.4z
	 M1743.2,1116.9c-11.9,56.4-29.7,110.7-52.6,162.1c-23.3,52.3-52,101.7-85.4,147.5c-33.6,46.1-71.8,88.5-114.1,126.6
	c-42.2,38-88.4,71.5-137.8,100.1c-48.9,28.3-101,51.5-155.6,69.2c-53.3,17.2-109.1,29.2-166.6,35.2c-28.1,2.9-56.5,4.4-85.4,4.4
	c-28.7,0-56.9-1.5-84.9-4.3c-57.4-5.9-113.1-17.9-166.5-35.3c-54.5-17.7-106.5-41.1-155.4-69.3c-49.3-28.6-95.4-62.1-137.6-100.1
	s-80.5-80.3-113.9-126.3c-33.3-45.7-62-94.9-85.4-147.2c-22.9-51.3-40.8-105.4-52.8-161.8c-11.6-54.5-17.8-111.1-17.9-169.2
	c0-3.1,0-6.2,0-9.3c0.5-55,6.5-108.8,17.5-161c11.9-56.2,29.7-110.4,52.6-161.9c23.2-52.2,51.8-101.6,85.2-147.5
	c33.5-46.1,71.5-88.6,113.8-126.8c42.1-38,88.2-71.7,137.7-100.4c48.8-28.3,100.9-51.6,155.7-69.3c53.2-17.2,109-29.2,166.8-35.1
	c31.7-3.2,63.8-4.7,96.5-4.3c25,0.3,49.7,1.7,73.9,4c58,5.6,113.8,16.9,167.2,34.1c54.4,17.3,106.4,40.7,155.8,69.8
	c48.1,28.4,93.8,62.3,136.9,101.7c12,11,23.8,22.4,35.6,34.3c29,29.6,55.3,60.2,79,92c34.6,46.6,63.4,95.7,86.5,147.2
	c23.2,51.8,40.6,106.1,52,162.6c11,54.4,16.4,111,16.4,169.7c0,0.5,0,1.1,0,1.6C1760.7,1007.2,1754.5,1063.1,1743.2,1116.9z"/>
<g>
	<circle class="st5" cx="950" cy="948.2" r="201"/>
	<circle class="st2" cx="950" cy="948.2" r="184.6"/>
	<g>
		<path class="st6" d="M1003.2,867.5c-13.7,8-26.8,15.6-40,23.2c-20.1,11.6-40.1,23.4-60.3,34.8c-3.1,1.8-4.3,3.7-4,7.2
			c0.3,4.4,0.1,8.8,0.1,13.4c3.3-0.4,5.2-2.1,7.3-3.3c36.3-21,72.6-42,108.9-63.1c3.1-1.8,5.5-2.2,8.7-0.1c6.1,4,12.6,7.5,19,11
			c2.5,1.4,3.5,3,3.4,5.9c-0.2,7-0.4,14,0.1,20.9c0.3,4.4-1.5,6.7-5.1,8.8c-36.8,21.2-73.6,42.5-110.3,63.9c-1.5,0.9-3,1.8-5.1,3
			c5.1,3,9.8,5.6,14.3,8.4c2.5,1.5,4-0.1,5.8-1.1c31.4-18.2,62.7-36.3,94.1-54.5c6.2-3.6,6.2-3.6,6.2,3.3c0,16.8-0.1,33.6,0.1,50.4
			c0,3.1-1,4.8-3.7,6.3c-29.7,17.1-59.4,34.3-89,51.6c-2.7,1.6-4.6,1.6-7.3,0c-29.7-17.2-59.3-34.3-89.1-51.3
			c-2.8-1.6-3.9-3.4-3.8-6.7c0.1-34.1,0.1-68.3,0-102.4c0-3.1,1-4.8,3.6-6.3c29.9-17.2,59.7-34.5,89.5-51.7c1.5-0.9,2.8-2.1,4.8-0.9
			C968.5,847.7,985.5,857.4,1003.2,867.5z"/>
	</g>
</g>
<line class="st7" x1="-123.9" y1="948.2" x2="2023.9" y2="948.2"/>
<g>
	<g>
		<path class="st8" d="M203.5,1138.4l-10.7,3.3l-1.2-3.9l26.1-8l1.2,3.9l-10.8,3.3l9.6,31.3l-4.6,1.4L203.5,1138.4z"/>
		<path class="st8" d="M220.6,1126.9l4.6-1.4l4.8,15.8l0.1,0c0.3-1.5,1.1-3,2.3-4.2c1.1-1.2,2.6-2.2,4.3-2.7c3.4-1,9.5-0.6,12.1,8.1
			l4.6,15l-4.6,1.4l-4.4-14.5c-1.2-4.1-3.8-7.1-8.1-5.7c-3,0.9-4.7,3.7-4.8,6.5c-0.1,0.7,0.1,1.4,0.4,2.3l4.7,15.3l-4.6,1.4
			L220.6,1126.9z"/>
		<path class="st8" d="M276.7,1116.5c0.9,0.9,1.7,2.1,2.1,3.5c0.8,2.6-0.6,4.9-3.1,5.7l-0.6,0.2l4.8,15.8c0.8,2.6,1.6,4.9,2.3,6.8
			l-4.1,1.2l-1.5-4l-0.1,0c-0.6,2.4-2.4,5.9-6.9,7.3c-4,1.2-9.4,0.5-12.1-8.4l-4.5-14.8l4.6-1.4l4.3,14c1.5,4.8,3.9,7.6,8.1,6.3
			c3.1-0.9,4.6-3.7,4.8-6c0.1-0.8,0-1.6-0.3-2.5l-4.7-15.5l3.6-1.1c1.8-0.6,2.2-1.5,1.8-2.8c-0.3-1-1-2-1.8-2.8L276.7,1116.5z"/>
		<path class="st8" d="M304.9,1109.4c0.9,0.9,1.6,2.1,2.1,3.5c0.9,2.8-0.2,5.2-3.5,6c2.3,1.6,4.1,4.2,5.2,7.6
			c2.9,9.4-2.4,15.4-8.5,17.3c-6.8,2.1-13.7-1.3-16.1-9.3c-2.6-8.5,1.4-15.1,8.4-17.3c1.6-0.5,3-0.6,4.6-0.6c1.4,0,3.2,0.5,4.9,0
			c1.4-0.4,1.9-1.4,1.5-2.7c-0.4-1.1-1-2.1-1.8-2.8L304.9,1109.4z M289.8,1115.4c-0.1-2.5,2.1-3.9,1.5-5.8c-0.3-1.1-1.3-1.5-2.3-1.2
			c-1.1,0.4-1.7,1.5-1.9,2.6l-2.1-0.5c0.3-2.2,1.4-4.2,4-5c2.5-0.8,4.9,0.3,5.6,2.6c0.9,2.9-1.6,4.6-2.1,7.3L289.8,1115.4z
			 M288.6,1132.9c1.7,5.5,6.2,8.7,10.6,7.4c4.4-1.3,6.4-6.5,4.7-12.2c-1.3-4.3-5.1-9.1-10.5-7.4
			C288,1122.4,287.2,1128.1,288.6,1132.9z"/>
		<path class="st8" d="M312.9,1119.1c-0.8-2.6-1.5-4.7-2.3-6.8l4.1-1.2l1.5,4.1l0.1,0c0.5-2.8,2.7-6,6.9-7.3c3.5-1.1,9.6-0.6,12.2,8
			l4.6,15.1l-4.6,1.4l-4.4-14.6c-1.2-4.1-3.8-7-8.1-5.7c-3,0.9-4.7,3.8-4.7,6.6c0,0.6,0.1,1.5,0.3,2.2l4.6,15.2l-4.6,1.4
			L312.9,1119.1z"/>
		<path class="st8" d="M361.6,1096.8c0.5,1.9,1,3.9,1.9,7l4.5,14.7c1.8,5.8,1.7,9.7-0.1,12.6c-1.8,3-5.1,4.9-8.3,5.8
			c-3,0.9-6.6,1.2-9.1,0.5l0.1-3.9c2,0.5,4.9,0.7,8-0.3c4.7-1.4,7.4-4.9,5.5-11.3l-0.9-2.8l-0.1,0c-0.7,2.8-2.8,5.5-6.8,6.7
			c-6.3,1.9-12.4-2-14.5-9c-2.6-8.6,1.5-15.1,7.3-16.9c4.4-1.3,7.5,0.2,9.2,2l0.1,0l-1-3.9L361.6,1096.8z M359.9,1108.2
			c-0.2-0.8-0.5-1.4-0.9-2c-1.7-2.4-4.6-3.9-7.9-2.9c-4.4,1.3-6.4,6-4.6,11.9c1.5,5,5.3,8.3,10.2,6.8c2.8-0.9,4.8-3.4,4.9-6.6
			c0-0.9-0.1-1.8-0.4-2.6L359.9,1108.2z"/>
		<path class="st8" d="M383.5,1082.2l2.2,7.3l6.6-2l1.1,3.5l-6.6,2l4.2,13.6c1,3.1,2.4,4.6,4.9,3.9c1.2-0.4,2-0.8,2.6-1.1l1.3,3.4
			c-0.8,0.6-2.1,1.3-3.9,1.9c-2.1,0.7-4.1,0.5-5.6-0.4c-1.7-1-2.9-3.1-3.8-6l-4.2-13.8l-3.9,1.2l-1.1-3.5l3.9-1.2l-1.8-6.1
			L383.5,1082.2z"/>
		<path class="st8" d="M403.8,1098.7c2,6.2,6.8,7.5,11.4,6.1c3.3-1,5.1-2.2,6.6-3.4l1.8,3.1c-1.4,1.2-3.9,2.9-7.9,4.1
			c-7.8,2.4-14-1.3-16.3-9c-2.3-7.6,0.3-15,7.7-17.3c8.3-2.5,12.7,4.1,14.1,8.7c0.3,0.9,0.4,1.7,0.5,2.2L403.8,1098.7z
			 M405.5,1071.5l6.8,6.1l-3.5,1.1l-4.2-4.1l-0.1,0l-1.2,5.7l-3.3,1l2.1-8.8L405.5,1071.5z M416.2,1091.3c-0.8-2.9-3.5-7.1-8.7-5.5
			c-4.7,1.4-5.4,6.3-4.8,9.6L416.2,1091.3z M415.1,1063.8l-3.1,8.5l-2.7,0.8l1.4-8L415.1,1063.8z"/>
		<path class="st8" d="M426.6,1069l2.2,7.3l6.6-2l1.1,3.5l-6.6,2l4.2,13.6c1,3.1,2.4,4.6,4.9,3.9c1.2-0.4,2-0.8,2.6-1.1l1.3,3.4
			c-0.8,0.6-2.1,1.3-3.9,1.9c-2.1,0.7-4.1,0.5-5.6-0.4c-1.7-1-2.9-3.1-3.8-6l-4.2-13.8l-3.9,1.2l-1.1-3.5l3.9-1.2l-1.8-6.1
			L426.6,1069z"/>
		<path class="st8" d="M458.3,1082c2,6.2,6.8,7.5,11.4,6.1c3.3-1,5.1-2.2,6.6-3.4l1.8,3.1c-1.4,1.2-3.9,2.9-7.9,4.1
			c-7.8,2.4-14-1.3-16.3-9c-2.3-7.6,0.3-15,7.7-17.3c8.3-2.5,12.7,4.1,14.1,8.7c0.3,0.9,0.4,1.7,0.5,2.2L458.3,1082z M470.8,1074.6
			c-0.8-2.9-3.5-7.1-8.7-5.5c-4.7,1.4-5.4,6.3-4.8,9.6L470.8,1074.6z"/>
		<path class="st8" d="M479.9,1068.2c-0.8-2.6-1.5-4.7-2.3-6.8l4-1.2l1.5,4l0.2,0c0.7-2.8,2.3-5.8,6.5-7.1c3.4-1.1,6.7,0.2,8.7,2.9
			l0.1,0c0.4-1.7,1-3,1.8-4.2c1.2-1.6,2.6-2.7,5-3.5c3.3-1,9-0.3,11.7,8.4l4.5,14.9l-4.5,1.4l-4.4-14.3c-1.5-4.9-4.2-7.2-7.9-6.1
			c-2.6,0.8-4.1,3.4-4.2,5.8c0,0.7,0.1,1.6,0.3,2.4l4.8,15.6l-4.5,1.4l-4.6-15.2c-1.2-4-3.9-6.4-7.4-5.3c-2.9,0.9-4.3,3.8-4.3,6.3
			c-0.1,0.8,0.1,1.6,0.3,2.4l4.7,15.3l-4.5,1.4L479.9,1068.2z"/>
		<path class="st8" d="M553.3,1034.4l6.8,22.3c0.7,2.2,1.5,4.8,2.2,6.5l-4.1,1.3l-1.5-4.3l-0.1,0c-0.6,3.3-3,6.3-7.1,7.6
			c-6.1,1.9-12.4-1.9-14.7-9.6c-2.6-8.4,1-15.2,7.2-17c3.9-1.2,7-0.1,8.8,1.5l0.1,0l-2.1-6.8l-10.3,3.1l-0.9-2.9l10.3-3.1l-1.6-5.4
			l4.6-1.4l1.6,5.4l4-1.2l0.9,2.9L553.3,1034.4z M552.9,1049.7c-0.2-0.6-0.5-1.3-0.8-1.9c-1.6-2.7-4.8-4.4-8.3-3.3
			c-4.8,1.5-6.3,6.5-4.6,12.1c1.6,5.1,5.4,8.6,10.3,7.1c3.1-0.9,5.3-3.8,5.1-7.5c0-0.7-0.2-1.3-0.4-2L552.9,1049.7z"/>
		<path class="st8" d="M583.7,1056.7l-1.3-3.1l-0.2,0c-0.8,2.4-3,5-6.6,6.1c-5.1,1.6-8.8-1.2-9.9-4.9c-1.9-6.1,2.5-11.1,12.3-14
			l-0.2-0.5c-0.6-2.1-2.4-5.7-7.5-4.1c-2.4,0.7-4.6,2.2-6,3.9l-2-2.7c1.7-2,4.4-3.8,7.6-4.8c7.7-2.4,11.2,2.3,12.8,7.4l2.9,9.5
			c0.7,2.2,1.4,4.3,2.3,5.9L583.7,1056.7z M568.7,1021.7l7.3,5.9l-3.5,1.1l-4.5-4l-0.1,0l-1.5,5.9l-3.4,1.1l2.6-9L568.7,1021.7z
			 M579.1,1044c-5,1.4-10.5,4.1-9,9c0.9,3,3.3,3.8,5.7,3.1c3.3-1,4.7-3.7,4.8-6.1c0-0.5,0-1.1-0.2-1.5L579.1,1044z"/>
		<path class="st8" d="M613.9,1039.9c0.8,2.6,1.6,4.9,2.3,6.8l-4.1,1.2l-1.5-4l-0.1,0c-0.6,2.4-2.4,5.9-6.9,7.3
			c-4,1.2-9.4,0.5-12.1-8.4L587,1028l4.6-1.4l4.3,14c1.5,4.8,3.9,7.6,8.1,6.3c3.1-0.9,4.6-3.7,4.8-6c0.1-0.8,0-1.6-0.3-2.5
			l-4.7-15.5l4.6-1.4L613.9,1039.9z"/>
		<path class="st8" d="M632.6,1035.7c2.4,0.6,5.7,0.8,8.9-0.2c4.6-1.4,6.6-4.7,5.5-8.3c-1-3.3-3.5-4.6-8.8-5
			c-6.4-0.3-10.8-2.2-12.3-7.1c-1.7-5.5,1.6-10.9,8.5-13c3.6-1.1,6.5-1.1,8.3-0.7l-0.1,4.1c-1.3-0.3-4-0.6-7.2,0.4
			c-4.8,1.5-5.8,4.9-5,7.3c1,3.3,3.6,4.3,9.1,4.7c6.7,0.5,10.6,2.4,12.1,7.6c1.7,5.4-0.9,11.4-9.2,13.9c-3.4,1-7.4,1.2-9.7,0.5
			L632.6,1035.7z"/>
		<path class="st8" d="M659.8,1020.6c2,6.2,6.8,7.5,11.4,6.1c3.3-1,5.1-2.2,6.6-3.4l1.8,3.1c-1.4,1.2-3.9,2.9-7.9,4.1
			c-7.8,2.4-14-1.3-16.3-9c-2.3-7.6,0.3-15,7.7-17.3c8.3-2.5,12.7,4.1,14.1,8.7c0.3,0.9,0.4,1.7,0.5,2.2L659.8,1020.6z M661.5,993.4
			l6.8,6.1l-3.5,1.1l-4.2-4.1l-0.1,0l-1.2,5.7l-3.3,1l2.1-8.8L661.5,993.4z M672.3,1013.2c-0.8-2.9-3.5-7.1-8.7-5.5
			c-4.7,1.4-5.4,6.3-4.8,9.6L672.3,1013.2z M671.1,985.7l-3.1,8.5l-2.7,0.8l1.4-8L671.1,985.7z"/>
		<path class="st8" d="M681.8,1008.1c-1-3.2-1.9-5.8-2.7-8.2l4.1-1.3l1.5,4.3l0.1,0c0.9-3.7,3.4-6.4,7.5-7.7
			c6.1-1.9,12.3,1.9,14.6,9.6c2.8,9.1-1.4,15.3-7.3,17.1c-3.3,1-6.7,0.5-9-1.6l-0.1,0l4.2,13.7l-4.5,1.4L681.8,1008.1z
			 M688.4,1013.5c0.2,0.7,0.5,1.3,0.8,1.8c1.8,2.9,5.2,4.3,8.5,3.3c4.9-1.5,6.5-6.3,4.7-12.1c-1.5-5.1-5.5-8.6-10.4-7.1
			c-3.1,1-5.4,4.1-5.2,7.8c0,0.6,0.1,1.4,0.3,2L688.4,1013.5z"/>
		<path class="st8" d="M717.2,1005l-0.5-1.3c-1.2-2.7-1.2-6.1,0.5-10c1.5-3.5,2.2-5.9,1.5-8.3c-0.8-2.7-3-3.9-6.3-3
			c-1.9,0.6-3.8,1.8-4.8,3.2l-2.3-2.9c1.3-1.8,4.1-3.5,6.8-4.4c6-1.8,9.9,1,11.1,5c1.1,3.6-0.1,6.7-1.7,10.5c-1.5,3.4-1.6,6-0.6,8.6
			l0.5,1.3L717.2,1005z M718.3,1012.7c-0.6-1.9,0.3-3.7,2.1-4.2c1.8-0.6,3.5,0.4,4.1,2.4c0.6,1.8-0.2,3.6-2.1,4.2
			C720.5,1015.6,718.9,1014.5,718.3,1012.7z"/>
	</g>
	<g>
		<path class="st8" d="M1646.2,774.7l-4.8,1.5l-10.2-33.3l-16,4.9l-1.2-4l20.8-6.3L1646.2,774.7z"/>
		<path class="st8" d="M1593.9,749.8l1.4,3.3l0.2-0.1c0.9-2.6,3.2-5.3,7-6.5c5.4-1.7,9.4,1.3,10.6,5.2c2,6.5-2.7,11.8-13.1,14.9
			l0.2,0.6c0.7,2.2,2.5,6,8,4.4c2.5-0.8,4.9-2.3,6.4-4.1l2.1,2.9c-1.8,2.1-4.7,4-8.1,5.1c-8.2,2.5-11.9-2.5-13.6-7.9l-3.1-10
			c-0.7-2.3-1.5-4.6-2.4-6.3L1593.9,749.8z M1598.8,763.3c5.4-1.5,11.1-4.3,9.5-9.5c-1-3.2-3.5-4-6-3.3c-3.5,1.1-5,4-5.1,6.5
			c0,0.5,0,1.1,0.2,1.6L1598.8,763.3z M1613.9,785.7l-7.2-6.5l3.4-1l9.2,5.9L1613.9,785.7z"/>
		<path class="st8" d="M1588,773c0.8,2.8,1.6,5,2.4,7.2l-4.3,1.3l-1.5-4.3l-0.2,0.1c-0.7,3-2.5,6.2-6.9,7.5
			c-3.7,1.1-7.1-0.3-9.2-3.1l-0.1,0c-0.4,1.8-1.1,3.2-1.9,4.4c-1.2,1.7-2.8,2.9-5.4,3.7c-3.5,1.1-9.5,0.4-12.4-9l-4.8-15.8l4.8-1.5
			l4.6,15.2c1.6,5.2,4.4,7.7,8.3,6.5c2.8-0.8,4.3-3.6,4.4-6.2c0-0.7-0.1-1.7-0.4-2.6l-5.1-16.6l4.8-1.5l4.9,16.1
			c1.3,4.3,4.1,6.8,7.9,5.7c3.1-0.9,4.5-4,4.6-6.7c0.1-0.8-0.1-1.7-0.3-2.5l-4.9-16.2l4.8-1.5L1588,773z"/>
		<path class="st8" d="M1530.3,798.6l-9.9-13.5c-1.6-2.2-3-4.2-4.3-6.2l-0.2,0.1c0.1,2.4,0,4.9-0.2,7.6l-0.6,16.7l-5.1,1.6l2.3-30.1
			l4.7-1.4l18.4,23.7L1530.3,798.6z"/>
		<path class="st8" d="M1497.3,779.3l8.2,26.8l-4.9,1.5l-8.2-26.8L1497.3,779.3z M1509.3,817.6l-7.3-6.4l3.4-1l9.2,5.9L1509.3,817.6
			z"/>
		<path class="st8" d="M1458.7,824.5l-7.2-23.7c-0.7-2.4-1.6-5.1-2.3-6.9l4.4-1.3l1.6,4.6l0.1,0c0.6-3.5,3.2-6.7,7.5-8.1
			c6.5-2,13.2,2,15.6,10.1c2.8,8.9-1.1,16.1-7.6,18.1c-4.1,1.3-7.5,0.2-9.4-1.6l-0.1,0l2.2,7.3l10.9-3.3l0.9,3.1l-10.9,3.3l1.7,5.7
			l-4.9,1.5l-1.7-5.7l-4.3,1.3l-0.9-3.1L1458.7,824.5z M1459.1,808.3c0.2,0.6,0.5,1.4,0.8,2c1.7,2.9,5.1,4.6,8.8,3.5
			c5-1.5,6.7-6.9,4.9-12.8c-1.7-5.4-5.7-9.1-11-7.5c-3.3,1-5.6,4.1-5.4,8c0,0.7,0.2,1.4,0.4,2.2L1459.1,808.3z"/>
		<path class="st8" d="M1426.4,800.9l1.4,3.3l0.2-0.1c0.9-2.6,3.2-5.3,7-6.5c5.4-1.7,9.4,1.3,10.6,5.2c2,6.5-2.7,11.8-13.1,14.9
			l0.2,0.6c0.7,2.2,2.5,6,8,4.4c2.5-0.8,4.9-2.3,6.4-4.1l2.1,2.9c-1.8,2.1-4.7,4-8.1,5.1c-8.2,2.5-11.9-2.5-13.6-7.9l-3.1-10
			c-0.7-2.3-1.5-4.6-2.4-6.3L1426.4,800.9z M1431.3,814.4c5.4-1.5,11.1-4.3,9.5-9.5c-1-3.2-3.5-4-6-3.3c-3.5,1.1-5,4-5.1,6.5
			c0,0.5,0,1.1,0.2,1.6L1431.3,814.4z"/>
		<path class="st8" d="M1420.5,824.1c0.8,2.8,1.6,5,2.4,7.2l-4.3,1.3l-1.5-4.3l-0.2,0.1c-0.7,3-2.5,6.2-6.9,7.5
			c-3.7,1.1-7.1-0.3-9.2-3.1l-0.1,0c-0.4,1.8-1.1,3.2-1.9,4.4c-1.2,1.7-2.8,2.9-5.4,3.7c-3.6,1.1-9.5,0.4-12.4-9l-4.8-15.8l4.8-1.5
			l4.6,15.2c1.6,5.2,4.4,7.7,8.3,6.5c2.8-0.8,4.3-3.6,4.4-6.2c0-0.7-0.1-1.7-0.4-2.6l-5.1-16.6l4.8-1.5l4.9,16.1
			c1.3,4.3,4.1,6.8,7.9,5.7c3.1-0.9,4.5-4,4.6-6.7c0.1-0.8-0.1-1.7-0.3-2.5l-4.9-16.2l4.8-1.5L1420.5,824.1z"/>
		<path class="st8" d="M1362.5,841.8c0.8,2.8,1.6,5,2.4,7.2l-4.3,1.3l-1.5-4.3l-0.2,0.1c-0.7,3-2.5,6.2-6.9,7.5
			c-3.7,1.1-7.1-0.3-9.2-3.1l-0.1,0c-0.4,1.8-1.1,3.2-1.9,4.4c-1.2,1.7-2.8,2.9-5.4,3.7c-3.5,1.1-9.5,0.4-12.4-9l-4.8-15.8l4.8-1.5
			l4.6,15.2c1.6,5.2,4.4,7.7,8.3,6.5c2.8-0.8,4.3-3.6,4.4-6.2c0-0.7-0.1-1.7-0.4-2.6l-5.1-16.6l4.8-1.5l4.9,16.1
			c1.3,4.3,4.1,6.8,7.9,5.7c3.1-0.9,4.5-4,4.6-6.7c0.1-0.8-0.1-1.7-0.3-2.5l-4.9-16.2l4.8-1.5L1362.5,841.8z"/>
		<path class="st8" d="M1311.4,849.7c-2.1-6.6-7.2-8-12.1-6.5c-3.5,1.1-5.4,2.3-7,3.7l-1.9-3.2c1.5-1.3,4.2-3.1,8.4-4.4
			c8.3-2.5,14.9,1.4,17.3,9.5s-0.4,15.9-8.2,18.3c-8.8,2.7-13.4-4.3-15-9.3c-0.3-1-0.4-1.8-0.5-2.3L1311.4,849.7z M1298.1,857.6
			c0.9,3.1,3.7,7.5,9.2,5.9c4.9-1.5,5.7-6.7,5.1-10.2L1298.1,857.6z M1309.8,878.5l-7.7-6.3l3.7-1.1l4.8,4.3l0.1,0l1.6-6.3l3.7-1.1
			l-2.8,9.5L1309.8,878.5z"/>
	</g>
	<g>
		<path class="st8" d="M742.2,1674.3l-2.7,11.6l-4.2-1l6.5-28.2l4.2,1l-2.7,11.6l33.9,7.9l-1.2,5L742.2,1674.3z"/>
		<path class="st8" d="M742.7,1650.7c2.3,0.2,4.3-0.8,4.8-3.2c0.6-2.7-1.1-4.4-3-5l0.7-2.9c4.2,1,6.4,4.4,5.4,8.6
			c-1.2,5-5.1,6.2-8.6,5.4L742.7,1650.7z M783.5,1649.9l-3.5-0.4l0,0.2c1.8,2,3,5.4,2.1,9.3c-1.3,5.5-5.8,7.5-9.8,6.5
			c-6.6-1.5-8.9-8.2-6.4-18.8l-0.6-0.1c-2.3-0.5-6.5-0.8-7.8,4.7c-0.6,2.5-0.4,5.4,0.4,7.6l-3.5,0.4c-0.9-2.6-1.1-6.1-0.3-9.5
			c1.9-8.4,8.1-9.1,13.6-7.8l10.2,2.4c2.4,0.6,4.7,1,6.7,1.1L783.5,1649.9z M769.4,1647.4c-1.4,5.4-1.8,11.8,3.5,13
			c3.2,0.7,5.2-1,5.8-3.6c0.8-3.6-0.9-6.3-3-7.7c-0.5-0.3-1-0.5-1.5-0.6L769.4,1647.4z"/>
		<path class="st8" d="M766.4,1633.2c-2.8-0.7-5.2-1.1-7.5-1.5l1-4.4l4.6,0.8l0-0.1c-2.3-2-4.1-5.7-3-10.2c0.9-3.8,4.5-9.1,13.9-7
			l16.3,3.8l-1.2,5l-15.8-3.7c-4.4-1-8.5-0.2-9.5,4.5c-0.8,3.3,1,6.4,3.5,7.8c0.6,0.4,1.4,0.7,2.2,0.9l16.4,3.8l-1.2,5L766.4,1633.2
			z"/>
		<path class="st8" d="M771.7,1576.6c2,0.6,4.1,1.2,7.5,2l15.9,3.7c6.3,1.5,9.8,3.6,11.6,6.8c1.9,3.2,1.8,7.3,1,10.7
			c-0.8,3.3-2.4,6.7-4.4,8.6l-3.5-2.1c1.5-1.5,3.2-4.1,4-7.5c1.2-5.1-0.6-9.4-7.5-11l-3.1-0.7l0,0.1c2.2,2.1,3.5,5.5,2.6,9.8
			c-1.6,6.8-8.5,10.3-16,8.6c-9.3-2.1-13.1-9.4-11.7-15.7c1.1-4.7,4.2-6.8,6.7-7.4l0-0.1l-4.1-1.2L771.7,1576.6z M781.3,1584.2
			c-0.8-0.2-1.6-0.3-2.3-0.2c-3.1,0.2-6,2.1-6.9,5.7c-1.1,4.7,2.1,9.1,8.5,10.5c5.4,1.2,10.5-0.4,11.7-5.8c0.7-3.1-0.6-6.3-3.5-8.1
			c-0.8-0.5-1.7-0.8-2.6-1L781.3,1584.2z"/>
		<path class="st8" d="M763.6,1553.6l1.2-5l40.1,9.3l-1.2,5L763.6,1553.6z"/>
		<path class="st8" d="M779.6,1514.5c1.3-0.4,2.8-0.4,4.3-0.1c2.8,0.7,4.2,3.1,3.6,5.9l-0.1,0.6l17.1,4c2.8,0.7,5.3,1.2,7.5,1.5
			l-1,4.4l-4.5-0.8l0,0.1c1.9,1.8,4.1,5.4,3,10.2c-1,4.3-4.6,8.9-14.2,6.7l-16-3.7l1.2-5l15.1,3.5c5.2,1.2,9.1,0.4,10.1-4.1
			c0.8-3.3-1-6.2-3-7.6c-0.7-0.5-1.5-0.8-2.4-1l-16.8-3.9l0.9-3.9c0.5-2-0.2-2.8-1.6-3.2c-1.1-0.2-2.4-0.1-3.5,0.2L779.6,1514.5z"/>
		<path class="st8" d="M788.1,1484.8c1.3-0.3,2.8-0.4,4.3,0c3.1,0.7,4.7,3,3.7,6.4c2.7-1.3,6-1.6,9.7-0.7
			c10.1,2.3,12.9,10.4,11.4,17c-1.7,7.4-8.5,11.9-17.1,9.9c-9.2-2.1-13.1-9.4-11.4-16.9c0.4-1.7,1-3.1,1.9-4.5
			c0.7-1.3,2.2-2.7,2.6-4.5c0.3-1.5-0.3-2.4-1.7-2.8c-1.2-0.3-2.5-0.2-3.5,0.1L788.1,1484.8z M801.1,1512.2c6,1.4,11.3-1,12.4-5.9
			c1.1-4.7-2.5-9.3-8.7-10.8c-4.6-1.1-11-0.1-12.4,5.8C791,1507.2,795.9,1511,801.1,1512.2z"/>
		<path class="st8" d="M801.3,1482.6c-2.8-0.7-5.2-1.1-7.5-1.5l1-4.4l4.6,0.8l0-0.1c-2.3-2-4.1-5.7-3-10.2c0.9-3.8,4.5-9.1,13.9-7
			l16.3,3.8l-1.2,5l-15.8-3.7c-4.4-1-8.5-0.2-9.5,4.5c-0.8,3.3,1,6.4,3.5,7.8c0.6,0.4,1.4,0.7,2.2,0.9l16.4,3.8l-1.2,5L801.3,1482.6
			z"/>
		<path class="st8" d="M806.6,1425.9c2,0.6,4.1,1.2,7.5,2l15.9,3.7c6.3,1.5,9.8,3.6,11.6,6.8c1.9,3.2,1.8,7.3,1,10.7
			c-0.8,3.3-2.4,6.7-4.4,8.6l-3.5-2.1c1.5-1.5,3.2-4.1,4-7.5c1.2-5.1-0.6-9.4-7.5-11l-3.1-0.7l0,0.1c2.2,2.1,3.5,5.5,2.6,9.8
			c-1.6,6.8-8.5,10.3-16,8.6c-9.3-2.1-13.1-9.4-11.7-15.7c1.1-4.7,4.2-6.8,6.7-7.4l0-0.1l-4.1-1.2L806.6,1425.9z M816.2,1433.6
			c-0.8-0.2-1.6-0.3-2.3-0.2c-3.1,0.2-6,2.1-6.9,5.7c-1.1,4.7,2.1,9.1,8.5,10.5c5.4,1.2,10.5-0.4,11.7-5.8c0.7-3.1-0.6-6.3-3.5-8.1
			c-0.8-0.5-1.7-0.8-2.6-1L816.2,1433.6z"/>
		<path class="st8" d="M832.4,1411.4c1.9-1.9,3.7-4.8,4.5-8.2c1.2-5-0.8-8.6-4.7-9.5c-3.6-0.8-6.1,0.7-9.2,5.4
			c-3.6,5.7-7.8,8.8-13.1,7.6c-5.9-1.4-9.2-7.3-7.5-14.7c0.9-3.9,2.5-6.5,3.8-8l3.7,2.3c-1,1.1-2.7,3.4-3.5,6.8
			c-1.2,5.2,1.4,7.9,4,8.5c3.6,0.8,5.8-1.1,9.1-5.9c4-5.9,7.8-8.4,13.4-7.1c5.9,1.4,10,6.9,7.9,15.9c-0.9,3.7-2.9,7.4-4.7,9.2
			L832.4,1411.4z"/>
		<path class="st8" d="M807,1349.4l6.2,7.3l-0.7,2.9l-6.6-5.6L807,1349.4z M808.9,1362.3l9.2-3l-0.9,3.8l-6,1.7l0,0.1l4.6,4.1
			l-0.8,3.6l-7-6.6L808.9,1362.3z M833,1378.3c6.8,1.4,10.5-2.2,11.7-7.2c0.8-3.6,0.7-5.9,0.3-7.9l3.8,0c0.4,1.9,0.6,5.1-0.4,9.5
			c-2,8.4-8.7,12.2-16.9,10.3c-8.3-1.9-13.6-8.3-11.8-16.2c2.1-8.9,10.5-9.5,15.5-8.3c1,0.2,1.8,0.5,2.3,0.7L833,1378.3z
			 M832.8,1362.9c-3.2-0.8-8.4-0.6-9.7,5c-1.2,5,3,8.3,6.3,9.5L832.8,1362.9z"/>
		<path class="st8" d="M833.2,1351.5c-3.5-0.8-6.4-1.4-9-1.8l1-4.5l4.7,0.9l0-0.1c-2.9-2.8-4.1-6.5-3.1-11
			c1.5-6.6,8.3-10.3,16.6-8.4c9.8,2.3,13.3,9.4,11.8,15.8c-0.8,3.6-3.2,6.4-6.2,7.4l0,0.1l14.9,3.4l-1.1,4.9L833.2,1351.5z
			 M841.6,1348.3c0.7,0.2,1.4,0.2,2.1,0.2c3.7-0.1,6.7-2.6,7.5-6.1c1.2-5.3-2.4-9.3-8.6-10.8c-5.5-1.3-10.8,0.5-12.1,5.8
			c-0.8,3.4,0.9,7.1,4.4,8.9c0.6,0.3,1.3,0.7,2,0.8L841.6,1348.3z"/>
		<path class="st8" d="M841.9,1307c-2.8-0.7-5.2-1.1-7.5-1.5l1-4.4l4.6,0.8l0-0.1c-2.3-2-4.1-5.7-3-10.2c0.9-3.8,4.5-9.1,13.9-7
			l16.3,3.8l-1.2,5l-15.8-3.7c-4.4-1-8.5-0.2-9.5,4.5c-0.8,3.3,1,6.4,3.5,7.8c0.6,0.4,1.4,0.7,2.2,0.9l16.4,3.8l-1.2,5L841.9,1307z"
			/>
		<path class="st8" d="M829,1271l1.2-5l17.1,4l0-0.1c-1.2-1.1-2.2-2.7-2.7-4.4c-0.5-1.7-0.7-3.5-0.2-5.4c0.9-3.7,4.5-9,13.9-6.8
			l16.3,3.8l-1.2,5l-15.7-3.6c-4.4-1-8.5-0.2-9.6,4.4c-0.7,3.2,0.9,6.3,3.4,7.8c0.6,0.4,1.3,0.7,2.3,0.9l16.5,3.8l-1.2,5L829,1271z"
			/>
		<path class="st8" d="M841.5,1221.3l6.5,8.8l-0.8,3.6l-6.9-6.8L841.5,1221.3z M864.2,1243.2c6.8,1.4,10.5-2.2,11.7-7.2
			c0.8-3.6,0.7-5.9,0.3-7.9l3.8,0c0.4,1.9,0.6,5.1-0.4,9.5c-2,8.4-8.7,12.2-16.9,10.3c-8.3-1.9-13.6-8.3-11.8-16.2
			c2.1-8.9,10.5-9.5,15.5-8.3c1,0.2,1.8,0.5,2.3,0.7L864.2,1243.2z M864.1,1227.8c-3.2-0.8-8.4-0.6-9.7,5c-1.2,5,3,8.3,6.3,9.5
			L864.1,1227.8z"/>
		<path class="st8" d="M872.1,1217.6l-27.3-5.5l1.3-5.4l26.9,7.1L872.1,1217.6z M879.8,1220.9c-2-0.5-3.2-2.2-2.7-4.1
			c0.5-2,2.2-3,4.3-2.5c2,0.5,3.2,2.1,2.7,4.1C883.6,1220.3,881.8,1221.3,879.8,1220.9z"/>
	</g>
	<g>
		<path class="st8" d="M1150.6,218.8l2.7-11.6l4.2,1l-6.5,28.2l-4.2-1l2.7-11.6l-33.9-7.9l1.2-5L1150.6,218.8z"/>
		<path class="st8" d="M1131.3,233.5c3.2,0.7,6,1.3,8.6,1.7l-1,4.4l-5.4-1.1l-0.1,0.2c3.4,2.1,5,5.6,4.2,9c-0.1,0.6-0.3,0.9-0.5,1.4
			l-4.7-1.1c0.2-0.5,0.4-1,0.6-1.7c0.8-3.5-1.3-6.6-4.8-8.1c-0.7-0.3-1.4-0.6-2.3-0.8l-14.6-3.4l1.1-4.9L1131.3,233.5z"/>
		<path class="st8" d="M1110.4,272.2c-2.8-0.7-5.3-1.2-7.5-1.5l1-4.4l4.5,0.8l0-0.1c-1.9-1.8-4.1-5.4-3-10.2c1-4.3,4.6-8.9,14.2-6.7
			l16,3.7l-1.2,5l-15.1-3.5c-5.2-1.2-9.1-0.4-10.1,4.1c-0.8,3.3,1,6.2,3,7.6c0.7,0.5,1.5,0.8,2.4,1l16.8,3.9l-1.2,5L1110.4,272.2z
			 M1142.9,276.2l-6.5-8.8l0.8-3.6l6.9,6.8L1142.9,276.2z"/>
		<path class="st8" d="M1121,283.3c2.8,0.7,5.2,1.1,7.5,1.5l-1,4.4l-4.6-0.8l0,0.1c2.3,2,4.1,5.7,3,10.2c-0.9,3.8-4.5,9.1-13.9,7
			l-16.3-3.8l1.2-5l15.8,3.7c4.4,1,8.5,0.2,9.5-4.5c0.8-3.3-1-6.4-3.5-7.8c-0.6-0.4-1.4-0.7-2.2-0.9l-16.4-3.8l1.2-5L1121,283.3z"/>
		<path class="st8" d="M1115.7,340c-2-0.6-4.1-1.2-7.5-2l-15.9-3.7c-6.3-1.5-9.8-3.6-11.6-6.8c-1.9-3.2-1.8-7.3-1-10.7
			c0.8-3.3,2.4-6.7,4.4-8.6l3.5,2.1c-1.5,1.5-3.2,4.1-4,7.5c-1.2,5.1,0.6,9.4,7.5,11l3.1,0.7l0-0.1c-2.2-2.1-3.5-5.5-2.6-9.8
			c1.6-6.8,8.5-10.3,16-8.6c9.3,2.1,13.1,9.4,11.7,15.7c-1.1,4.7-4.2,6.8-6.7,7.4l0,0.1l4.1,1.2L1115.7,340z M1106,332.4
			c0.8,0.2,1.6,0.3,2.3,0.2c3.1-0.2,6-2.1,6.9-5.7c1.1-4.7-2.1-9.1-8.5-10.5c-5.4-1.2-10.5,0.4-11.7,5.8c-0.7,3.1,0.6,6.3,3.5,8.1
			c0.8,0.5,1.7,0.8,2.6,1L1106,332.4z"/>
		<path class="st8" d="M1070.8,383.9c2.5-4.8,5.2-9.5,7.8-13.6c0.5-0.7,0.9-1.5,1.1-2.2c2.4-9,10.9-15.2,23.2-12.3
			c12.2,2.8,18.3,12.1,16,22.4c-2.4,10.3-12,15.2-23.2,12.6c-9.8-2.3-15-8.2-15.7-15.1l-0.2-0.1c-1.8,3.6-3.7,7.5-5,10.6
			L1070.8,383.9z M1096.5,385.6c7.6,1.8,16.4-0.4,18.3-8.5c1.9-8.3-4.8-14.2-13.1-16c-8.1-1.9-16.4,0.8-18.2,8.5
			C1081.7,377.5,1087.8,383.6,1096.5,385.6z"/>
		<path class="st8" d="M1076.8,417.4c-2.8-0.7-5.3-1.2-7.5-1.5l1-4.4l4.5,0.8l0-0.1c-1.9-1.8-4.1-5.4-3-10.2c1-4.3,4.6-8.9,14.2-6.7
			l16,3.7l-1.2,5l-15.1-3.5c-5.2-1.2-9.1-0.4-10.1,4.1c-0.8,3.3,1,6.2,3,7.6c0.7,0.5,1.5,0.8,2.4,1l16.8,3.9l-1.2,5L1076.8,417.4z"
			/>
		<path class="st8" d="M1063.9,439l3.5,0.4l0-0.2c-1.8-2-3-5.4-2.1-9.3c1.3-5.5,5.8-7.5,9.8-6.5c6.6,1.5,8.9,8.2,6.4,18.8l0.6,0.1
			c2.3,0.5,6.5,0.8,7.8-4.8c0.6-2.5,0.4-5.4-0.4-7.6l3.5-0.4c0.9,2.6,1.1,6.1,0.3,9.5c-1.9,8.4-8.1,9.1-13.6,7.8l-10.2-2.4
			c-2.4-0.5-4.7-1-6.7-1.1L1063.9,439z M1078,441.5c1.4-5.4,1.8-11.8-3.5-13c-3.2-0.7-5.2,1-5.8,3.6c-0.8,3.6,0.9,6.3,3,7.7
			c0.5,0.3,1,0.5,1.5,0.6L1078,441.5z M1105,439.7l-9.2,3l0.8-3.5l9.7-5L1105,439.7z"/>
		<path class="st8" d="M1070.5,468.8c-6.8-1.4-10.5,2.2-11.7,7.2c-0.8,3.6-0.7,5.9-0.3,7.9l-3.8,0c-0.4-1.9-0.6-5.1,0.4-9.5
			c2-8.4,8.7-12.2,16.9-10.3c8.2,1.9,13.6,8.3,11.8,16.2c-2.1,8.9-10.5,9.5-15.5,8.3c-1-0.2-1.8-0.5-2.3-0.7L1070.5,468.8z
			 M1070.7,484.2c3.2,0.8,8.4,0.6,9.7-5c1.2-5-3-8.3-6.3-9.5L1070.7,484.2z"/>
		<path class="st8" d="M1071.7,496c2.8,0.7,5.2,1.1,7.5,1.5l-1,4.4l-4.5-0.8l0,0.2c2.2,2.1,4.1,5.2,3,9.8c-0.9,3.7-3.8,6-7.3,6.5
			l0,0.1c1.3,1.2,2.3,2.5,2.9,3.9c0.9,1.9,1.1,3.9,0.5,6.5c-0.8,3.6-4.5,8.4-13.9,6.2l-16.1-3.7l1.1-4.9l15.5,3.6
			c5.3,1.2,8.9,0,9.8-4c0.7-2.8-0.9-5.5-3.2-6.9c-0.6-0.4-1.5-0.8-2.4-1l-16.9-3.9l1.1-4.9l16.4,3.8c4.4,1,8-0.2,8.8-4
			c0.7-3.1-1.2-5.9-3.5-7.3c-0.7-0.5-1.5-0.8-2.3-1l-16.5-3.8l1.1-4.9L1071.7,496z"/>
		<path class="st8" d="M1051.8,558.9l0,0.1c0.8,0.9,1.8,2.1,2.5,3.2l7.6,10.2l-1.4,6l-8.8-13.2l-18.9,8.3l1.4-6l15.3-6.4l-2.2-3.2
			l-10.3-2.4l1.1-4.9l40.1,9.3l-1.1,4.9L1051.8,558.9z"/>
		<path class="st8" d="M1071.9,587.3l-1.2,5l-17.1-4l0,0.1c1.2,1.1,2.2,2.6,2.7,4.4c0.5,1.7,0.7,3.5,0.2,5.4
			c-0.9,3.7-4.5,9-13.9,6.8l-16.3-3.8l1.2-5l15.7,3.6c4.4,1,8.5,0.2,9.6-4.4c0.7-3.2-0.9-6.3-3.4-7.8c-0.6-0.4-1.3-0.7-2.3-0.9
			l-16.5-3.8l1.2-5L1071.9,587.3z"/>
		<path class="st8" d="M1021,624.5l3.5,0.4l0-0.2c-1.8-2-3-5.4-2.1-9.3c1.3-5.5,5.8-7.5,9.8-6.5c6.6,1.5,8.9,8.2,6.4,18.8l0.6,0.1
			c2.3,0.5,6.5,0.8,7.8-4.8c0.6-2.5,0.4-5.4-0.4-7.6l3.5-0.4c0.9,2.6,1.1,6.1,0.3,9.5c-1.9,8.4-8.1,9.1-13.6,7.8l-10.2-2.4
			c-2.4-0.5-4.7-1-6.7-1.1L1021,624.5z M1035.1,627c1.4-5.4,1.8-11.8-3.5-13c-3.2-0.7-5.2,1-5.8,3.6c-0.8,3.6,0.9,6.3,3,7.7
			c0.5,0.3,1,0.5,1.5,0.6L1035.1,627z"/>
		<path class="st8" d="M1026.3,664.6c-10.1-2.3-12.9-10.4-11.4-17c1.7-7.4,8.5-11.9,17.1-9.9c9.2,2.1,13.1,9.4,11.4,16.9
			C1041.7,662.5,1034.7,666.5,1026.3,664.6z M1031.1,642.8c-6-1.4-11.3,1-12.4,5.9c-1.1,4.7,2.5,9.3,8.7,10.8
			c4.6,1.1,11,0.1,12.4-5.8C1041.1,647.8,1036.3,644,1031.1,642.8z"/>
	</g>
	<g>
		<path class="st8" d="M1456.6,1447.4c-3.5,4.2-7.7,9.2-11.1,12.7l0.1,0.1c4.1-2.4,8.6-4.9,13.7-7.5l18-9.2l2.8,2.6l-8.1,17.9
			c-2.4,5.3-4.7,10.1-7.1,14.2l0.1,0.1c3.4-3.5,8.1-8.1,12.3-12.1l12.2-11.5l3.5,3.3l-28.7,26.7l-4.7-4.4l8-18.4
			c2.1-4.6,4.1-8.7,6.1-12.3l-0.1-0.1c-3.4,2.2-7.4,4.4-12,6.8l-18,9.1l-4.7-4.4l24.9-30.2l3.6,3.4L1456.6,1447.4z"/>
		<path class="st8" d="M1446.8,1414.8l-2.1,2.9l0.1,0.1c2.6-0.5,6.2,0.1,9.1,2.8c4.2,3.9,3.5,8.8,0.8,11.8c-4.6,5-11.6,3.6-19.5-3.9
			l-0.4,0.4c-1.6,1.7-4,5.2,0.2,9.1c1.9,1.8,4.5,3,6.8,3.5l-1.4,3.2c-2.7-0.5-5.9-2.1-8.4-4.5c-6.3-5.9-3.8-11.6,0-15.7l7.2-7.7
			c1.7-1.8,3.2-3.6,4.3-5.2L1446.8,1414.8z M1437.6,1425.8c4,3.9,9.3,7.5,13,3.5c2.3-2.4,1.7-5.1-0.2-6.8c-2.7-2.5-6-2.4-8.2-1.2
			c-0.5,0.3-1,0.6-1.3,1L1437.6,1425.8z"/>
		<path class="st8" d="M1423.8,1421.3c-2,2.1-3.6,3.9-5,5.7l-3.3-3.1l3-3.6l-0.1-0.1c-2.8,1-7,0.7-10.4-2.5
			c-2.8-2.7-5.7-8.5,0.9-15.5l11.4-12.3l3.7,3.5l-11,11.8c-3.1,3.3-4.4,7.2-0.9,10.5c2.5,2.3,6,2.3,8.6,0.9c0.6-0.3,1.3-0.9,1.9-1.5
			l11.5-12.3l3.7,3.5L1423.8,1421.3z"/>
		<path class="st8" d="M1377.4,1388.4c1.5-1.4,3.1-3,5.4-5.5l11.1-11.9c4.4-4.7,8-6.7,11.7-6.6c3.7,0,7.2,2.1,9.8,4.5
			c2.5,2.3,4.6,5.4,5.2,8.1l-3.6,2c-0.6-2.1-2-4.9-4.5-7.2c-3.8-3.6-8.5-4.2-13.3,1l-2.1,2.3l0.1,0.1c2.9-0.8,6.6-0.3,9.7,2.7
			c5.1,4.8,4.7,12.5-0.6,18.2c-6.5,7-14.7,6.7-19.4,2.3c-3.6-3.3-3.8-7-3.1-9.5l-0.1-0.1l-3.1,2.9L1377.4,1388.4z M1388.8,1383.9
			c-0.6,0.6-1.1,1.2-1.4,1.9c-1.3,2.8-1.2,6.3,1.5,8.8c3.6,3.3,8.9,2.7,13.3-2.1c3.8-4,4.9-9.3,0.8-13c-2.3-2.1-5.7-2.6-8.7-1
			c-0.8,0.4-1.6,1.1-2.2,1.7L1388.8,1383.9z"/>
		<path class="st8" d="M1364.6,1344L1364.6,1344c3.1-0.9,6.9-0.4,10.2,2.7c4.8,4.5,4.8,12.3-1,18.5c-7.2,7.7-15.3,6.4-19.6,2.4
			c-3.2-3-3.8-6.5-3-9.5l-0.1-0.1l-3,3l-3.5-3.3c1.7-1.7,3.4-3.4,5.4-5.5l21.7-23.3l3.7,3.5L1364.6,1344z M1356.1,1353
			c-0.5,0.5-1,1.1-1.3,1.7c-1.6,2.8-1.4,6.6,1.4,9.2c3.9,3.6,9.2,2.5,13.6-2.1c3.8-4.1,5.2-9.5,1.1-13.3c-2.4-2.3-5.9-2.7-9.1-0.9
			c-0.6,0.4-1.4,1-2,1.5L1356.1,1353z"/>
		<path class="st8" d="M1335.2,1321.1c2-2.1,3.7-4,5.1-5.8l3.3,3.1l-2.9,3.5l0.1,0.1c2.5-0.7,6.7-0.9,10.3,2.5
			c3.2,3,5.4,8.4-1.3,15.6l-11.2,12l-3.7-3.5l10.6-11.4c3.6-3.9,4.9-7.6,1.5-10.8c-2.5-2.3-5.9-2.2-8.1-1.2
			c-0.7,0.4-1.5,0.9-2.1,1.6l-11.8,12.6l-3.7-3.5L1335.2,1321.1z"/>
		<path class="st8" d="M1301.8,1334.4l2-9.5l2.6,2.5l-0.5,10.9L1301.8,1334.4z M1322.9,1299.1l-2.1,2.9l0.1,0.1
			c2.6-0.5,6.2,0.1,9.1,2.8c4.2,3.9,3.5,8.8,0.8,11.8c-4.6,5-11.6,3.6-19.5-3.9l-0.4,0.4c-1.6,1.7-4,5.2,0.2,9.1
			c1.9,1.8,4.5,3,6.8,3.5l-1.4,3.3c-2.7-0.5-5.9-2.1-8.4-4.5c-6.3-5.9-3.8-11.6,0-15.7l7.2-7.7c1.7-1.8,3.2-3.6,4.3-5.2
			L1322.9,1299.1z M1313.7,1310.1c4,3.9,9.3,7.5,13,3.5c2.3-2.4,1.7-5.1-0.2-6.8c-2.7-2.5-6-2.4-8.2-1.2c-0.5,0.3-1,0.6-1.3,1
			L1313.7,1310.1z"/>
		<path class="st8" d="M1284.3,1301.5l6.7-15.3c1.1-2.5,2.1-4.7,3.3-6.8l-0.1-0.1c-2,1.3-4.2,2.4-6.6,3.6l-14.8,7.8l-3.9-3.6
			l27.2-13l3.6,3.3l-11.4,27.8L1284.3,1301.5z"/>
		<path class="st8" d="M1241.1,1284.2l2.6-8.1l2.2,2l-1.3,9.2L1241.1,1284.2z M1248.1,1284.2l2-9.5l2.8,2.6l-1.6,6l0.1,0.1l5.9-2
			l2.7,2.5l-9.2,2.7L1248.1,1284.2z M1273.9,1271.3c4.6-5.1,3.3-10.2-0.4-13.7c-2.7-2.5-4.7-3.5-6.7-4.2l1.9-3.3
			c1.9,0.6,4.7,2.1,8,5.1c6.3,5.9,6.2,13.6,0.4,19.8c-5.8,6.2-14,7.7-20,2.1c-6.7-6.3-3-13.8,0.5-17.6c0.7-0.8,1.4-1.3,1.8-1.6
			L1273.9,1271.3z M1260.4,1263.7c-2.3,2.3-4.7,7-0.5,10.9c3.8,3.5,8.7,1.6,11.4-0.7L1260.4,1263.7z"/>
		<path class="st8" d="M1239.3,1222.5c1.5,0.4,4.2,1.7,7,4.3c6.2,5.8,6.3,13.7,0.4,20c-5.9,6.3-14.5,6.9-21.2,0.6
			c-2.2-2.1-3.6-4.4-4.2-5.9l3.5-2.1c0.4,1.3,1.4,3.1,3.4,5c4.7,4.4,10.5,3.3,14.5-1c4.4-4.7,4.1-10.5,0-14.3c-2.1-2-4-2.7-5.5-3.3
			L1239.3,1222.5z"/>
		<path class="st8" d="M1207.6,1247.8l-3.7-3.5l12-12.8l-0.1-0.1c-1.6,0.5-3.4,0.6-5.1,0.1c-1.7-0.4-3.4-1.2-4.8-2.5
			c-2.8-2.6-5.6-8.4,1-15.5l11.4-12.2l3.7,3.5l-11,11.8c-3.1,3.3-4.5,7.3-1,10.5c2.4,2.3,5.9,2.3,8.5,0.9c0.7-0.3,1.2-0.8,1.9-1.5
			l11.6-12.4l3.7,3.5L1207.6,1247.8z"/>
		<path class="st8" d="M1183.8,1188.8c7.1-7.6,15.4-6,20.4-1.4c5.6,5.2,6,13.3,0,19.7c-6.4,6.9-14.7,6.7-20.3,1.4
			C1178,1203.1,1178,1195.1,1183.8,1188.8z M1200.3,1203.8c4.2-4.5,4.8-10.3,1.1-13.7c-3.6-3.3-9.4-2.5-13.7,2.2
			c-3.2,3.5-5.6,9.5-1.2,13.6C1191,1210,1196.7,1207.7,1200.3,1203.8z"/>
		<path class="st8" d="M1165.9,1180.6c-2,2.1-3.6,3.9-5,5.7l-3.3-3l2.9-3.5l-0.1-0.1c-3,0.9-6.6,0.9-10-2.2c-2.8-2.6-3.3-6.3-2-9.5
			l-0.1-0.1c-1.7,0.6-3.3,0.7-4.8,0.5c-2.1-0.2-3.9-1-5.9-2.8c-2.7-2.5-5.1-8.1,1.6-15.2l11.3-12.1l3.6,3.4l-10.8,11.6
			c-3.7,3.9-4.5,7.7-1.4,10.5c2.1,2,5.2,2,7.6,0.7c0.6-0.4,1.4-0.9,2-1.6l11.8-12.7l3.6,3.4l-11.5,12.3c-3,3.3-3.8,7-1,9.6
			c2.3,2.2,5.8,1.9,8.1,0.6c0.7-0.4,1.4-0.9,2-1.5l11.6-12.4l3.6,3.4L1165.9,1180.6z"/>
		<path class="st8" d="M1133.5,1140.2c4.6-5.1,3.3-10.2-0.4-13.7c-2.7-2.5-4.7-3.5-6.7-4.2l1.9-3.3c1.9,0.6,4.7,2.1,8,5.1
			c6.3,5.9,6.2,13.6,0.4,19.8c-5.8,6.2-14,7.7-20,2.1c-6.7-6.3-3-13.8,0.5-17.6c0.7-0.8,1.4-1.3,1.8-1.6L1133.5,1140.2z
			 M1120.1,1132.7c-2.3,2.3-4.7,7-0.5,10.9c3.8,3.5,8.7,1.6,11.4-0.7L1120.1,1132.7z M1140.1,1118c1.1-1.2,2.9-1.4,4.2-0.2
			c1.2,1.1,1.1,3,0,4.1c-1.1,1.2-3,1.3-4.2,0.1C1138.9,1121,1139,1119.2,1140.1,1118z"/>
	</g>
	<g>
		<path class="st8" d="M436,368.7l3.5,3.6L426,385.5l0.1,0.1c1.8-0.3,3.5-0.5,5.1-0.7l18.8-1.7l4.4,4.5l-21.8,1.5l-5.4,26.6
			l-4.2-4.3l4.7-22.6l-5.7,0.3l-10.7,10.4L408,396L436,368.7z"/>
		<path class="st8" d="M459.7,390l3.6,3.7l-12.5,12.2l0.1,0.1c1.6-0.4,3.4-0.4,5.1,0.1c1.7,0.5,3.3,1.4,4.7,2.7
			c2.6,2.7,5.2,8.6-1.7,15.4l-12,11.7l-3.6-3.7l11.5-11.3c3.2-3.2,4.8-7,1.4-10.5c-2.3-2.4-5.8-2.6-8.4-1.3c-0.7,0.3-1.3,0.8-2,1.5
			l-12.1,11.8l-3.6-3.7L459.7,390z"/>
		<path class="st8" d="M452.7,441.8l20.1-19.6l3.6,3.7l-20.1,19.6L452.7,441.8z M482.4,420.8c-1.2,1.3-3.1,1.3-4.5-0.1
			c-1.3-1.3-1.2-3.2,0.1-4.4c1.3-1.3,3.2-1.3,4.5,0.1C483.9,417.7,483.7,419.5,482.4,420.8z"/>
		<path class="st8" d="M473.6,444.4c-4.9,4.9-3.8,10-0.2,13.7c2.6,2.6,4.5,3.7,6.5,4.5l-2,3.2c-1.8-0.7-4.6-2.3-7.8-5.5
			c-6-6.2-5.6-13.8,0.5-19.8c6.1-5.9,14.3-7,20-1.2c6.4,6.6,2.3,13.9-1.4,17.5c-0.7,0.7-1.4,1.2-1.8,1.5L473.6,444.4z M486.7,452.6
			c2.4-2.2,5-6.8,1-10.9c-3.6-3.7-8.6-2-11.4,0.2L486.7,452.6z M499.9,432.6l-2,9.8l-2.7-2.8l1.6-6.3l-0.1-0.1l-6.3,1.4l-2.7-2.7
			l9.8-1.9L499.9,432.6z"/>
		<path class="st8" d="M497.2,458c2.1-2,3.7-3.7,5.3-5.5l3.1,3.2l-3.1,3.3l0.1,0.1c3-0.7,6.6-0.6,9.9,2.7c2.7,2.7,3,6.4,1.5,9.6
			l0.1,0.1c1.7-0.5,3.4-0.5,4.8-0.3c2.1,0.3,3.9,1.2,5.7,3.1c2.6,2.7,4.7,8.3-2.3,15.1L510.5,501l-3.5-3.6l11.4-11.1
			c3.9-3.8,4.8-7.4,1.9-10.4c-2-2.1-5.1-2.2-7.5-1.1c-0.7,0.3-1.4,0.8-2.1,1.5l-12.4,12.1l-3.5-3.6l12-11.8c3.2-3.1,4.1-6.8,1.4-9.6
			c-2.2-2.3-5.7-2.2-8.1-1c-0.7,0.3-1.4,0.8-2.1,1.5L486,475.9l-3.5-3.6L497.2,458z"/>
		<path class="st8" d="M555,494.9l-5.8,5.6l5.1,5.2l-2.8,2.7l-5.1-5.2l-10.8,10.6c-2.5,2.4-3.2,4.5-1.2,6.5c0.9,1,1.7,1.5,2.3,1.9
			l-2.6,2.8c-1-0.4-2.3-1.3-3.7-2.8c-1.7-1.7-2.5-3.6-2.3-5.4c0.1-2.1,1.5-4.2,3.9-6.5l11-10.7l-3-3.1l2.8-2.7l3,3.1l4.8-4.7
			L555,494.9z"/>
		<path class="st8" d="M566,537.5c-7.4,7.3-15.7,5.3-20.4,0.4c-5.3-5.4-5.4-13.5,0.9-19.7c6.7-6.6,15-6,20.4-0.5
			C572.6,523.5,572.2,531.5,566,537.5z M550.3,521.7c-4.4,4.3-5.2,10.1-1.8,13.6c3.4,3.5,9.2,2.9,13.8-1.5c3.4-3.3,6.1-9.2,1.8-13.6
			C559.9,516,554.1,518,550.3,521.7z M576.5,511.1l-2.5,9.4l-2.7-2.8l1.8-5.9l-0.1-0.1l-6,1.7l-2.6-2.7l9.3-2.3L576.5,511.1z
			 M588.3,516.4l-9.5,1.2l-2.1-2.1l8.2-2.5L588.3,516.4z"/>
		<path class="st8" d="M574.9,537.7c2.1-2,3.7-3.7,5.3-5.5l3.2,3.2l-3.1,3.4l0.1,0.1c2.9-0.9,7-0.4,10.3,3c2.7,2.8,5.3,8.7-1.6,15.4
			l-12,11.7l-3.6-3.7l11.6-11.3c3.2-3.2,4.8-7,1.4-10.4c-2.3-2.4-5.9-2.6-8.5-1.3c-0.6,0.3-1.3,0.8-1.9,1.4l-12.1,11.8l-3.6-3.7
			L574.9,537.7z"/>
		<path class="st8" d="M575.4,577.7c3.3-1.5,8.9-4.7,12.4-7.2l4.4,3.7c-4.5,2.5-10.8,5.2-13.9,5.9L575.4,577.7z"/>
		<path class="st8" d="M614.4,578.2c2.1-2,3.7-3.7,5.3-5.5l3.1,3.2l-3.1,3.3l0.1,0.1c3-0.7,6.6-0.6,9.9,2.7c2.7,2.7,3,6.4,1.5,9.6
			l0.1,0.1c1.7-0.5,3.4-0.5,4.8-0.3c2.1,0.3,3.9,1.2,5.7,3.1c2.6,2.7,4.7,8.3-2.3,15.1l-11.8,11.5l-3.5-3.6l11.4-11.1
			c3.9-3.8,4.8-7.4,1.9-10.4c-2-2.1-5.1-2.2-7.5-1.1c-0.7,0.3-1.4,0.8-2.1,1.5l-12.4,12.1l-3.5-3.6l12-11.8c3.2-3.1,4.1-6.8,1.4-9.6
			c-2.2-2.3-5.7-2.2-8.1-1c-0.7,0.3-1.4,0.8-2.1,1.5l-12.1,11.8l-3.5-3.6L614.4,578.2z"/>
		<path class="st8" d="M637,641.5c-1.2,1.1-3,1.3-4.2,0c-1.1-1.2-1-3,0.2-4.1c1.2-1.1,3-1.2,4.2,0.1
			C638.2,638.5,638.1,640.3,637,641.5z M644.4,638.2l2.2-2.8l-0.1-0.1c-2.7,0.4-6.2-0.4-9-3.2c-4-4.1-3.1-8.9-0.2-11.8
			c4.9-4.7,11.7-3,19.3,4.8l0.4-0.4c1.7-1.6,4.2-5,0.2-9.1c-1.8-1.9-4.3-3.3-6.6-3.8l1.6-3.2c2.7,0.6,5.8,2.3,8.2,4.9
			c6,6.1,3.3,11.7-0.8,15.7l-7.5,7.3c-1.7,1.7-3.4,3.4-4.5,5L644.4,638.2z M654.2,627.7c-3.8-4.1-8.9-7.9-12.8-4.1
			c-2.4,2.3-1.9,5-0.1,6.8c2.6,2.6,5.8,2.7,8.1,1.6c0.5-0.2,1-0.6,1.4-0.9L654.2,627.7z M665.8,603.5c-1.4,1.8-1.6,4.1,0.1,5.8
			c1.9,2,4.3,1.4,5.8,0.2l2.1,2.2c-3.1,3-7.1,3-10.2-0.1c-3.6-3.7-2.5-7.7,0.1-10.2L665.8,603.5z"/>
		<path class="st8" d="M683.1,626.1l-5.8,5.6l5.1,5.2l-2.8,2.7l-5.1-5.2L663.7,645c-2.5,2.4-3.2,4.5-1.2,6.5c0.9,1,1.7,1.5,2.3,1.9
			l-2.6,2.8c-1-0.4-2.3-1.3-3.7-2.8c-1.7-1.7-2.5-3.6-2.3-5.4c0.1-2.1,1.5-4.2,3.9-6.5l11-10.7l-3-3.1l2.8-2.7l3,3.1l4.8-4.7
			L683.1,626.1z"/>
		<path class="st8" d="M721.3,658L697,681.8c-1.8,1.7-3.8,3.8-5,5.2l-3.2-3.3l3.3-3.6l-0.1-0.1c-3.3,1.1-7.4,0.3-10.6-3
			c-4.7-4.9-4.3-12.6,1.8-18.6c6.6-6.6,14.8-6.4,19.6-1.5c3,3.1,3.6,6.6,2.8,9.1l0.1,0.1l12-11.7L721.3,658z M700.2,671.5
			c0.5-0.4,1-1.1,1.4-1.7c1.8-2.8,1.8-6.7-0.9-9.4c-3.7-3.8-9.2-2.8-13.6,1.6c-4.1,4-5.5,9.2-1.6,13.2c2.4,2.4,6.2,3.1,9.6,1.1
			c0.6-0.4,1.2-0.8,1.7-1.4L700.2,671.5z"/>
		<path class="st8" d="M708.6,704l2.2-2.8l-0.1-0.1c-2.7,0.4-6.2-0.4-9-3.2c-4-4.1-3.1-8.9-0.2-11.8c4.9-4.7,11.7-3,19.3,4.8
			l0.4-0.4c1.7-1.6,4.2-5,0.2-9.1c-1.8-1.9-4.3-3.3-6.6-3.8l1.6-3.2c2.7,0.6,5.8,2.3,8.2,4.9c6,6.1,3.3,11.7-0.8,15.7l-7.5,7.3
			c-1.7,1.7-3.4,3.4-4.5,5L708.6,704z M718.4,693.5c-3.8-4.1-8.9-7.9-12.8-4.1c-2.4,2.3-1.9,5-0.1,6.8c2.6,2.6,5.8,2.7,8.1,1.6
			c0.5-0.2,1-0.6,1.4-0.9L718.4,693.5z M731.4,669.7l-2.4,9.4l-2.5-2.6l1-10.9L731.4,669.7z"/>
		<path class="st8" d="M738.4,694.3l-7.6,16c-0.9,1.8-2,3.8-2.9,5.3l0.1,0.1c1.6-0.8,3.5-1.9,5.4-2.8l15.7-7.5l3.8,3.9l-19.7,8.5
			c-9.4,4.1-14.7,5.8-19.3,5.4c-3.3-0.2-5.7-1.4-6.7-2.2l2.2-3.9c1.2,0.6,2.9,1.3,4.9,1.5c1.8,0.2,4.4,0.1,7.1-0.9
			c0.5-0.2,0.9-0.4,1.2-0.6c0.2-0.2,0.4-0.6,0.7-1.2l11.3-25.5L738.4,694.3z"/>
		<path class="st8" d="M727.1,733.1c3.3-1.5,8.9-4.7,12.4-7.2l4.4,3.7c-4.5,2.5-10.8,5.2-13.9,5.9L727.1,733.1z"/>
	</g>
	<g>
		<path class="st8" d="M451,554.3c-1.5-0.3-4.4-1.4-7.3-3.7c-6.6-5.3-7.4-13.2-2.1-19.9c5.4-6.8,13.9-8,21.1-2.3
			c2.4,1.9,4,4.1,4.7,5.5l-3.4,2.4c-0.5-1.3-1.6-3-3.8-4.7c-5-4-10.7-2.4-14.4,2.2c-4,5.1-3.2,10.8,1.1,14.3
			c2.3,1.8,4.2,2.4,5.8,2.8L451,554.3z"/>
		<path class="st8" d="M467.2,568.4l1.9-3l-0.1-0.1c-2.6,0.8-6.2,0.4-9.3-2.1c-4.5-3.5-4.3-8.5-1.7-11.6c4.2-5.3,11.2-4.5,19.7,2.3
			l0.4-0.5c1.4-1.8,3.5-5.5-1-9.1c-2-1.6-4.7-2.7-7-2.9l1.2-3.4c2.8,0.3,6,1.6,8.8,3.8c6.7,5.3,4.7,11.2,1.2,15.6l-6.5,8.2
			c-1.5,1.9-2.9,3.8-3.8,5.6L467.2,568.4z M475.5,556.7c-4.3-3.5-9.9-6.7-13.2-2.4c-2.1,2.6-1.3,5.2,0.8,6.8
			c2.9,2.3,6.1,1.9,8.2,0.5c0.5-0.3,0.9-0.7,1.2-1.1L475.5,556.7z M488.7,534.2l-1.2,9.6l-3-2.4l1.1-6.1l-0.1-0.1l-5.7,2.4l-2.9-2.3
			l9-3.5L488.7,534.2z M501.2,538l-9.3,2.4l-2.3-1.8l7.9-3.5L501.2,538z"/>
		<path class="st8" d="M489.6,560.1c1.8-2.3,3.2-4.2,4.5-6.1l3.5,2.8l-2.6,3.7l0.1,0.1c2.9-1.1,6.5-1.5,10.1,1.4
			c3,2.4,3.8,6,2.7,9.3l0.1,0.1c1.7-0.7,3.3-1,4.7-0.9c2.1,0,4,0.6,6.1,2.3c2.9,2.3,5.7,7.6-0.3,15.3l-10.3,13l-3.9-3.1l9.9-12.5
			c3.3-4.2,3.8-8,0.6-10.6c-2.3-1.8-5.4-1.5-7.6-0.1c-0.6,0.4-1.3,1-1.9,1.8l-10.8,13.6l-3.9-3.1l10.4-13.2c2.8-3.5,3.2-7.3,0.2-9.7
			c-2.5-2-5.9-1.4-8.1,0.1c-0.7,0.4-1.3,1-1.9,1.7l-10.5,13.3l-3.9-3.1L489.6,560.1z"/>
		<path class="st8" d="M537.2,597.7c1.8-2.3,3.2-4.2,4.5-6.1l3.5,2.8l-2.7,3.8l0.1,0.1c2.7-1.2,6.9-1.3,10.6,1.6
			c3,2.4,6.3,8,0.4,15.5l-10.4,13.1l-4-3.2l10-12.7c2.8-3.5,3.8-7.6,0-10.5c-2.6-2.1-6.2-1.8-8.6-0.2c-0.6,0.4-1.2,1-1.7,1.6
			L528.5,617l-4-3.2L537.2,597.7z"/>
		<path class="st8" d="M561.9,643.4l1.9-3l-0.1-0.1c-2.6,0.8-6.2,0.4-9.3-2c-4.5-3.5-4.3-8.5-1.7-11.7c4.2-5.3,11.2-4.5,19.7,2.3
			l0.4-0.5c1.4-1.8,3.5-5.5-1-9.1c-2-1.6-4.7-2.7-7-2.9l1.2-3.4c2.8,0.3,6,1.6,8.8,3.8c6.7,5.3,4.7,11.2,1.2,15.6l-6.5,8.2
			c-1.5,1.9-2.9,3.8-3.8,5.6L561.9,643.4z M570.2,631.7c-4.3-3.5-9.9-6.7-13.2-2.4c-2.1,2.6-1.3,5.2,0.8,6.8
			c2.9,2.3,6.1,1.9,8.2,0.5c0.5-0.3,0.9-0.7,1.2-1.1L570.2,631.7z M575.4,614c2.1-1.6,4.6-0.5,6-2.2c0.8-1,0.5-2.1-0.3-2.8
			c-1-0.8-2.3-0.6-3.4-0.1l-0.8-2.1c2.1-1,4.6-1.3,6.8,0.4c2.2,1.7,2.8,4.5,1.2,6.5c-2,2.5-5,1.4-7.7,2.6L575.4,614z"/>
		<path class="st8" d="M584.4,635c1.8-2.3,3.2-4.2,4.5-6.1l3.5,2.8l-2.7,3.8l0.1,0.1c2.7-1.2,6.9-1.3,10.6,1.6c3,2.4,6.3,8,0.4,15.5
			l-10.4,13.1l-4-3.2l10-12.7c2.8-3.5,3.8-7.5,0-10.5c-2.6-2.1-6.2-1.8-8.6-0.2c-0.6,0.4-1.2,1-1.7,1.6l-10.5,13.2l-4-3.2L584.4,635
			z"/>
	</g>
</g>
<g>
	<g>
		<path class="st9" d="M1176.6,1644.3c-2.5,2-4.9,4.1-7.8,5.6c0,0-0.3,0-0.3,0c-0.1-0.4-0.2-0.8-0.3-1.2c-3.3-12.5-6.7-24.9-10-37.4
			c-0.7-2.6-1.4-5.2-2.1-7.7c-0.1-0.2-0.1-0.4-0.2-0.7c-2.1-7.9-4.2-15.7-6.2-23.6c-0.3-1.3-0.8-2.3-2.5-1.9
			c-8.2-1.1-16.5-2.2-24.7-3.3c-0.9-0.1-1.7,0.1-2.5,0.7c-6.6,5.1-13.2,10.1-19.8,15.2c-0.6,0.3-1.4,0.3-1.4,1.2
			c-0.1,0.2,0,0.4,0.1,0.6c2.1,7.7,4.2,15.5,6.2,23.2c0.1,0.2,0.1,0.4,0.2,0.6c0.1,0.4,0.2,0.9,0.3,1.3c0.7,2.6,1.4,5.2,2.1,7.7
			c0.1,0.2,0.1,0.4,0.2,0.7c3.3,12.5,6.7,24.9,10,37.4c0,0.2,0.1,0.4,0.2,0.6l-0.3,0.2c-3.2,0.1-6.4-0.4-9.6-1
			c-0.1-0.4-0.3-0.8-0.4-1.2c-3.4-12.7-6.8-25.4-10.2-38c-0.1-0.2-0.1-0.4-0.2-0.7c-0.6-2.4-1.3-4.7-1.9-7.1
			c-0.1-0.4-0.2-0.9-0.4-1.3c-0.6-2.2-1.2-4.5-1.7-6.7c-1.5-6.4-3.9-12.6-4.7-19.2c0.5-1.6,1.7-2.5,3-3.5
			c5.6-4.3,11.2-8.6,16.8-12.9c0.4-0.1,0.9-0.3,1.3-0.4c6.5-1.7,13-3.5,19.5-5.2c0.4-0.1,0.9-0.2,1.3-0.3c7,0.9,14,1.9,21,2.8
			c1.5,0.2,3.1,0.4,4.3,1.5c0.6,1.6,1.4,3.2,1.8,4.9c1.9,6.9,3.8,13.8,5.7,20.7c0.8,3,1.6,6,2.4,9c3.3,12.5,6.7,24.9,10,37.4
			C1176.3,1643,1176.4,1643.6,1176.6,1644.3z"/>
		<path class="st10" d="M1158.2,1611.2c3.3,12.5,6.7,24.9,10,37.4c-0.5,0.6-0.5,1,0.3,1.2c0,0,0.3,0,0.3,0
			c-7.4,5.8-14.9,11.5-22.8,16.6c-3.5-13.1-7.1-26.3-10.6-39.4c0,0,0,0,0,0c4.3-2.2,7.5-5.9,11.6-8.3
			C1150.9,1616.4,1154,1613,1158.2,1611.2z"/>
		<path class="st11" d="M1135.4,1627c3.5,13.1,7.1,26.3,10.6,39.4c-9.4-0.4-18.7-1.6-28-2.9c0,0,0.3-0.2,0.3-0.2
			c0.1-0.1,0.2-0.2,0.2-0.2c-0.1-0.1-0.3-0.2-0.4-0.3c-3.3-12.5-6.7-24.9-10-37.4c0.2-0.1,0.4-0.1,0.7-0.2c3.6-1.1,7.2-0.1,10.7,0.2
			C1124.7,1625.7,1130,1626.7,1135.4,1627z"/>
		<path class="st10" d="M1176.1,1642.3c-3.3-12.5-6.7-24.9-10-37.4c4.9-3.6,9.6-7.4,14.7-10.7c2.7-1.7,4.7-4.4,8-5.1
			c3.2,12.1,6.5,24.1,9.7,36.2c-0.7,0.9,0,1.8,0.1,2.7c-6.8,5.6-14.1,10.5-21.3,15.7C1177.1,1643.2,1176.9,1642.5,1176.1,1642.3z"/>
		<path class="st11" d="M1097.8,1623.2c3.4,12.7,6.8,25.4,10.2,38c-0.9,0.3-1.9,0.6-2.8,0.8c-8-0.5-16.1-1.4-24-2.6
			c-0.3-0.9-0.2-2-1.2-2.5c-3.2-12.1-6.5-24.1-9.7-36.2c1.2-0.4,2.4-0.3,3.6-0.2c7.7,1,15.4,1.7,23.1,2
			C1097.2,1622.9,1097.5,1623.1,1097.8,1623.2z"/>
		<path class="st12" d="M1163.7,1595.9c-1.9-6.9-3.7-13.8-5.7-20.7c-0.5-1.7-1.2-3.3-1.8-4.9c0.9-0.5,1.8-0.8,2.6-1.4
			c6-4.3,11.7-8.9,17.7-13.2c2.4-1.7,5.5-2.9,6.7-6c1.4-0.1,1.5,1,1.7,2c2,7.6,4,15.2,6.1,22.7c0.5,1.7,0,2.7-1.3,3.5
			c-1.1,0.7-2.2,1.5-3.2,2.3c-0.2,0.3-0.4,0.5-0.6,0.8c-2.5,1.7-4.9,3.4-7.4,5C1173.5,1589.2,1169.2,1593.4,1163.7,1595.9z"/>
		<path class="st13" d="M1089,1588.3c0.7,6.6,3.2,12.8,4.7,19.2c0.5,2.2,1.1,4.5,1.7,6.7c-0.2,0.1-0.5,0.1-0.7,0.2
			c-9-0.3-18-1.6-27-2.4c-1.9-0.2-3.8-0.5-5.7-0.7c-0.2-0.3-0.5-0.6-0.7-1c-2.3-8.4-4.5-16.8-6.8-25.2c5.2-0.7,10.3,1.2,15.4,1.4
			C1076.3,1586.8,1082.6,1588.5,1089,1588.3z"/>
		<path class="st14" d="M1066.4,1573.6c-5.4-5.1-7.1-13.1-4.3-20.1c2.9-7.1,10-11.7,18.1-11.7c5.2,0,10,1.5,14.6,4
			c2,1.1,4,2.3,6,3.5c3.8,3.2,7.7,6.2,11,9.9c-2.1,2.1-4,4.4-4,7.6c0,0.7-0.5,1.2-1.2,1.4c-7.3-5.2-15-9.3-24.5-8.4
			C1075.9,1560.5,1068.1,1565.5,1066.4,1573.6z"/>
		<path class="st14" d="M1126.6,1542.5c3-5.4,6-10.9,11-14.8c10.3-8.1,23.8-5.8,29.6,5.2c2.2,4.2,3,8.8,1.3,13.4
			c-6.6-6.9-17.2-7.6-25.8-0.8c-5.5,4.3-8.9,10.1-11.6,16.3c-0.7,0.2-1.4,0-1.7-0.7c-1.7-2.8-4.4-3.8-7.3-4.6
			C1123.1,1551.7,1124.9,1547.1,1126.6,1542.5z"/>
		<path class="st15" d="M1131,1561.7c2.8-6.2,6.1-12,11.6-16.3c8.7-6.8,19.2-6.1,25.8,0.8c0,0.4,0,0.9,0,1.3
			c-3.3,7.4-9.2,11.2-17,12.9c-6.9,1.5-13.8,3.6-20.6,5.5c-0.4,0.1-0.9,0.2-1.3,0.3C1130.1,1564.8,1130.5,1563.3,1131,1561.7z"/>
		<path class="st15" d="M1066.4,1573.6c1.7-8.1,9.5-13.1,15.7-13.7c9.5-0.9,17.2,3.2,24.5,8.4c1.2,1.1,2.4,2.1,3.5,3.2
			c-0.4,0.1-0.9,0.3-1.3,0.4c-6.9,1.8-13.8,3.4-20.6,5.6c-7.6,2.5-14.6,2.1-21.2-2.7C1066.8,1574.4,1066.6,1574,1066.4,1573.6z"/>
		<path class="st16" d="M1067,1574.8c6.6,4.8,13.6,5.2,21.2,2.7c6.8-2.2,13.7-3.7,20.6-5.6c-5.6,4.3-11.2,8.6-16.8,12.9
			c-1.2,1-2.5,1.9-3,3.5c-6.4,0.2-12.7-1.5-19.1-1.8c-5.2-0.3-10.2-2.1-15.4-1.4c2.2-3.3,5.8-4.8,8.6-7.2
			C1064.4,1576.7,1065.7,1575.8,1067,1574.8z"/>
		<path class="st17" d="M1130.9,1566c6.9-1.9,13.7-4,20.6-5.5c7.8-1.7,13.7-5.5,17-12.9c4.9,0.7,9.8,1.4,14.7,2
			c-1.2,3.1-4.4,4.3-6.7,6c-5.9,4.3-11.7,8.9-17.7,13.2c-0.8,0.6-1.7,0.9-2.6,1.4c-1.2-1.1-2.8-1.3-4.3-1.5
			C1144.9,1567.8,1137.9,1566.9,1130.9,1566z"/>
		<path class="st17" d="M1126.6,1542.5c-1.7,4.6-3.5,9.2-4.6,14.1c-3.8-0.4-7.2,0.6-10.3,2.8c-3.3-3.7-7.2-6.7-11-9.9
			c4-2.6,7.3-7.2,11.8-8.1C1117,1540.3,1121.9,1542,1126.6,1542.5z"/>
		<path class="st18" d="M1067.7,1612c9,0.8,18,2.1,27,2.4c0.2,0.5,0.4,1,1.1,1.1c0.6,2.4,1.3,4.7,1.9,7.1c-0.2,0.1-0.5,0.1-0.7,0.2
			c-7.7-0.3-15.4-1.1-23.1-2c-1.2-0.2-2.4-0.2-3.6,0.2C1069.4,1617.9,1068.5,1614.9,1067.7,1612z"/>
		<path class="st13" d="M1163.7,1595.9c5.5-2.5,9.9-6.7,14.8-10c2.5-1.6,5-3.3,7.4-5c0,0,0.3-0.1,0.3-0.1l0.3-0.1
			c0.8,2.8,1.5,5.6,2.3,8.4c-3.3,0.7-5.4,3.4-8,5.1c-5.1,3.3-9.8,7.1-14.7,10.7C1165.3,1601.9,1164.5,1598.9,1163.7,1595.9z"/>
		<path class="st19" d="M1105.2,1662.1c0.9-0.3,1.9-0.6,2.8-0.8c0.1,0.4,0.3,0.8,0.4,1.2C1107.3,1662.7,1106.2,1662.5,1105.2,1662.1
			z"/>
		<path class="st18" d="M1079.9,1657.1c1.1,0.5,1,1.6,1.2,2.5C1079.8,1659.2,1080.2,1657.9,1079.9,1657.1z"/>
		<path class="st20" d="M1198.6,1628.1c-0.2-0.9-0.8-1.8-0.1-2.7C1198.6,1626.2,1199.7,1627.1,1198.6,1628.1z"/>
		<path class="st21" d="M1176.1,1642.3c0.7,0.2,1,0.8,1.2,1.4c-0.3,0.2-0.5,0.3-0.8,0.5C1176.4,1643.6,1176.3,1643,1176.1,1642.3z"
			/>
		<path class="st16" d="M1061.3,1610.3c0.2,0.3,0.5,0.6,0.7,1C1061.3,1611.2,1061.3,1610.8,1061.3,1610.3z"/>
		<path class="st20" d="M1186.5,1580.8l-0.3,0.1c0,0-0.3,0.1-0.3,0.1c0.2-0.3,0.4-0.5,0.6-0.8
			C1186.5,1580.3,1186.6,1580.5,1186.5,1580.8z"/>
		<path class="st12" d="M1147.2,1577.3c1.6-0.4,2.1,0.5,2.5,1.9c2,7.9,4.1,15.7,6.2,23.6c-0.2,0.1-0.4,0.1-0.7,0.2
			c-7.4,5.2-14.7,10.4-22.1,15.6v0c-2.2-8.4-4.5-16.8-6.7-25.2C1133.3,1588.1,1140.3,1582.7,1147.2,1577.3z"/>
		<path class="st13" d="M1126.4,1593.4c2.2,8.4,4.5,16.8,6.7,25.2c-9-0.8-18-1.6-26.9-2.5c-0.1-0.2-0.1-0.4-0.2-0.6
			c-0.3-0.2-0.6-0.3-0.8-0.5c-2.1-7.7-4.2-15.5-6.2-23.2c0.1-0.1,0.2-0.2,0.2-0.2c-0.1-0.2-0.2-0.3-0.3-0.4c0-0.9,0.8-0.9,1.4-1.2
			C1109,1591.1,1117.7,1592.3,1126.4,1593.4z"/>
		<path class="st17" d="M1126.4,1593.4c-8.7-1.2-17.4-2.4-26.1-3.5c6.6-5.1,13.2-10.1,19.8-15.2c0.8-0.6,1.5-0.8,2.5-0.7
			c8.2,1.1,16.5,2.2,24.7,3.3C1140.3,1582.7,1133.3,1588.1,1126.4,1593.4z"/>
		<path class="st22" d="M1111.7,1559.3c3.1-2.2,6.5-3.1,10.3-2.8c2.9,0.8,5.6,1.8,7.3,4.5c0.4,0.6,1,0.8,1.7,0.7
			c-0.5,1.5-1,3-1.5,4.5c-6.5,1.7-13,3.5-19.5,5.2c-1.2-1.1-2.4-2.1-3.5-3.2c0.7-0.2,1.2-0.7,1.2-1.4
			C1107.8,1563.6,1109.6,1561.4,1111.7,1559.3z"/>
		<path class="st18" d="M1106.2,1616.1c9,0.8,18,1.6,26.9,2.5c0,0,0,0,0,0c0.8,2.8,1.5,5.6,2.3,8.4c0,0,0,0,0,0
			c-5.4-0.2-10.7-1.2-16-1.6c-3.5-0.3-7.1-1.3-10.7-0.2c-0.3-0.2-0.6-0.3-0.8-0.5c-0.7-2.6-1.4-5.2-2.1-7.7
			C1105.9,1616.7,1106,1616.4,1106.2,1616.1z"/>
		<path class="st13" d="M1135.4,1627c-0.8-2.8-1.5-5.6-2.3-8.4c7.4-5.2,14.7-10.4,22.1-15.6c0.3,0.2,0.6,0.3,0.9,0.5
			c0.7,2.6,1.4,5.2,2.1,7.7c-4.2,1.8-7.3,5.3-11.2,7.5C1142.9,1621.1,1139.7,1624.8,1135.4,1627z"/>
		<path class="st19" d="M1095.7,1615.5c-0.6-0.1-0.9-0.6-1.1-1.1c0.2-0.1,0.5-0.1,0.7-0.2
			C1095.5,1614.6,1095.6,1615.1,1095.7,1615.5z"/>
		<path class="st19" d="M1106.2,1616.1c-0.2,0.3-0.3,0.6-0.5,0.8c-0.1-0.4-0.2-0.9-0.3-1.3c0.2-0.1,0.4-0.1,0.6-0.2
			C1106.1,1615.7,1106.2,1615.9,1106.2,1616.1z"/>
		<path class="st21" d="M1168.5,1649.9c-0.8-0.3-0.8-0.7-0.3-1.2C1168.3,1649,1168.4,1649.4,1168.5,1649.9z"/>
		<path class="st21" d="M1106,1615.5c-0.2,0.1-0.4,0.1-0.6,0.2c-0.1-0.2-0.1-0.4-0.2-0.6C1105.5,1615.2,1105.8,1615.3,1106,1615.5z"
			/>
		<path class="st21" d="M1156.1,1603.5c-0.3-0.2-0.6-0.3-0.9-0.5c0.2-0.1,0.4-0.1,0.7-0.2C1156,1603,1156,1603.2,1156.1,1603.5z"/>
		<path class="st19" d="M1096.9,1622.8c0.2-0.1,0.5-0.1,0.7-0.2c0.1,0.2,0.1,0.4,0.2,0.7C1097.5,1623.1,1097.2,1622.9,1096.9,1622.8
			z"/>
		<path class="st19" d="M1107.8,1624.7c0.3,0.2,0.6,0.3,0.8,0.5c-0.2,0.1-0.4,0.1-0.7,0.2
			C1107.9,1625.1,1107.9,1624.9,1107.8,1624.7z"/>
		<path class="st21" d="M1098.9,1591.1c0.1,0.1,0.2,0.3,0.3,0.4c0,0-0.1,0.1-0.2,0.2C1098.9,1591.6,1098.8,1591.4,1098.9,1591.1z"/>
		<path class="st19" d="M1118,1662.7c0.1,0.1,0.3,0.2,0.4,0.3c0,0-0.1,0.2-0.2,0.2C1118.1,1663.2,1118,1663,1118,1662.7z"/>
	</g>
	<g>
		<path class="st9" d="M1664.9,1096.3c0.5,3.2,1.1,6.3,0.9,9.6c0,0-0.1,0.3-0.1,0.3c-0.4-0.1-0.8-0.3-1.2-0.4
			c-12.5-3.3-24.9-6.7-37.4-10c-2.6-0.7-5.2-1.4-7.7-2.1c-0.2-0.1-0.4-0.1-0.7-0.2c-7.8-2.1-15.7-4.3-23.5-6.4
			c-1.3-0.4-2.4-0.4-2.9,1.2c-5.1,6.6-10.1,13.2-15.2,19.8c-0.6,0.8-0.8,1.5-0.7,2.5c1.1,8.2,2.2,16.5,3.3,24.7
			c0,0.6-0.4,1.4,0.4,1.8c0.2,0.2,0.4,0.3,0.6,0.3c7.7,2.1,15.5,4.1,23.2,6.2c0.2,0.1,0.4,0.1,0.6,0.2c0.4,0.1,0.9,0.2,1.3,0.4
			c2.6,0.7,5.2,1.4,7.7,2.1c0.2,0.1,0.4,0.1,0.7,0.2c12.5,3.3,24.9,6.7,37.4,10c0.2,0.1,0.4,0.2,0.6,0.1l0,0.3
			c-1.6,2.8-3.6,5.3-5.6,7.8c-0.4-0.1-0.9-0.2-1.3-0.3c-12.7-3.4-25.4-6.8-38-10.2c-0.2-0.1-0.4-0.1-0.7-0.2
			c-2.4-0.6-4.7-1.3-7.1-1.9c-0.4-0.1-0.9-0.2-1.3-0.3c-2.2-0.6-4.5-1.2-6.7-1.9c-6.3-1.9-12.9-2.9-19-5.6c-1.1-1.2-1.3-2.8-1.5-4.3
			c-0.9-7-1.9-14-2.8-21c0.1-0.4,0.2-0.9,0.3-1.3c1.7-6.5,3.5-13,5.2-19.5c0.1-0.4,0.3-0.9,0.4-1.3c4.3-5.6,8.6-11.2,12.9-16.8
			c0.9-1.2,1.9-2.5,3.4-3c1.7,0.3,3.5,0.5,5.2,0.9c6.9,1.8,13.9,3.6,20.8,5.5c3,0.8,6,1.6,9,2.4c12.5,3.3,24.9,6.7,37.4,10
			C1663.6,1095.9,1664.2,1096.1,1664.9,1096.3z"/>
		<path class="st10" d="M1627,1095.7c12.5,3.3,24.9,6.7,37.4,10c0.2,0.7,0.6,1,1.2,0.4c0,0,0.1-0.3,0.1-0.3c1.3,9.3,2.5,18.6,2.9,28
			c-13.1-3.5-26.3-7-39.4-10.6c0,0,0,0,0,0c0.2-4.8-1.3-9.4-1.4-14.2C1628,1104.6,1626.5,1100.2,1627,1095.7z"/>
		<path class="st11" d="M1629.3,1123.3c13.1,3.5,26.3,7,39.4,10.6c-5.1,7.9-10.8,15.4-16.5,22.8c0,0,0-0.3,0-0.3
			c0-0.1-0.1-0.3-0.1-0.3c-0.2,0-0.3,0.1-0.5,0.2c-12.5-3.3-24.9-6.7-37.4-10c0.1-0.2,0.1-0.4,0.2-0.7c0.8-3.7,3.5-6.3,5.5-9.2
			C1622.9,1132,1626.4,1127.9,1629.3,1123.3z"/>
		<path class="st10" d="M1663,1095.7c-12.5-3.3-24.9-6.7-37.4-10c-0.7-6-1.6-12-1.9-18.1c-0.2-3.2-1.4-6.3-0.4-9.5
			c12.1,3.2,24.1,6.5,36.2,9.7c0.5,1,1.6,0.9,2.4,1.2c1.4,8.7,2.1,17.5,3,26.3C1664.2,1095.3,1663.5,1095.2,1663,1095.7z"/>
		<path class="st11" d="M1607.3,1154c12.7,3.4,25.4,6.8,38,10.2c-0.2,0.9-0.5,1.9-0.7,2.8c-4.4,6.7-9.2,13.2-14.2,19.5
			c-0.9-0.2-1.8-0.8-2.8-0.2c-12.1-3.2-24.1-6.5-36.2-9.7c0.2-1.2,0.9-2.2,1.6-3.2c4.7-6.2,9.2-12.4,13.3-19
			C1606.7,1154.4,1607,1154.2,1607.3,1154z"/>
		<path class="st12" d="M1616.6,1083.3c-6.9-1.8-13.9-3.7-20.8-5.5c-1.7-0.4-3.5-0.6-5.2-0.9c0-1,0.2-2,0.1-3
			c-0.8-7.3-1.8-14.6-2.6-21.9c-0.3-2.9,0.2-6.2-1.8-8.9c0.6-1.3,1.6-0.8,2.6-0.5c7.6,2,15.1,4.1,22.7,6c1.7,0.4,2.3,1.3,2.4,2.9
			c0.1,1.3,0.2,2.6,0.3,3.9c0.1,0.3,0.3,0.6,0.4,0.9c0.2,3,0.4,6,0.6,8.9C1615.7,1071.4,1617.1,1077.3,1616.6,1083.3z"/>
		<path class="st13" d="M1572.6,1144.1c6.1,2.7,12.7,3.6,19,5.6c2.2,0.7,4.4,1.3,6.7,1.9c-0.1,0.2-0.1,0.5-0.2,0.7
			c-4.8,7.7-10.4,14.8-15.6,22.2c-1.2,1.5-2.3,3-3.5,4.6c-0.4,0-0.8,0.1-1.2,0.1c-8.4-2.3-16.8-4.5-25.2-6.8
			c2.1-4.9,6.1-8.3,8.9-12.6C1565,1154.4,1569.6,1149.8,1572.6,1144.1z"/>
		<path class="st14" d="M1548.6,1156.5c-7.2,2.1-14.9-0.3-19.6-6.3c-4.7-6-5.2-14.5-1.1-21.5c2.6-4.5,6.3-7.9,10.8-10.6
			c2-1.2,4-2.3,6.1-3.5c4.6-1.7,9.2-3.5,14.1-4.6c0.8,2.9,1.8,5.6,4.5,7.3c0.6,0.4,0.8,1,0.7,1.7c-8.2,3.8-15.6,8.4-19.5,17.1
			C1542,1141.6,1542.5,1150.9,1548.6,1156.5z"/>
		<path class="st14" d="M1551.7,1088.7c-3.2-5.3-6.4-10.6-7.3-17c-1.9-12.9,6.8-23.5,19.3-23c4.7,0.2,9.1,1.8,12.3,5.6
			c-9.3,2.2-15.2,11.1-13.6,22c1,6.9,4.3,12.7,8.3,18.2c-0.2,0.7-0.7,1.2-1.4,1.2c-3.2,0-5.5,1.9-7.6,4
			C1558,1096.4,1554.9,1092.5,1551.7,1088.7z"/>
		<path class="st15" d="M1570.7,1094.5c-4-5.5-7.3-11.3-8.3-18.2c-1.6-10.9,4.3-19.7,13.6-22c0.4,0.2,0.7,0.4,1.1,0.7
			c4.7,6.6,5.2,13.6,2.7,21.2c-2.2,6.8-3.7,13.7-5.6,20.6c-0.1,0.4-0.3,0.9-0.4,1.3C1572.8,1096.9,1571.7,1095.7,1570.7,1094.5z"/>
		<path class="st15" d="M1548.6,1156.5c-6.1-5.5-6.6-14.8-4-20.4c4-8.7,11.3-13.3,19.5-17.1c1.5-0.5,3-1,4.5-1.5
			c-0.1,0.4-0.2,0.9-0.3,1.3c-1.9,6.9-4,13.7-5.5,20.6c-1.7,7.8-5.5,13.7-12.9,17C1549.5,1156.5,1549,1156.5,1548.6,1156.5z"/>
		<path class="st16" d="M1549.9,1156.4c7.4-3.3,11.3-9.2,12.9-17c1.5-6.9,3.6-13.8,5.5-20.6c0.9,7,1.9,14,2.8,21
			c0.2,1.6,0.4,3.1,1.5,4.3c-3,5.7-7.6,10.2-11.1,15.6c-2.8,4.3-6.9,7.8-8.9,12.6c-1.8-3.5-1.2-7.4-1.9-11.1
			C1550.3,1159.7,1550.1,1158.1,1549.9,1156.4z"/>
		<path class="st17" d="M1574.2,1096.8c1.8-6.9,3.4-13.8,5.6-20.6c2.5-7.6,2.1-14.6-2.7-21.2c3-3.9,6.1-7.8,9.1-11.7
			c2.1,2.6,1.5,5.9,1.8,8.9c0.8,7.3,1.8,14.6,2.6,21.9c0.1,1-0.1,2-0.1,3c-1.6,0.5-2.5,1.8-3.4,3
			C1582.8,1085.6,1578.5,1091.2,1574.2,1096.8z"/>
		<path class="st17" d="M1551.7,1088.7c3.2,3.8,6.2,7.7,9.9,11c-2.2,3.1-3.1,6.5-2.8,10.3c-4.8,1.1-9.4,2.9-14.1,4.6
			c-0.3-4.8-2.5-9.9-1.1-14.3C1545.1,1096,1549,1092.5,1551.7,1088.7z"/>
		<path class="st18" d="M1582.5,1174.5c5.2-7.4,10.8-14.5,15.6-22.2c0.6,0.1,1.1,0.1,1.5-0.4c2.4,0.6,4.7,1.3,7.1,1.9
			c-0.1,0.2-0.1,0.5-0.2,0.7c-4.1,6.5-8.6,12.8-13.3,19c-0.8,1-1.4,2-1.6,3.2C1588.5,1176,1585.5,1175.2,1582.5,1174.5z"/>
		<path class="st13" d="M1616.6,1083.3c0.6-6-0.9-11.9-1.2-17.8c-0.2-3-0.4-6-0.6-8.9c0,0,0.1-0.3,0.1-0.3l0.1-0.3
			c2.8,0.7,5.6,1.5,8.4,2.2c-1,3.2,0.2,6.3,0.4,9.5c0.3,6,1.2,12.1,1.9,18.1C1622.6,1084.9,1619.6,1084.1,1616.6,1083.3z"/>
		<path class="st19" d="M1644.7,1167.1c0.2-0.9,0.5-1.9,0.7-2.8c0.4,0.1,0.9,0.2,1.3,0.3C1646.2,1165.5,1645.5,1166.4,1644.7,1167.1
			z"/>
		<path class="st18" d="M1627.7,1186.4c1-0.7,1.8,0,2.8,0.2C1629.4,1187.6,1628.6,1186.6,1627.7,1186.4z"/>
		<path class="st20" d="M1661.9,1069.1c-0.9-0.3-1.9-0.2-2.4-1.2C1660.3,1068.2,1661.6,1067.7,1661.9,1069.1z"/>
		<path class="st21" d="M1663,1095.7c0.5-0.5,1.2-0.4,1.8-0.3c0,0.3,0,0.6,0,0.9C1664.2,1096.1,1663.6,1095.9,1663,1095.7z"/>
		<path class="st16" d="M1577.8,1179.2c0.4,0,0.8-0.1,1.2-0.1C1578.7,1179.6,1578.2,1179.4,1577.8,1179.2z"/>
		<path class="st20" d="M1614.9,1055.9l-0.1,0.3c0,0-0.1,0.3-0.1,0.3c-0.1-0.3-0.3-0.6-0.4-0.9
			C1614.5,1055.7,1614.7,1055.8,1614.9,1055.9z"/>
		<path class="st12" d="M1592.3,1088.3c0.4-1.6,1.5-1.6,2.9-1.2c7.8,2.2,15.7,4.3,23.5,6.4c-0.1,0.2-0.1,0.5-0.2,0.7
			c0.8,9,1.6,18,2.5,26.9h0c-8.4-2.2-16.8-4.5-25.2-6.7C1594.6,1105.7,1593.4,1097,1592.3,1088.3z"/>
		<path class="st13" d="M1595.8,1114.4c8.4,2.2,16.8,4.5,25.2,6.7c-5.2,7.4-10.4,14.7-15.6,22.1c-0.2-0.1-0.4-0.1-0.6-0.2
			c-0.3,0.2-0.5,0.3-0.8,0.5c-7.7-2.1-15.5-4.1-23.2-6.2c0-0.1,0-0.3-0.1-0.3c-0.2,0-0.3,0-0.5,0c-0.8-0.5-0.4-1.2-0.4-1.9
			C1585.1,1128.2,1590.4,1121.3,1595.8,1114.4z"/>
		<path class="st17" d="M1595.8,1114.4c-5.4,6.9-10.7,13.9-16.1,20.8c-1.1-8.2-2.2-16.5-3.3-24.7c-0.1-0.9,0.1-1.7,0.7-2.5
			c5.1-6.6,10.1-13.2,15.2-19.8C1593.4,1097,1594.6,1105.7,1595.8,1114.4z"/>
		<path class="st22" d="M1558.9,1110c-0.4-3.8,0.6-7.2,2.8-10.3c2.1-2.1,4.4-4,7.6-4c0.7,0,1.2-0.5,1.4-1.2c1.1,1.2,2.1,2.4,3.2,3.5
			c-1.7,6.5-3.5,13-5.2,19.5c-1.5,0.5-3,1-4.5,1.5c0.2-0.7,0-1.4-0.7-1.7C1560.6,1115.6,1559.6,1112.9,1558.9,1110z"/>
		<path class="st18" d="M1605.3,1143.2c5.2-7.4,10.4-14.7,15.6-22.1c0,0,0,0,0,0c2.8,0.7,5.6,1.5,8.4,2.2c0,0,0,0,0,0
			c-2.9,4.5-6.4,8.6-9.4,13c-2,2.9-4.7,5.6-5.5,9.2c-0.3,0.2-0.5,0.3-0.8,0.5c-2.6-0.7-5.2-1.4-7.7-2.1
			C1605.6,1143.7,1605.5,1143.5,1605.3,1143.2z"/>
		<path class="st13" d="M1629.3,1123.3c-2.8-0.7-5.6-1.5-8.4-2.2c-0.8-9-1.6-18-2.5-26.9c0.3-0.2,0.6-0.3,0.8-0.5
			c2.6,0.7,5.2,1.4,7.7,2.1c-0.5,4.5,0.9,8.9,0.9,13.4C1628,1113.9,1629.5,1118.5,1629.3,1123.3z"/>
		<path class="st19" d="M1599.5,1152c-0.4,0.5-0.9,0.5-1.5,0.4c0.1-0.2,0.1-0.5,0.2-0.7C1598.7,1151.7,1599.1,1151.8,1599.5,1152z"
			/>
		<path class="st19" d="M1605.3,1143.2c0.2,0.3,0.3,0.6,0.5,0.8c-0.4-0.1-0.9-0.2-1.3-0.4c0.1-0.2,0.1-0.4,0.2-0.6
			C1604.9,1143.1,1605.1,1143.1,1605.3,1143.2z"/>
		<path class="st21" d="M1665.7,1106.1c-0.6,0.6-1,0.3-1.2-0.4C1664.9,1105.9,1665.3,1106,1665.7,1106.1z"/>
		<path class="st21" d="M1604.7,1143c-0.1,0.2-0.1,0.4-0.2,0.6c-0.2-0.1-0.4-0.1-0.6-0.2C1604.1,1143.3,1604.4,1143.2,1604.7,1143z"
			/>
		<path class="st21" d="M1619.3,1093.7c-0.3,0.2-0.6,0.3-0.8,0.5c0.1-0.2,0.1-0.5,0.2-0.7
			C1618.9,1093.5,1619.1,1093.6,1619.3,1093.7z"/>
		<path class="st19" d="M1606.4,1154.6c0.1-0.2,0.1-0.5,0.2-0.7c0.2,0.1,0.4,0.1,0.7,0.2C1607,1154.2,1606.7,1154.4,1606.4,1154.6z"
			/>
		<path class="st19" d="M1613.5,1146.1c0.3-0.2,0.5-0.3,0.8-0.5c-0.1,0.2-0.1,0.4-0.2,0.7C1614,1146.2,1613.8,1146.1,1613.5,1146.1z
			"/>
		<path class="st21" d="M1580,1137c0.2,0,0.3,0,0.5,0c0,0,0.1,0.2,0.1,0.3C1580.4,1137.3,1580.2,1137.2,1580,1137z"/>
		<path class="st19" d="M1651.6,1156.3c0.2-0.1,0.3-0.1,0.5-0.2c0,0,0.1,0.2,0.1,0.3C1652,1156.5,1651.8,1156.4,1651.6,1156.3z"/>
	</g>
	<g>
		<path class="st9" d="M1434.5,399.5c3,1.1,6,2.2,8.7,4c0,0,0.2,0.3,0.2,0.3c-0.3,0.3-0.6,0.6-0.9,0.9c-9.1,9.1-18.3,18.2-27.4,27.4
			c-1.9,1.9-3.8,3.8-5.7,5.7c-0.2,0.2-0.3,0.3-0.5,0.5c-5.8,5.7-11.5,11.4-17.3,17.1c-1,1-1.6,1.9-0.4,3.1c3.2,7.7,6.4,15.3,9.5,23
			c0.4,0.9,0.9,1.4,1.8,1.8c7.7,3.2,15.4,6.3,23,9.5c0.5,0.3,1,1,1.8,0.6c0.2-0.1,0.4-0.2,0.5-0.4c5.7-5.7,11.3-11.3,17-17
			c0.2-0.2,0.3-0.3,0.5-0.5c0.3-0.3,0.6-0.6,1-0.9c1.9-1.9,3.8-3.8,5.7-5.7c0.2-0.2,0.3-0.3,0.5-0.5c9.1-9.1,18.3-18.3,27.4-27.4
			c0.2-0.1,0.3-0.3,0.4-0.5l0.3,0.1c1.7,2.8,2.8,5.8,3.9,8.8c-0.3,0.3-0.6,0.7-0.9,1c-9.3,9.3-18.6,18.6-27.9,27.8
			c-0.2,0.2-0.3,0.3-0.5,0.5c-1.7,1.7-3.5,3.5-5.2,5.2c-0.3,0.3-0.6,0.6-0.9,1c-1.7,1.6-3.3,3.2-5,4.8c-4.8,4.5-8.9,9.7-14.3,13.6
			c-1.6,0.4-3-0.3-4.5-0.9c-6.5-2.7-13.1-5.4-19.6-8.1c-0.3-0.3-0.7-0.6-1-0.9c-4.8-4.8-9.5-9.5-14.3-14.3c-0.3-0.3-0.6-0.7-0.9-1
			c-2.7-6.5-5.4-13.1-8.1-19.6c-0.6-1.4-1.2-2.9-0.9-4.5c1.1-1.4,2.1-2.8,3.4-4c5-5.1,10.1-10.2,15.1-15.3c2.2-2.2,4.4-4.4,6.6-6.6
			c9.1-9.1,18.2-18.3,27.4-27.4C1433.5,400.4,1434,399.9,1434.5,399.5z"/>
		<path class="st10" d="M1415.1,431.9c9.1-9.1,18.3-18.2,27.4-27.4c0.7,0.2,1.1,0,0.9-0.9c0,0-0.2-0.3-0.2-0.3
			c8.7,3.5,17.4,7.1,25.7,11.5c-9.6,9.6-19.2,19.3-28.9,28.9c0,0,0,0,0,0c-4-2.6-8.8-3.6-13-5.9
			C1423.3,435.6,1418.7,434.6,1415.1,431.9z"/>
		<path class="st11" d="M1440.1,443.8c9.6-9.6,19.2-19.3,28.9-28.9c4.3,8.3,7.9,17,11.5,25.7c0,0-0.3-0.1-0.3-0.1
			c-0.1,0-0.3-0.1-0.3,0c0,0.2-0.1,0.3-0.1,0.5c-9.1,9.1-18.3,18.3-27.4,27.4c-0.2-0.2-0.3-0.3-0.5-0.5c-2.8-2.6-3.7-6.2-5.2-9.4
			C1444.4,453.6,1442.6,448.5,1440.1,443.8z"/>
		<path class="st10" d="M1433.1,400.8c-9.1,9.1-18.2,18.3-27.4,27.4c-5.6-2.4-11.2-4.6-16.6-7.4c-2.8-1.4-6.2-1.9-8.4-4.4
			c8.8-8.8,17.7-17.6,26.5-26.5c1.2,0.1,1.6-0.9,2.3-1.5c8.2,3.2,16.2,7,24.2,10.6C1433.3,399.6,1432.9,400.1,1433.1,400.8z"/>
		<path class="st11" d="M1455.7,478.2c9.3-9.3,18.6-18.6,27.9-27.8c0.7,0.7,1.4,1.3,2.1,2c3.6,7.2,6.8,14.6,9.8,22.1
			c-0.6,0.7-1.6,1.1-1.5,2.3c-8.8,8.8-17.6,17.6-26.5,26.5c-1-0.8-1.5-1.9-2-3c-3-7.1-6.2-14.2-9.8-21
			C1455.7,478.9,1455.7,478.5,1455.7,478.2z"/>
		<path class="st12" d="M1399.1,434.8c-5,5.1-10.1,10.2-15.1,15.3c-1.2,1.2-2.2,2.7-3.4,4c-0.8-0.5-1.6-1.2-2.5-1.6
			c-6.7-3-13.6-5.7-20.3-8.7c-2.7-1.2-5.3-3.3-8.6-2.8c-0.8-1.2,0.2-1.8,0.8-2.5c5.5-5.5,11.1-11,16.6-16.7c1.2-1.3,2.3-1.4,3.7-0.6
			c1.2,0.6,2.4,1.1,3.6,1.7c0.3,0,0.7,0.1,1,0.1c2.7,1.3,5.4,2.6,8,3.9C1388.3,429.6,1394.2,431.3,1399.1,434.8z"/>
		<path class="st13" d="M1429.8,503.3c5.4-3.9,9.5-9.1,14.3-13.6c1.7-1.6,3.3-3.2,5-4.8c0.2,0.2,0.3,0.3,0.5,0.5
			c4.2,8,7.6,16.4,11.4,24.6c0.7,1.8,1.5,3.5,2.2,5.3c-0.2,0.4-0.3,0.7-0.5,1.1c-6.2,6.2-12.3,12.3-18.5,18.5
			c-3.2-4.2-4.1-9.5-6.5-14.1C1434.8,515,1433.2,508.8,1429.8,503.3z"/>
		<path class="st14" d="M1428.5,530.2c-1.7,7.3-7.7,12.7-15.2,13.8c-7.6,1.1-15.2-2.8-19.2-9.8c-2.6-4.5-3.7-9.5-3.8-14.6
			c0-2.3,0-4.7,0-7c0.9-4.9,1.6-9.7,3.1-14.5c2.9,0.8,5.8,1.3,8.6-0.3c0.6-0.4,1.3-0.2,1.8,0.3c-0.8,9-0.5,17.7,5,25.4
			C1412.3,528.5,1420.6,532.8,1428.5,530.2z"/>
		<path class="st14" d="M1371.3,493.6c-6.2,0.1-12.4,0.2-18.3-2.2c-12.1-4.8-16.9-17.7-10.3-28.2c2.5-4,6.1-7,11-7.8
			c-2.7,9.2,2,18.7,12.2,22.8c6.5,2.6,13.2,2.6,19.9,1.9c0.5,0.5,0.6,1.2,0.3,1.8c-1.6,2.8-1.1,5.7-0.3,8.6
			C1381.1,492.1,1376.2,492.8,1371.3,493.6z"/>
		<path class="st15" d="M1385.8,480.2c-6.8,0.7-13.5,0.7-19.9-1.9c-10.2-4.1-14.9-13.6-12.2-22.8c0.4-0.2,0.8-0.4,1.1-0.6
			c8.1-0.8,14.3,2.3,19.7,8.3c4.8,5.3,10,10.1,15.1,15.1c0.3,0.3,0.6,0.7,0.9,1C1388.9,479.5,1387.4,479.8,1385.8,480.2z"/>
		<path class="st15" d="M1428.5,530.2c-7.9,2.6-16.1-1.7-19.7-6.7c-5.5-7.8-5.8-16.5-5-25.4c0.3-1.5,0.7-3.1,1-4.7
			c0.3,0.3,0.7,0.6,1,0.9c5,5,9.8,10.3,15.1,15.1c5.9,5.4,9.1,11.6,8.3,19.7C1428.9,529.5,1428.7,529.8,1428.5,530.2z"/>
		<path class="st16" d="M1429.1,529.1c0.8-8.1-2.3-14.3-8.3-19.7c-5.3-4.8-10.1-10-15.1-15.1c6.5,2.7,13.1,5.4,19.6,8.1
			c1.4,0.6,2.9,1.2,4.5,0.9c3.4,5.5,5,11.7,8,17.4c2.4,4.6,3.3,9.9,6.5,14.1c-3.9-0.2-7-2.6-10.6-3.9
			C1432.1,530.4,1430.6,529.7,1429.1,529.1z"/>
		<path class="st17" d="M1389.6,478.2c-5-5-10.3-9.8-15.1-15.1c-5.4-5.9-11.6-9.1-19.7-8.3c-1.9-4.6-3.7-9.2-5.6-13.8
			c3.3-0.5,5.9,1.7,8.6,2.8c6.7,3,13.6,5.7,20.3,8.7c0.9,0.4,1.7,1,2.5,1.6c-0.4,1.6,0.3,3,0.9,4.5
			C1384.2,465.1,1386.9,471.7,1389.6,478.2z"/>
		<path class="st17" d="M1371.3,493.6c4.9-0.9,9.7-1.6,14.5-3.1c1.6,3.4,4.1,6,7.5,7.5c-1.5,4.7-2.2,9.6-3.1,14.5
			c-4.3-2.2-9.8-2.7-12.9-6.2C1374.3,503,1373.3,498,1371.3,493.6z"/>
		<path class="st18" d="M1461,509.9c-3.8-8.2-7.2-16.6-11.4-24.6c0.4-0.4,0.6-0.9,0.4-1.5c1.7-1.7,3.5-3.5,5.2-5.2
			c0.2,0.2,0.3,0.3,0.5,0.5c3.6,6.8,6.8,13.9,9.8,21c0.5,1.2,1,2.2,2,3C1465.3,505.5,1463.1,507.7,1461,509.9z"/>
		<path class="st13" d="M1399.1,434.8c-4.9-3.5-10.7-5.2-16.1-7.9c-2.7-1.3-5.4-2.6-8-3.9c0,0-0.2-0.2-0.2-0.2l-0.2-0.2
			c2-2.1,4.1-4.1,6.1-6.2c2.3,2.5,5.6,3,8.4,4.4c5.4,2.8,11.1,5,16.6,7.4C1403.5,430.4,1401.3,432.6,1399.1,434.8z"/>
		<path class="st19" d="M1485.7,452.4c-0.7-0.7-1.4-1.3-2.1-2c0.3-0.3,0.6-0.7,0.9-1C1485.1,450.3,1485.5,451.2,1485.7,452.4z"/>
		<path class="st18" d="M1493.9,476.8c-0.1-1.2,0.9-1.6,1.5-2.3C1495.9,475.8,1494.5,476,1493.9,476.8z"/>
		<path class="st20" d="M1409.4,388.5c-0.7,0.6-1.1,1.6-2.3,1.5C1407.9,389.4,1408.1,388.1,1409.4,388.5z"/>
		<path class="st21" d="M1433.1,400.8c-0.2-0.7,0.2-1.2,0.6-1.8c0.3,0.1,0.6,0.3,0.8,0.4C1434,399.9,1433.5,400.4,1433.1,400.8z"/>
		<path class="st16" d="M1462.7,516.3c0.2-0.4,0.3-0.7,0.5-1.1C1463.5,515.8,1463.2,516.1,1462.7,516.3z"/>
		<path class="st20" d="M1374.5,422.6l0.2,0.2c0,0,0.2,0.2,0.2,0.2c-0.3,0-0.7-0.1-1-0.1C1374.2,422.8,1374.3,422.7,1374.5,422.6z"
			/>
		<path class="st12" d="M1391.2,458.3c-1.2-1.2-0.6-2.1,0.4-3.1c5.8-5.7,11.5-11.4,17.3-17.1c0.2,0.2,0.3,0.3,0.5,0.5
			c8.2,3.8,16.4,7.6,24.6,11.3l0,0c-6.1,6.1-12.3,12.3-18.4,18.4C1407.5,465,1399.3,461.7,1391.2,458.3z"/>
		<path class="st13" d="M1415.6,468.3c6.1-6.1,12.3-12.3,18.4-18.4c3.8,8.2,7.5,16.4,11.3,24.6c-0.2,0.2-0.3,0.3-0.5,0.5
			c0,0.3,0,0.6,0,1c-5.7,5.7-11.3,11.3-17,17c-0.1,0-0.3-0.1-0.3-0.1c-0.1,0.1-0.2,0.3-0.2,0.5c-0.8,0.4-1.2-0.3-1.8-0.6
			C1422.2,484.6,1418.9,476.4,1415.6,468.3z"/>
		<path class="st17" d="M1415.6,468.3c3.3,8.1,6.7,16.2,10,24.3c-7.7-3.2-15.3-6.4-23-9.5c-0.9-0.4-1.4-0.9-1.8-1.8
			c-3.2-7.7-6.3-15.4-9.5-23C1399.3,461.7,1407.5,465,1415.6,468.3z"/>
		<path class="st22" d="M1393.3,498.1c-3.4-1.6-6-4.1-7.5-7.5c-0.8-2.9-1.3-5.8,0.3-8.6c0.4-0.6,0.2-1.3-0.3-1.8
			c1.6-0.3,3.1-0.7,4.7-1c4.8,4.8,9.5,9.5,14.3,14.3c-0.3,1.6-0.7,3.1-1,4.7c-0.5-0.5-1.2-0.6-1.8-0.3
			C1399.1,499.4,1396.2,498.9,1393.3,498.1z"/>
		<path class="st18" d="M1445.3,474.5c-3.8-8.2-7.5-16.4-11.3-24.6c0,0,0,0,0,0c2-2,4.1-4.1,6.1-6.1c0,0,0,0,0,0
			c2.5,4.8,4.3,9.9,6.6,14.7c1.5,3.2,2.5,6.8,5.2,9.4c0,0.3,0,0.6,0,1c-1.9,1.9-3.8,3.8-5.7,5.7
			C1446,474.5,1445.6,474.5,1445.3,474.5z"/>
		<path class="st13" d="M1440.1,443.8c-2,2-4.1,4.1-6.1,6.1c-8.2-3.8-16.4-7.6-24.6-11.3c0-0.3,0-0.7,0-1c1.9-1.9,3.8-3.8,5.7-5.7
			c3.7,2.7,8.2,3.7,12.1,5.9C1431.3,440.2,1436.1,441.2,1440.1,443.8z"/>
		<path class="st19" d="M1450,483.9c0.2,0.6-0.1,1-0.4,1.5c-0.2-0.2-0.3-0.3-0.5-0.5C1449.4,484.5,1449.7,484.2,1450,483.9z"/>
		<path class="st19" d="M1445.3,474.5c0.3,0,0.6,0,1,0c-0.3,0.3-0.6,0.6-1,0.9c-0.2-0.2-0.3-0.3-0.5-0.5
			C1445,474.8,1445.2,474.6,1445.3,474.5z"/>
		<path class="st21" d="M1443.4,403.7c0.2,0.8-0.2,1-0.9,0.9C1442.8,404.3,1443.1,404,1443.4,403.7z"/>
		<path class="st21" d="M1444.9,474.9c0.2,0.2,0.3,0.3,0.5,0.5c-0.2,0.2-0.3,0.3-0.5,0.5C1444.9,475.6,1444.9,475.3,1444.9,474.9z"
			/>
		<path class="st21" d="M1409.4,437.6c0,0.3,0,0.7,0,1c-0.2-0.2-0.3-0.3-0.5-0.5C1409.1,437.9,1409.2,437.8,1409.4,437.6z"/>
		<path class="st19" d="M1455.7,479.2c-0.2-0.2-0.3-0.3-0.5-0.5c0.2-0.2,0.3-0.3,0.5-0.5C1455.7,478.5,1455.7,478.9,1455.7,479.2z"
			/>
		<path class="st19" d="M1451.9,468.8c0-0.3,0-0.6,0-1c0.2,0.2,0.3,0.3,0.5,0.5C1452.3,468.5,1452.1,468.7,1451.9,468.8z"/>
		<path class="st21" d="M1427.3,493.3c0.1-0.2,0.1-0.3,0.2-0.5c0,0,0.2,0,0.3,0.1C1427.8,493.1,1427.6,493.2,1427.3,493.3z"/>
		<path class="st19" d="M1479.8,440.9c0-0.2,0.1-0.4,0.1-0.5c0,0,0.2,0,0.3,0C1480.1,440.7,1480,440.8,1479.8,440.9z"/>
	</g>
	<g>
		<path class="st9" d="M715.8,250.5c2.5-2,4.9-4.1,7.8-5.6c0,0,0.3,0,0.3,0c0.1,0.4,0.2,0.8,0.3,1.3c3.3,12.5,6.7,24.9,10,37.4
			c0.7,2.6,1.4,5.2,2.1,7.7c0.1,0.2,0.1,0.4,0.2,0.7c2.1,7.9,4.2,15.7,6.2,23.6c0.3,1.3,0.8,2.3,2.5,1.9c8.2,1.1,16.5,2.2,24.7,3.3
			c0.9,0.1,1.7-0.1,2.5-0.7c6.6-5.1,13.2-10.1,19.8-15.2c0.6-0.3,1.4-0.3,1.4-1.2c0.1-0.2,0-0.4-0.1-0.6c-2.1-7.7-4.2-15.5-6.2-23.2
			c-0.1-0.2-0.1-0.4-0.2-0.6c-0.1-0.4-0.2-0.9-0.3-1.3c-0.7-2.6-1.4-5.2-2.1-7.7c-0.1-0.2-0.1-0.4-0.2-0.7
			c-3.3-12.5-6.7-24.9-10-37.4c0-0.2-0.1-0.4-0.2-0.6l0.3-0.2c3.2-0.1,6.4,0.4,9.6,1c0.1,0.4,0.3,0.8,0.4,1.2
			c3.4,12.7,6.8,25.4,10.2,38c0.1,0.2,0.1,0.4,0.2,0.7c0.6,2.4,1.3,4.7,1.9,7.1c0.1,0.4,0.2,0.9,0.4,1.3c0.6,2.2,1.2,4.5,1.7,6.7
			c1.5,6.4,3.9,12.6,4.7,19.2c-0.5,1.6-1.7,2.5-3,3.5c-5.6,4.3-11.2,8.6-16.8,12.9c-0.4,0.1-0.9,0.3-1.3,0.4
			c-6.5,1.7-13,3.5-19.5,5.2c-0.4,0.1-0.9,0.2-1.3,0.3c-7-0.9-14-1.9-21-2.8c-1.5-0.2-3.1-0.4-4.3-1.5c-0.6-1.6-1.4-3.2-1.8-4.9
			c-1.9-6.9-3.8-13.8-5.7-20.7c-0.8-3-1.6-6-2.4-9c-3.3-12.5-6.7-24.9-10-37.4C716.1,251.8,716,251.2,715.8,250.5z"/>
		<path class="st10" d="M734.2,283.6c-3.3-12.5-6.7-24.9-10-37.4c0.5-0.6,0.5-1-0.3-1.2c0,0-0.3,0-0.3,0
			c7.4-5.8,14.9-11.5,22.8-16.6c3.5,13.1,7.1,26.3,10.6,39.4c0,0,0,0,0,0c-4.3,2.2-7.5,5.9-11.6,8.3
			C741.5,278.4,738.4,281.8,734.2,283.6z"/>
		<path class="st11" d="M757,267.8c-3.5-13.1-7.1-26.3-10.6-39.4c9.4,0.4,18.7,1.6,28,2.9c0,0-0.3,0.2-0.3,0.2
			c-0.1,0.1-0.2,0.2-0.2,0.2c0.1,0.1,0.3,0.2,0.4,0.3c3.3,12.5,6.7,24.9,10,37.4c-0.2,0.1-0.4,0.1-0.7,0.2
			c-3.6,1.1-7.2,0.1-10.7-0.2C767.7,269.1,762.4,268.1,757,267.8z"/>
		<path class="st10" d="M716.3,252.5c3.3,12.5,6.7,24.9,10,37.4c-4.9,3.6-9.6,7.4-14.7,10.7c-2.7,1.7-4.7,4.4-8,5.1
			c-3.2-12.1-6.5-24.1-9.7-36.2c0.7-0.9,0-1.8-0.1-2.7c6.8-5.6,14.1-10.5,21.3-15.7C715.3,251.6,715.5,252.3,716.3,252.5z"/>
		<path class="st11" d="M794.6,271.6c-3.4-12.7-6.8-25.4-10.2-38c0.9-0.3,1.9-0.6,2.8-0.8c8,0.5,16.1,1.4,24,2.6
			c0.3,0.9,0.2,2,1.2,2.5c3.2,12.1,6.5,24.1,9.7,36.2c-1.2,0.4-2.4,0.3-3.6,0.2c-7.7-1-15.4-1.7-23.1-2
			C795.2,271.9,794.9,271.7,794.6,271.6z"/>
		<path class="st12" d="M728.7,298.9c1.9,6.9,3.7,13.8,5.7,20.7c0.5,1.7,1.2,3.3,1.8,4.9c-0.9,0.5-1.8,0.8-2.6,1.4
			c-6,4.3-11.7,8.9-17.7,13.2c-2.4,1.7-5.5,2.9-6.7,6c-1.4,0.1-1.5-1-1.7-2c-2-7.6-4-15.2-6.1-22.7c-0.5-1.7,0-2.7,1.3-3.5
			c1.1-0.7,2.2-1.5,3.2-2.3c0.2-0.3,0.4-0.5,0.6-0.8c2.5-1.7,4.9-3.4,7.4-5C718.9,305.6,723.2,301.4,728.7,298.9z"/>
		<path class="st13" d="M803.4,306.5c-0.7-6.6-3.2-12.8-4.7-19.2c-0.5-2.3-1.1-4.5-1.7-6.7c0.2-0.1,0.5-0.1,0.7-0.2
			c9,0.3,18,1.6,27,2.4c1.9,0.2,3.8,0.5,5.7,0.7c0.2,0.3,0.5,0.6,0.7,1c2.3,8.4,4.5,16.8,6.8,25.2c-5.2,0.7-10.3-1.2-15.4-1.4
			C816.1,308,809.8,306.3,803.4,306.5z"/>
		<path class="st14" d="M826,321.2c5.4,5.1,7.1,13.1,4.3,20.1c-2.9,7.1-10,11.7-18.1,11.7c-5.2,0-10-1.5-14.6-4c-2-1.1-4-2.3-6-3.5
			c-3.8-3.2-7.7-6.2-11-9.9c2.1-2.1,4-4.4,4-7.6c0-0.7,0.5-1.2,1.2-1.4c7.3,5.2,15,9.3,24.5,8.4C816.5,334.3,824.3,329.3,826,321.2z
			"/>
		<path class="st14" d="M765.8,352.3c-3,5.4-6,10.9-11,14.8c-10.3,8.1-23.8,5.8-29.6-5.2c-2.2-4.2-3-8.8-1.3-13.4
			c6.6,6.9,17.2,7.6,25.8,0.8c5.5-4.3,8.9-10.1,11.6-16.3c0.7-0.2,1.4,0,1.7,0.7c1.6,2.8,4.4,3.8,7.3,4.5
			C769.3,343.1,767.5,347.7,765.8,352.3z"/>
		<path class="st15" d="M761.4,333.1c-2.8,6.2-6.1,12-11.6,16.3c-8.7,6.8-19.2,6.1-25.8-0.8c0-0.4,0-0.9,0-1.3
			c3.3-7.4,9.2-11.2,17-12.9c6.9-1.5,13.8-3.6,20.6-5.5c0.4-0.1,0.9-0.2,1.3-0.3C762.3,330,761.9,331.5,761.4,333.1z"/>
		<path class="st15" d="M826,321.2c-1.7,8.1-9.5,13.1-15.7,13.7c-9.5,0.9-17.2-3.2-24.5-8.4c-1.2-1.1-2.4-2.1-3.5-3.2
			c0.4-0.1,0.9-0.3,1.3-0.4c6.9-1.8,13.8-3.4,20.6-5.6c7.6-2.5,14.6-2.1,21.2,2.7C825.6,320.4,825.8,320.8,826,321.2z"/>
		<path class="st16" d="M825.4,320c-6.6-4.8-13.6-5.2-21.2-2.7c-6.8,2.2-13.7,3.7-20.6,5.6c5.6-4.3,11.2-8.6,16.8-12.9
			c1.2-1,2.5-1.9,3-3.5c6.4-0.2,12.7,1.5,19.1,1.8c5.2,0.3,10.2,2.1,15.4,1.4c-2.2,3.3-5.8,4.8-8.6,7.2
			C828,318.1,826.7,319,825.4,320z"/>
		<path class="st17" d="M761.5,328.8c-6.9,1.9-13.7,4-20.6,5.5c-7.8,1.7-13.7,5.5-17,12.9c-4.9-0.7-9.8-1.4-14.7-2
			c1.2-3.1,4.4-4.3,6.7-6c5.9-4.3,11.7-8.9,17.7-13.2c0.8-0.6,1.7-0.9,2.6-1.4c1.2,1.1,2.8,1.3,4.3,1.5
			C747.5,327,754.5,327.9,761.5,328.8z"/>
		<path class="st17" d="M765.8,352.3c1.7-4.6,3.5-9.2,4.6-14.1c3.8,0.4,7.2-0.6,10.3-2.8c3.3,3.7,7.2,6.7,11,9.9
			c-4,2.6-7.3,7.2-11.8,8.1C775.4,354.5,770.5,352.8,765.8,352.3z"/>
		<path class="st18" d="M824.7,282.8c-9-0.8-18-2.1-27-2.4c-0.2-0.5-0.4-1-1.1-1.1c-0.6-2.4-1.3-4.7-1.9-7.1
			c0.2-0.1,0.5-0.1,0.7-0.2c7.7,0.3,15.4,1.1,23.1,2c1.2,0.2,2.4,0.2,3.6-0.2C823,276.9,823.9,279.9,824.7,282.8z"/>
		<path class="st13" d="M728.7,298.9c-5.5,2.5-9.9,6.7-14.8,10c-2.5,1.6-5,3.3-7.4,5c0,0-0.3,0.1-0.3,0.1l-0.3,0.1
			c-0.8-2.8-1.5-5.6-2.3-8.4c3.3-0.7,5.4-3.4,8-5.1c5.1-3.3,9.8-7.1,14.7-10.7C727.1,292.9,727.9,295.9,728.7,298.9z"/>
		<path class="st19" d="M787.2,232.7c-0.9,0.3-1.9,0.6-2.8,0.8c-0.1-0.4-0.3-0.8-0.4-1.2C785.1,232.1,786.2,232.3,787.2,232.7z"/>
		<path class="st18" d="M812.5,237.7c-1.1-0.5-1-1.6-1.2-2.5C812.6,235.6,812.2,236.9,812.5,237.7z"/>
		<path class="st20" d="M693.8,266.7c0.2,0.9,0.8,1.8,0.1,2.7C693.8,268.6,692.7,267.7,693.8,266.7z"/>
		<path class="st21" d="M716.3,252.5c-0.7-0.2-1-0.8-1.2-1.4c0.3-0.2,0.5-0.3,0.8-0.5C716,251.2,716.1,251.8,716.3,252.5z"/>
		<path class="st16" d="M831.1,284.5c-0.2-0.3-0.5-0.6-0.7-1C831.1,283.6,831.1,284,831.1,284.5z"/>
		<path class="st20" d="M705.9,314l0.3-0.1c0,0,0.3-0.1,0.3-0.1c-0.2,0.3-0.4,0.5-0.6,0.8C705.9,314.5,705.8,314.3,705.9,314z"/>
		<path class="st12" d="M745.2,317.5c-1.6,0.4-2.1-0.5-2.5-1.9c-2-7.9-4.1-15.7-6.2-23.6c0.2-0.1,0.4-0.1,0.7-0.2
			c7.4-5.2,14.7-10.4,22.1-15.6l0,0c2.2,8.4,4.5,16.8,6.7,25.2C759.1,306.7,752.1,312.1,745.2,317.5z"/>
		<path class="st13" d="M766,301.4c-2.2-8.4-4.5-16.8-6.7-25.2c9,0.8,18,1.6,26.9,2.5c0.1,0.2,0.1,0.4,0.2,0.6
			c0.3,0.2,0.6,0.3,0.8,0.5c2.1,7.7,4.2,15.5,6.2,23.2c-0.1,0.1-0.2,0.2-0.2,0.2c0.1,0.2,0.2,0.3,0.3,0.4c0,0.9-0.8,0.9-1.4,1.2
			C783.4,303.7,774.7,302.5,766,301.4z"/>
		<path class="st17" d="M766,301.4c8.7,1.2,17.4,2.4,26.1,3.5c-6.6,5.1-13.2,10.1-19.8,15.2c-0.8,0.6-1.5,0.8-2.5,0.7
			c-8.2-1.1-16.5-2.2-24.7-3.3C752.1,312.1,759.1,306.7,766,301.4z"/>
		<path class="st22" d="M780.7,335.5c-3.1,2.2-6.5,3.1-10.3,2.8c-2.9-0.8-5.6-1.8-7.3-4.5c-0.4-0.6-1-0.8-1.7-0.7
			c0.5-1.5,1-3,1.5-4.5c6.5-1.7,13-3.5,19.5-5.2c1.2,1.1,2.4,2.1,3.5,3.2c-0.7,0.2-1.2,0.7-1.2,1.4
			C784.6,331.2,782.8,333.4,780.7,335.5z"/>
		<path class="st18" d="M786.2,278.7c-9-0.8-18-1.6-26.9-2.5c0,0,0,0,0,0c-0.8-2.8-1.5-5.6-2.3-8.4c0,0,0,0,0,0
			c5.4,0.2,10.7,1.2,16,1.6c3.5,0.3,7.1,1.3,10.7,0.2c0.3,0.2,0.6,0.3,0.8,0.5c0.7,2.6,1.4,5.2,2.1,7.7
			C786.5,278.1,786.4,278.4,786.2,278.7z"/>
		<path class="st13" d="M757,267.8c0.8,2.8,1.5,5.6,2.3,8.4c-7.4,5.2-14.7,10.4-22.1,15.6c-0.3-0.2-0.6-0.3-0.9-0.5
			c-0.7-2.6-1.4-5.2-2.1-7.7c4.2-1.8,7.3-5.3,11.2-7.5C749.5,273.7,752.7,270,757,267.8z"/>
		<path class="st19" d="M796.7,279.3c0.6,0.1,0.9,0.6,1.1,1.1c-0.2,0.1-0.5,0.1-0.7,0.2C796.9,280.2,796.8,279.7,796.7,279.3z"/>
		<path class="st19" d="M786.2,278.7c0.2-0.3,0.3-0.6,0.5-0.8c0.1,0.4,0.2,0.9,0.3,1.3c-0.2,0.1-0.4,0.1-0.6,0.2
			C786.3,279.1,786.2,278.9,786.2,278.7z"/>
		<path class="st21" d="M723.9,244.9c0.8,0.3,0.8,0.7,0.3,1.2C724.1,245.8,724,245.4,723.9,244.9z"/>
		<path class="st21" d="M786.4,279.3c0.2-0.1,0.4-0.1,0.6-0.2c0.1,0.2,0.1,0.4,0.2,0.6C786.9,279.6,786.6,279.5,786.4,279.3z"/>
		<path class="st21" d="M736.3,291.3c0.3,0.2,0.6,0.3,0.9,0.5c-0.2,0.1-0.4,0.1-0.7,0.2C736.4,291.8,736.4,291.6,736.3,291.3z"/>
		<path class="st19" d="M795.5,272c-0.2,0.1-0.5,0.1-0.7,0.2c-0.1-0.2-0.1-0.4-0.2-0.7C794.9,271.7,795.2,271.9,795.5,272z"/>
		<path class="st19" d="M784.6,270.1c-0.3-0.2-0.6-0.3-0.8-0.5c0.2-0.1,0.4-0.1,0.7-0.2C784.5,269.7,784.5,269.9,784.6,270.1z"/>
		<path class="st21" d="M793.5,303.7c-0.1-0.1-0.2-0.3-0.3-0.4c0,0,0.1-0.1,0.2-0.2C793.5,303.2,793.6,303.4,793.5,303.7z"/>
		<path class="st19" d="M774.4,232.1c-0.1-0.1-0.3-0.2-0.4-0.3c0,0,0.1-0.2,0.2-0.2C774.3,231.6,774.4,231.8,774.4,232.1z"/>
	</g>
	<g>
		<path class="st9" d="M227.5,798.5c-0.5-3.2-1.1-6.3-0.9-9.6c0,0,0.1-0.3,0.1-0.3c0.4,0.1,0.8,0.3,1.2,0.4
			c12.5,3.3,24.9,6.7,37.4,10c2.6,0.7,5.2,1.4,7.7,2.1c0.2,0.1,0.4,0.1,0.7,0.2c7.8,2.1,15.7,4.3,23.5,6.4c1.3,0.4,2.4,0.4,2.9-1.2
			c5.1-6.6,10.1-13.2,15.2-19.8c0.6-0.8,0.8-1.5,0.7-2.5c-1.1-8.2-2.2-16.5-3.3-24.7c0-0.6,0.4-1.4-0.4-1.8
			c-0.2-0.2-0.4-0.3-0.6-0.3c-7.7-2.1-15.5-4.1-23.2-6.2c-0.2-0.1-0.4-0.1-0.6-0.2c-0.4-0.1-0.9-0.2-1.3-0.4
			c-2.6-0.7-5.2-1.4-7.7-2.1c-0.2-0.1-0.4-0.1-0.7-0.2c-12.5-3.3-24.9-6.7-37.4-10c-0.2-0.1-0.4-0.2-0.6-0.1l0-0.3
			c1.6-2.8,3.6-5.3,5.6-7.8c0.4,0.1,0.9,0.2,1.3,0.3c12.7,3.4,25.4,6.8,38,10.2c0.2,0.1,0.4,0.1,0.7,0.2c2.4,0.6,4.7,1.3,7.1,1.9
			c0.4,0.1,0.9,0.2,1.3,0.3c2.2,0.6,4.5,1.2,6.7,1.9c6.3,1.9,12.9,2.9,19,5.6c1.1,1.2,1.3,2.8,1.5,4.3c0.9,7,1.9,14,2.8,21
			c-0.1,0.4-0.2,0.9-0.3,1.3c-1.7,6.5-3.5,13-5.2,19.5c-0.1,0.4-0.3,0.9-0.4,1.3c-4.3,5.6-8.6,11.2-12.9,16.8
			c-0.9,1.2-1.9,2.5-3.4,3c-1.7-0.3-3.5-0.5-5.2-0.9c-6.9-1.8-13.9-3.6-20.8-5.5c-3-0.8-6-1.6-9-2.4c-12.5-3.3-24.9-6.7-37.4-10
			C228.8,798.9,228.2,798.7,227.5,798.5z"/>
		<path class="st10" d="M265.4,799.1c-12.5-3.3-24.9-6.7-37.4-10c-0.2-0.7-0.6-1-1.2-0.4c0,0-0.1,0.3-0.1,0.3
			c-1.3-9.3-2.5-18.6-2.9-28c13.1,3.5,26.3,7,39.4,10.6c0,0,0,0,0,0c-0.2,4.8,1.3,9.4,1.4,14.2C264.4,790.2,265.9,794.6,265.4,799.1
			z"/>
		<path class="st11" d="M263.1,771.5c-13.1-3.5-26.3-7-39.4-10.6c5.1-7.9,10.8-15.4,16.5-22.8c0,0,0,0.3,0,0.3
			c0,0.1,0.1,0.3,0.1,0.3c0.2,0,0.3-0.1,0.5-0.2c12.5,3.3,24.9,6.7,37.4,10c-0.1,0.2-0.1,0.4-0.2,0.7c-0.8,3.7-3.5,6.3-5.5,9.2
			C269.5,762.8,266,766.9,263.1,771.5z"/>
		<path class="st10" d="M229.4,799.1c12.5,3.3,24.9,6.7,37.4,10c0.7,6,1.6,12,1.9,18.1c0.2,3.2,1.4,6.3,0.4,9.5
			c-12.1-3.2-24.1-6.5-36.2-9.7c-0.5-1-1.6-0.9-2.4-1.2c-1.4-8.7-2.1-17.5-3-26.3C228.2,799.5,228.9,799.6,229.4,799.1z"/>
		<path class="st11" d="M285.1,740.8c-12.7-3.4-25.4-6.8-38-10.2c0.2-0.9,0.5-1.9,0.7-2.8c4.4-6.7,9.2-13.2,14.2-19.5
			c0.9,0.2,1.8,0.8,2.8,0.2c12.1,3.2,24.1,6.5,36.2,9.7c-0.2,1.2-0.9,2.2-1.6,3.2c-4.7,6.2-9.2,12.4-13.3,19
			C285.7,740.4,285.4,740.6,285.1,740.8z"/>
		<path class="st12" d="M275.8,811.5c6.9,1.8,13.9,3.7,20.8,5.5c1.7,0.4,3.5,0.6,5.2,0.9c0,1-0.2,2-0.1,3c0.8,7.3,1.8,14.6,2.6,21.9
			c0.3,2.9-0.2,6.2,1.8,8.9c-0.6,1.3-1.6,0.8-2.6,0.5c-7.6-2-15.1-4.1-22.7-6c-1.7-0.4-2.3-1.3-2.4-2.9c-0.1-1.3-0.2-2.6-0.3-3.9
			c-0.1-0.3-0.3-0.6-0.4-0.9c-0.2-3-0.4-6-0.6-8.9C276.7,823.4,275.3,817.5,275.8,811.5z"/>
		<path class="st13" d="M319.8,750.7c-6.1-2.7-12.7-3.6-19-5.6c-2.2-0.7-4.4-1.3-6.7-1.9c0.1-0.2,0.1-0.5,0.2-0.7
			c4.8-7.7,10.4-14.8,15.6-22.2c1.2-1.5,2.3-3,3.5-4.6c0.4,0,0.8-0.1,1.2-0.1c8.4,2.3,16.8,4.5,25.2,6.8c-2.1,4.9-6.1,8.3-8.9,12.6
			C327.4,740.4,322.8,745,319.8,750.7z"/>
		<path class="st14" d="M343.8,738.3c7.2-2.1,14.9,0.3,19.6,6.3c4.7,6,5.2,14.5,1.1,21.5c-2.6,4.5-6.3,7.9-10.8,10.6
			c-2,1.2-4,2.3-6.1,3.5c-4.6,1.7-9.2,3.5-14.1,4.6c-0.8-2.9-1.8-5.6-4.5-7.3c-0.6-0.4-0.8-1-0.7-1.7c8.2-3.8,15.6-8.4,19.5-17.1
			C350.4,753.2,349.9,743.9,343.8,738.3z"/>
		<path class="st14" d="M340.7,806.1c3.2,5.3,6.4,10.6,7.3,17c1.9,12.9-6.8,23.5-19.3,23c-4.7-0.2-9.1-1.8-12.3-5.6
			c9.3-2.2,15.2-11.1,13.6-22c-1-6.9-4.3-12.7-8.3-18.2c0.2-0.7,0.7-1.2,1.4-1.2c3.2,0,5.5-1.9,7.6-4
			C334.4,798.4,337.5,802.3,340.7,806.1z"/>
		<path class="st15" d="M321.7,800.3c4,5.5,7.3,11.3,8.3,18.2c1.6,10.9-4.3,19.7-13.6,22c-0.4-0.2-0.7-0.4-1.1-0.7
			c-4.7-6.6-5.2-13.6-2.7-21.2c2.2-6.8,3.7-13.7,5.6-20.6c0.1-0.4,0.3-0.9,0.4-1.3C319.6,797.9,320.7,799.1,321.7,800.3z"/>
		<path class="st15" d="M343.8,738.3c6.1,5.5,6.6,14.8,4,20.4c-4,8.7-11.3,13.3-19.5,17.1c-1.5,0.5-3,1-4.5,1.5
			c0.1-0.4,0.2-0.9,0.3-1.3c1.9-6.9,4-13.7,5.5-20.6c1.7-7.8,5.5-13.7,12.9-17C342.9,738.3,343.4,738.3,343.8,738.3z"/>
		<path class="st16" d="M342.5,738.4c-7.4,3.3-11.3,9.2-12.9,17c-1.5,6.9-3.6,13.8-5.5,20.6c-0.9-7-1.9-14-2.8-21
			c-0.2-1.6-0.4-3.1-1.5-4.3c3-5.7,7.6-10.2,11.1-15.6c2.8-4.3,6.9-7.8,8.9-12.6c1.8,3.5,1.2,7.4,1.9,11.1
			C342.1,735.1,342.3,736.7,342.5,738.4z"/>
		<path class="st17" d="M318.2,798c-1.8,6.9-3.4,13.8-5.6,20.6c-2.5,7.6-2.1,14.6,2.7,21.2c-3,3.9-6.1,7.8-9.1,11.7
			c-2.1-2.6-1.5-5.9-1.8-8.9c-0.8-7.3-1.8-14.6-2.6-21.9c-0.1-1,0.1-2,0.1-3c1.6-0.5,2.5-1.8,3.4-3
			C309.6,809.2,313.9,803.6,318.2,798z"/>
		<path class="st17" d="M340.7,806.1c-3.2-3.8-6.2-7.7-9.9-11c2.2-3.1,3.1-6.5,2.8-10.3c4.8-1.1,9.4-2.9,14.1-4.6
			c0.3,4.8,2.5,9.9,1.1,14.3C347.3,798.8,343.4,802.3,340.7,806.1z"/>
		<path class="st18" d="M309.9,720.3c-5.2,7.4-10.8,14.5-15.6,22.2c-0.6-0.1-1.1-0.1-1.5,0.4c-2.4-0.6-4.7-1.3-7.1-1.9
			c0.1-0.2,0.1-0.5,0.2-0.7c4.1-6.5,8.6-12.8,13.3-19c0.8-1,1.4-2,1.6-3.2C303.9,718.8,306.9,719.6,309.9,720.3z"/>
		<path class="st13" d="M275.8,811.5c-0.6,6,0.9,11.9,1.2,17.8c0.2,3,0.4,6,0.6,8.9c0,0-0.1,0.3-0.1,0.3l-0.1,0.3
			c-2.8-0.7-5.6-1.5-8.4-2.2c1-3.2-0.2-6.3-0.4-9.5c-0.3-6-1.2-12.1-1.9-18.1C269.8,809.9,272.8,810.7,275.8,811.5z"/>
		<path class="st19" d="M247.7,727.7c-0.2,0.9-0.5,1.9-0.7,2.8c-0.4-0.1-0.9-0.2-1.3-0.3C246.2,729.3,246.9,728.4,247.7,727.7z"/>
		<path class="st18" d="M264.7,708.4c-1,0.7-1.8,0-2.8-0.2C263,707.2,263.8,708.2,264.7,708.4z"/>
		<path class="st20" d="M230.5,825.7c0.9,0.3,1.9,0.2,2.4,1.2C232.1,826.6,230.8,827.1,230.5,825.7z"/>
		<path class="st21" d="M229.4,799.1c-0.5,0.5-1.2,0.4-1.8,0.3c0-0.3,0-0.6,0-0.9C228.2,798.7,228.8,798.9,229.4,799.1z"/>
		<path class="st16" d="M314.6,715.6c-0.4,0-0.8,0.1-1.2,0.1C313.7,715.2,314.2,715.4,314.6,715.6z"/>
		<path class="st20" d="M277.5,838.9l0.1-0.3c0,0,0.1-0.3,0.1-0.3c0.1,0.3,0.3,0.6,0.4,0.9C277.9,839.1,277.7,839,277.5,838.9z"/>
		<path class="st12" d="M300.1,806.5c-0.4,1.6-1.5,1.6-2.9,1.2c-7.8-2.2-15.7-4.3-23.5-6.4c0.1-0.2,0.1-0.5,0.2-0.7
			c-0.8-9-1.6-18-2.5-26.9h0c8.4,2.2,16.8,4.5,25.2,6.7C297.8,789.1,299,797.8,300.1,806.5z"/>
		<path class="st13" d="M296.6,780.4c-8.4-2.2-16.8-4.5-25.2-6.7c5.2-7.4,10.4-14.7,15.6-22.1c0.2,0.1,0.4,0.1,0.6,0.2
			c0.3-0.2,0.5-0.3,0.8-0.5c7.7,2.1,15.5,4.1,23.2,6.2c0,0.1,0,0.3,0.1,0.3c0.2,0,0.3,0,0.5,0c0.8,0.5,0.4,1.2,0.4,1.9
			C307.3,766.6,302,773.5,296.6,780.4z"/>
		<path class="st17" d="M296.6,780.4c5.4-6.9,10.7-13.9,16.1-20.8c1.1,8.2,2.2,16.5,3.3,24.7c0.1,0.9-0.1,1.7-0.7,2.5
			c-5.1,6.6-10.1,13.2-15.2,19.8C299,797.8,297.8,789.1,296.6,780.4z"/>
		<path class="st22" d="M333.5,784.8c0.4,3.8-0.6,7.2-2.8,10.3c-2.1,2.1-4.4,4-7.6,4c-0.7,0-1.2,0.5-1.4,1.2
			c-1.1-1.2-2.1-2.4-3.2-3.5c1.7-6.5,3.5-13,5.2-19.5c1.5-0.5,3-1,4.5-1.5c-0.2,0.7,0,1.4,0.7,1.7
			C331.8,779.2,332.8,781.9,333.5,784.8z"/>
		<path class="st18" d="M287.1,751.6c-5.2,7.4-10.4,14.7-15.6,22.1c0,0,0,0,0,0c-2.8-0.7-5.6-1.5-8.4-2.2c0,0,0,0,0,0
			c2.9-4.5,6.4-8.6,9.4-13c2-2.9,4.7-5.6,5.5-9.2c0.3-0.2,0.5-0.3,0.8-0.5c2.6,0.7,5.2,1.4,7.7,2.1
			C286.8,751.1,286.9,751.3,287.1,751.6z"/>
		<path class="st13" d="M263.1,771.5c2.8,0.7,5.6,1.5,8.4,2.2c0.8,9,1.6,18,2.5,26.9c-0.3,0.2-0.6,0.3-0.8,0.5
			c-2.6-0.7-5.2-1.4-7.7-2.1c0.5-4.5-0.9-8.9-0.9-13.4C264.4,780.9,262.9,776.3,263.1,771.5z"/>
		<path class="st19" d="M292.9,742.8c0.4-0.5,0.9-0.5,1.5-0.4c-0.1,0.2-0.1,0.5-0.2,0.7C293.7,743.1,293.3,743,292.9,742.8z"/>
		<path class="st19" d="M287.1,751.6c-0.2-0.3-0.3-0.6-0.5-0.8c0.4,0.1,0.9,0.2,1.3,0.4c-0.1,0.2-0.1,0.4-0.2,0.6
			C287.5,751.7,287.3,751.7,287.1,751.6z"/>
		<path class="st21" d="M226.7,788.7c0.6-0.6,1-0.3,1.2,0.4C227.5,788.9,227.1,788.8,226.7,788.7z"/>
		<path class="st21" d="M287.7,751.8c0.1-0.2,0.1-0.4,0.2-0.6c0.2,0.1,0.4,0.1,0.6,0.2C288.3,751.5,288,751.6,287.7,751.8z"/>
		<path class="st21" d="M273.1,801.1c0.3-0.2,0.6-0.3,0.8-0.5c-0.1,0.2-0.1,0.5-0.2,0.7C273.5,801.3,273.3,801.2,273.1,801.1z"/>
		<path class="st19" d="M286,740.2c-0.1,0.2-0.1,0.5-0.2,0.7c-0.2-0.1-0.4-0.1-0.7-0.2C285.4,740.6,285.7,740.4,286,740.2z"/>
		<path class="st19" d="M278.9,748.7c-0.3,0.2-0.5,0.3-0.8,0.5c0.1-0.2,0.1-0.4,0.2-0.7C278.4,748.6,278.6,748.7,278.9,748.7z"/>
		<path class="st21" d="M312.4,757.8c-0.2,0-0.3,0-0.5,0c0,0-0.1-0.2-0.1-0.3C312,757.5,312.2,757.6,312.4,757.8z"/>
		<path class="st19" d="M240.8,738.5c-0.2,0.1-0.3,0.1-0.5,0.2c0,0-0.1-0.2-0.1-0.3C240.4,738.3,240.6,738.4,240.8,738.5z"/>
	</g>
	<g>
		<path class="st9" d="M457.9,1495.3c-3-1.1-6-2.2-8.7-4c0,0-0.2-0.3-0.2-0.3c0.3-0.3,0.6-0.6,0.9-0.9c9.1-9.1,18.3-18.2,27.4-27.4
			c1.9-1.9,3.8-3.8,5.7-5.7c0.2-0.2,0.3-0.3,0.5-0.5c5.8-5.7,11.5-11.4,17.3-17.1c1-1,1.6-1.9,0.4-3.1c-3.2-7.7-6.4-15.3-9.5-23
			c-0.4-0.9-0.9-1.4-1.8-1.8c-7.7-3.2-15.4-6.3-23-9.5c-0.5-0.3-1-1-1.8-0.6c-0.2,0.1-0.4,0.2-0.5,0.4c-5.7,5.7-11.3,11.3-17,17
			c-0.2,0.2-0.3,0.3-0.5,0.5c-0.3,0.3-0.6,0.6-1,0.9c-1.9,1.9-3.8,3.8-5.7,5.7c-0.2,0.2-0.3,0.3-0.5,0.5
			c-9.1,9.1-18.3,18.3-27.4,27.4c-0.2,0.1-0.3,0.3-0.4,0.5l-0.3-0.1c-1.7-2.8-2.8-5.8-3.9-8.8c0.3-0.3,0.6-0.7,0.9-1
			c9.3-9.3,18.6-18.6,27.9-27.8c0.2-0.2,0.3-0.3,0.5-0.5c1.7-1.7,3.5-3.5,5.2-5.2c0.3-0.3,0.6-0.6,0.9-1c1.7-1.6,3.3-3.2,5-4.8
			c4.8-4.5,8.9-9.7,14.3-13.6c1.6-0.4,3,0.3,4.5,0.9c6.5,2.7,13.1,5.4,19.6,8.1c0.3,0.3,0.7,0.6,1,0.9c4.8,4.8,9.5,9.5,14.3,14.3
			c0.3,0.3,0.6,0.7,0.9,1c2.7,6.5,5.4,13.1,8.1,19.6c0.6,1.4,1.2,2.9,0.9,4.5c-1.1,1.4-2.1,2.8-3.4,4c-5,5.1-10.1,10.2-15.1,15.3
			c-2.2,2.2-4.4,4.4-6.6,6.6c-9.1,9.1-18.2,18.3-27.4,27.4C458.9,1494.4,458.4,1494.9,457.9,1495.3z"/>
		<path class="st10" d="M477.3,1462.9c-9.1,9.1-18.3,18.2-27.4,27.4c-0.7-0.2-1.1,0-0.9,0.9c0,0,0.2,0.3,0.2,0.3
			c-8.7-3.5-17.4-7.1-25.7-11.5c9.6-9.6,19.2-19.3,28.9-28.9c0,0,0,0,0,0c4,2.6,8.8,3.6,13,5.9
			C469.1,1459.2,473.7,1460.2,477.3,1462.9z"/>
		<path class="st11" d="M452.3,1451c-9.6,9.6-19.2,19.3-28.9,28.9c-4.3-8.3-7.9-17-11.5-25.7c0,0,0.3,0.1,0.3,0.1
			c0.1,0,0.3,0.1,0.3,0c0-0.2,0.1-0.3,0.1-0.5c9.1-9.1,18.3-18.3,27.4-27.4c0.2,0.2,0.3,0.3,0.5,0.5c2.8,2.6,3.7,6.2,5.2,9.4
			C448,1441.2,449.8,1446.3,452.3,1451z"/>
		<path class="st10" d="M459.3,1494c9.1-9.1,18.2-18.3,27.4-27.4c5.6,2.4,11.2,4.6,16.6,7.4c2.8,1.4,6.2,1.9,8.4,4.4
			c-8.8,8.8-17.7,17.6-26.5,26.5c-1.2-0.1-1.6,0.9-2.3,1.5c-8.2-3.2-16.2-7-24.2-10.6C459.1,1495.2,459.5,1494.7,459.3,1494z"/>
		<path class="st11" d="M436.7,1416.6c-9.3,9.3-18.6,18.6-27.9,27.8c-0.7-0.7-1.4-1.3-2.1-2c-3.6-7.2-6.8-14.6-9.8-22.1
			c0.6-0.7,1.6-1.1,1.5-2.3c8.8-8.8,17.6-17.6,26.5-26.5c1,0.8,1.5,1.9,2,3c3,7.1,6.2,14.2,9.8,21
			C436.7,1415.9,436.7,1416.3,436.7,1416.6z"/>
		<path class="st12" d="M493.3,1460c5-5.1,10.1-10.2,15.1-15.3c1.2-1.2,2.2-2.7,3.4-4c0.8,0.5,1.6,1.2,2.5,1.6
			c6.7,3,13.6,5.7,20.3,8.7c2.7,1.2,5.3,3.3,8.6,2.8c0.8,1.2-0.2,1.8-0.8,2.5c-5.5,5.5-11.1,11-16.6,16.7c-1.2,1.3-2.3,1.4-3.7,0.6
			c-1.2-0.6-2.4-1.1-3.6-1.7c-0.3,0-0.7-0.1-1-0.1c-2.7-1.3-5.4-2.6-8-3.9C504.1,1465.2,498.2,1463.5,493.3,1460z"/>
		<path class="st13" d="M462.6,1391.5c-5.4,3.9-9.5,9.1-14.3,13.6c-1.7,1.6-3.3,3.2-5,4.8c-0.2-0.2-0.3-0.3-0.5-0.5
			c-4.2-8-7.6-16.4-11.4-24.6c-0.7-1.8-1.5-3.5-2.2-5.3c0.2-0.4,0.3-0.7,0.5-1.1c6.2-6.2,12.3-12.3,18.5-18.5
			c3.2,4.2,4.1,9.5,6.5,14.1C457.6,1379.8,459.2,1386,462.6,1391.5z"/>
		<path class="st14" d="M463.9,1364.6c1.7-7.3,7.7-12.7,15.2-13.8c7.6-1.1,15.2,2.8,19.2,9.8c2.6,4.5,3.7,9.5,3.8,14.6
			c0,2.3,0,4.7,0,7c-0.9,4.9-1.6,9.7-3.1,14.5c-2.9-0.8-5.8-1.3-8.6,0.3c-0.6,0.4-1.3,0.2-1.8-0.3c0.8-9,0.5-17.7-5-25.4
			C480.1,1366.3,471.8,1362,463.9,1364.6z"/>
		<path class="st14" d="M521.1,1401.2c6.2-0.1,12.4-0.2,18.3,2.2c12.1,4.8,16.9,17.7,10.3,28.2c-2.5,4-6.1,7-11,7.8
			c2.7-9.2-2-18.7-12.2-22.8c-6.5-2.6-13.2-2.6-19.9-1.9c-0.5-0.5-0.6-1.2-0.3-1.8c1.6-2.8,1.1-5.7,0.3-8.6
			C511.3,1402.7,516.2,1402,521.1,1401.2z"/>
		<path class="st15" d="M506.6,1414.6c6.8-0.7,13.5-0.7,19.9,1.9c10.2,4.1,14.9,13.6,12.2,22.8c-0.4,0.2-0.8,0.4-1.1,0.6
			c-8.1,0.8-14.3-2.3-19.7-8.3c-4.8-5.3-10-10.1-15.1-15.1c-0.3-0.3-0.6-0.7-0.9-1C503.5,1415.3,505,1415,506.6,1414.6z"/>
		<path class="st15" d="M463.9,1364.6c7.9-2.6,16.1,1.7,19.7,6.7c5.5,7.8,5.8,16.5,5,25.4c-0.3,1.6-0.7,3.1-1,4.7
			c-0.3-0.3-0.7-0.6-1-0.9c-5-5-9.8-10.3-15.1-15.1c-5.9-5.4-9.1-11.6-8.3-19.7C463.5,1365.3,463.7,1365,463.9,1364.6z"/>
		<path class="st16" d="M463.3,1365.7c-0.8,8.1,2.3,14.3,8.3,19.7c5.3,4.8,10.1,10,15.1,15.1c-6.5-2.7-13.1-5.4-19.6-8.1
			c-1.4-0.6-2.9-1.2-4.5-0.9c-3.4-5.5-5-11.7-8-17.4c-2.4-4.6-3.3-9.9-6.5-14.1c3.9,0.2,7,2.6,10.6,3.9
			C460.3,1364.4,461.8,1365.1,463.3,1365.7z"/>
		<path class="st17" d="M502.8,1416.6c5,5,10.3,9.8,15.1,15.1c5.4,5.9,11.6,9.1,19.7,8.3c1.9,4.6,3.7,9.2,5.6,13.8
			c-3.3,0.5-5.9-1.7-8.6-2.8c-6.7-3-13.6-5.7-20.3-8.7c-0.9-0.4-1.7-1-2.5-1.6c0.4-1.6-0.3-3-0.9-4.5
			C508.2,1429.7,505.5,1423.1,502.8,1416.6z"/>
		<path class="st17" d="M521.1,1401.2c-4.9,0.9-9.7,1.6-14.5,3.1c-1.6-3.4-4.1-6-7.5-7.5c1.5-4.7,2.2-9.6,3.1-14.5
			c4.3,2.2,9.8,2.7,12.9,6.2C518.1,1391.8,519.1,1396.8,521.1,1401.2z"/>
		<path class="st18" d="M431.4,1384.9c3.8,8.2,7.2,16.6,11.4,24.6c-0.4,0.4-0.6,0.9-0.4,1.5c-1.7,1.7-3.5,3.5-5.2,5.2
			c-0.2-0.2-0.3-0.3-0.5-0.5c-3.6-6.8-6.8-13.9-9.8-21c-0.5-1.2-1-2.2-2-3C427.1,1389.3,429.3,1387.1,431.4,1384.9z"/>
		<path class="st13" d="M493.3,1460c4.9,3.5,10.7,5.2,16.1,7.9c2.7,1.3,5.4,2.6,8,3.9c0,0,0.2,0.2,0.2,0.2l0.2,0.2
			c-2,2.1-4.1,4.1-6.1,6.2c-2.3-2.5-5.6-3-8.4-4.4c-5.4-2.8-11.1-5-16.6-7.4C488.9,1464.4,491.1,1462.2,493.3,1460z"/>
		<path class="st19" d="M406.7,1442.4c0.7,0.7,1.4,1.3,2.1,2c-0.3,0.3-0.6,0.7-0.9,1C407.3,1444.5,406.9,1443.6,406.7,1442.4z"/>
		<path class="st18" d="M398.5,1418c0.1,1.2-0.9,1.6-1.5,2.3C396.5,1419,397.9,1418.8,398.5,1418z"/>
		<path class="st20" d="M483,1506.3c0.7-0.6,1.1-1.6,2.3-1.5C484.5,1505.4,484.3,1506.7,483,1506.3z"/>
		<path class="st21" d="M459.3,1494c0.2,0.7-0.2,1.2-0.6,1.8c-0.3-0.1-0.6-0.3-0.8-0.4C458.4,1494.9,458.9,1494.4,459.3,1494z"/>
		<path class="st16" d="M429.7,1378.5c-0.2,0.4-0.3,0.7-0.5,1.1C428.9,1379,429.2,1378.7,429.7,1378.5z"/>
		<path class="st20" d="M517.9,1472.2l-0.2-0.2c0,0-0.2-0.2-0.2-0.2c0.3,0,0.7,0.1,1,0.1C518.2,1472,518.1,1472.1,517.9,1472.2z"/>
		<path class="st12" d="M501.2,1436.5c1.2,1.2,0.6,2.1-0.4,3.1c-5.8,5.7-11.5,11.4-17.3,17.1c-0.2-0.2-0.3-0.3-0.5-0.5
			c-8.2-3.8-16.4-7.6-24.6-11.3l0,0c6.1-6.1,12.3-12.3,18.4-18.4C484.9,1429.8,493.1,1433.1,501.2,1436.5z"/>
		<path class="st13" d="M476.8,1426.5c-6.1,6.1-12.3,12.3-18.4,18.4c-3.8-8.2-7.5-16.4-11.3-24.6c0.2-0.2,0.3-0.3,0.5-0.5
			c0-0.3,0-0.6,0-1c5.7-5.7,11.3-11.3,17-17c0.1,0,0.3,0.1,0.3,0.1c0.1-0.1,0.2-0.3,0.2-0.5c0.8-0.4,1.2,0.3,1.8,0.6
			C470.2,1410.2,473.5,1418.4,476.8,1426.5z"/>
		<path class="st17" d="M476.8,1426.5c-3.3-8.1-6.7-16.2-10-24.3c7.7,3.2,15.3,6.4,23,9.5c0.9,0.4,1.4,0.9,1.8,1.8
			c3.2,7.7,6.3,15.4,9.5,23C493.1,1433.1,484.9,1429.8,476.8,1426.5z"/>
		<path class="st22" d="M499.1,1396.7c3.4,1.6,6,4.1,7.5,7.5c0.8,2.9,1.3,5.8-0.3,8.6c-0.4,0.6-0.2,1.3,0.3,1.8
			c-1.6,0.3-3.1,0.7-4.7,1c-4.8-4.8-9.5-9.5-14.3-14.3c0.3-1.6,0.7-3.1,1-4.7c0.5,0.5,1.2,0.6,1.8,0.3
			C493.3,1395.4,496.2,1395.9,499.1,1396.7z"/>
		<path class="st18" d="M447.1,1420.3c3.8,8.2,7.5,16.4,11.3,24.6c0,0,0,0,0,0c-2,2-4.1,4.1-6.1,6.1c0,0,0,0,0,0
			c-2.5-4.8-4.3-9.9-6.6-14.7c-1.5-3.2-2.5-6.8-5.2-9.4c0-0.3,0-0.6,0-1c1.9-1.9,3.8-3.8,5.7-5.7
			C446.4,1420.3,446.8,1420.3,447.1,1420.3z"/>
		<path class="st13" d="M452.3,1451c2-2,4.1-4.1,6.1-6.1c8.2,3.8,16.4,7.6,24.6,11.3c0,0.3,0,0.7,0,1c-1.9,1.9-3.8,3.8-5.7,5.7
			c-3.7-2.7-8.2-3.7-12.1-5.9C461.1,1454.6,456.3,1453.6,452.3,1451z"/>
		<path class="st19" d="M442.4,1410.9c-0.2-0.6,0.1-1,0.4-1.5c0.2,0.2,0.3,0.3,0.5,0.5C443,1410.3,442.7,1410.6,442.4,1410.9z"/>
		<path class="st19" d="M447.1,1420.3c-0.3,0-0.6,0-1,0c0.3-0.3,0.6-0.6,1-0.9c0.2,0.2,0.3,0.3,0.5,0.5
			C447.4,1420,447.2,1420.2,447.1,1420.3z"/>
		<path class="st21" d="M449,1491.1c-0.2-0.8,0.2-1,0.9-0.9C449.6,1490.5,449.3,1490.8,449,1491.1z"/>
		<path class="st21" d="M447.5,1419.9c-0.2-0.2-0.3-0.3-0.5-0.5c0.2-0.2,0.3-0.3,0.5-0.5C447.5,1419.2,447.5,1419.5,447.5,1419.9z"
			/>
		<path class="st21" d="M483,1457.2c0-0.3,0-0.7,0-1c0.2,0.2,0.3,0.3,0.5,0.5C483.3,1456.9,483.2,1457,483,1457.2z"/>
		<path class="st19" d="M436.7,1415.6c0.2,0.2,0.3,0.3,0.5,0.5c-0.2,0.2-0.3,0.3-0.5,0.5C436.7,1416.3,436.7,1415.9,436.7,1415.6z"
			/>
		<path class="st19" d="M440.5,1426c0,0.3,0,0.6,0,1c-0.2-0.2-0.3-0.3-0.5-0.5C440.1,1426.3,440.3,1426.1,440.5,1426z"/>
		<path class="st21" d="M465.1,1401.5c-0.1,0.2-0.1,0.3-0.2,0.5c0,0-0.2,0-0.3-0.1C464.6,1401.7,464.8,1401.6,465.1,1401.5z"/>
		<path class="st19" d="M412.6,1453.9c0,0.2-0.1,0.4-0.1,0.5c0,0-0.2,0-0.3,0C412.3,1454.1,412.4,1454,412.6,1453.9z"/>
	</g>
</g>
</svg>
