<?xml version="1.0" encoding="utf-8"?>
<!-- Generator: Adobe Illustrator 27.0.0, SVG Export Plug-In . SVG Version: 6.00 Build 0)  -->
<svg version="1.1" id="Layer_1" xmlns="http://www.w3.org/2000/svg" xmlns:xlink="http://www.w3.org/1999/xlink" x="0px" y="0px"
	 viewBox="0 0 1892.4 1894.8" style="enable-background:new 0 0 1892.4 1894.8;" xml:space="preserve">
<style type="text/css">
	.st0{fill:#FACFCF;}
	.st1{fill:#0070CE;}
	.st2{fill:#EAEAEA;}
	.st3{fill:#C9C9C9;}
	.st4{fill:#FEC020;}
	.st5{opacity:0.25;fill:#231F20;enable-background:new    ;}
	.st6{fill:#0270CD;}
</style>
<path class="st0" d="M937.6,948.4c0-0.3,0-0.6,0-0.8c5.7,0,11.4,0,17.1,0c0,0.3,0,0.6,0,0.8C948.9,948.4,943.3,948.4,937.6,948.4z"
	/>
<g>
	<path class="st1" d="M0,970c0-14.7,0-29.3,0-44c1.1-3,0.2-6.1,0.5-9.1c0-2.2,0-4.5,0-6.7c0-1.9,0-3.8,0-5.7
		c-0.4-50.6,6.1-100.4,16.4-149.8c7.6-36.6,17.1-72.6,29.1-108c12.9-38,27.9-75.2,45.4-111.4c18.7-38.8,40-76.1,63.7-111.9
		c23.5-35.4,49.3-69.1,77.4-101c18.4-20.9,37.5-41.1,57.6-60.3c32.1-30.6,66.1-59,102-84.9c30.2-21.8,61.5-41.7,93.9-59.8
		c39.8-22.1,81-41.3,123.6-57.4c39.1-14.9,79.1-27,119.8-36.6c33.4-7.8,67.2-13.8,101.2-17.9c18.1-2.2,36.3-2.7,54.5-3.4
		c6-0.2,12-0.4,18-0.4c1.9,0,3.8,0,5.7,0c2.2,0,4.5,0,6.8,0c3.4-0.3,6.8,0.6,10.1-0.5c13.7,0,27.3,0,41,0c3.3,1.1,6.7,0.2,10,0.5
		c2.2,0,4.5,0,6.7,0c1.9,0,3.8,0,5.7,0c52.3-0.4,103.8,6.6,154.8,17.5c64.2,13.8,126.4,33.8,186.4,60.5
		c46,20.5,90.2,44.4,132.4,71.9c35.4,23,69,48.3,101,75.8c23.8,20.4,46.6,41.9,68.2,64.5c32.3,33.9,62.2,69.9,89.2,108.2
		c25.5,36.1,48.4,73.8,68.7,113c20.3,39.3,37.6,79.8,52.3,121.5c16.1,45.5,28.2,92,37.1,139.4c4.9,26,8.7,52.2,11.1,78.6
		c0.7,8.3,0.9,16.7,1,25c0.1,9,1,18,0.6,26.9c0,1.9,0,3.8,0,5.7c0,2.2,0,4.5,0,6.7c0.3,3-0.6,6.2,0.5,9.2c0,14.7,0,29.3,0,44
		c-1.1,3-0.2,6.1-0.5,9.1c0,2.2,0,4.5,0,6.7c0,1.9,0,3.8,0,5.7c0.2,46.6-5.3,92.6-14.3,138.3c-8.3,41.9-19.1,83.1-32.9,123.5
		c-11.9,34.8-25.9,68.9-41.7,102.2c-19.8,41.8-42.8,81.7-68.4,120.1c-20.8,31.2-43.7,60.8-68.1,89.4c-21,24.6-43.2,48-66.7,70.3
		c-25.6,24.3-52.4,47.2-80.6,68.6c-37.6,28.5-77.1,54.2-118.5,76.9c-44.9,24.6-91.6,45.3-139.9,62.4c-42.5,15-85.8,26.8-130,35.6
		c-30.2,6.1-60.7,10.4-91.3,13.5c-12.6,1.3-25.2,1.4-37.9,1.7c-16,0.4-32,0.9-47.9,0.6c-5.1,0-10.1,0-15.2,0
		c-28.3,0.2-56.6-0.1-84.8-2.3c-28-2.2-55.9-6.6-83.5-11.8c-43-8-85.2-19-126.6-33c-36.2-12.2-71.5-26.6-106-43
		c-42.4-20.2-82.9-43.4-121.8-69.6c-33.3-22.5-65-47.1-95.2-73.6c-21.7-19-42.5-38.9-62.4-59.8c-24.3-25.6-47.2-52.5-68.6-80.6
		c-32.6-43-61.3-88.4-86.2-136.2c-23.5-45-43-91.7-59-139.8c-17.6-52.7-30-106.7-38.1-161.7c-3.6-24.7-5.7-49.5-5.9-74.5
		c-0.1-5.6-0.4-11.3-0.4-17c0-1.9,0-3.8,0-5.7c0-2.2,0-4.5,0-6.7C0.2,976.1,1.1,973,0,970z"/>
	<path class="st2" d="M55,947.2c-0.6-492.7,403.4-898,904.4-891.1c487.7,6.7,886.8,408.8,878.4,907.2
		c-8.1,482.6-402.4,876-891.9,875.8C452,1838.8,54.2,1437.1,55,947.2z"/>
	<path class="st3" d="M943.3,1793.9C476,1794.4,90.7,1412.4,94.9,936.6c4.2-460,380.2-846.3,860.5-839.8
		c231.5,3.1,430.8,88.8,593.2,254.1c162.3,165.2,244.1,365.8,243.7,597.1C1791.5,1416.3,1410.8,1794.3,943.3,1793.9z"/>
</g>
<g>
	<g>
		<path class="st1" d="M1756.4,1120.3c11.5-54.7,17.7-111.5,17.8-169.7c0-0.5,0-1.1,0-1.6H950.5L1756.4,1120.3z"/>
		<path class="st1" d="M946,948.1l-256-788c-55.7,18-108.7,41.7-158.3,70.5L946,948.1L946,948.1z"/>
		<path class="st1" d="M945.9,948.1L391.8,332.6c-42.9,38.8-81.7,82-115.7,128.8L945.9,948.1L945.9,948.1z"/>
		<path class="st1" d="M946.2,948.1l86.6-823.9c-24.6-2.4-49.7-3.8-75.1-4.1c-33.3-0.4-66,1-98.1,4.3L946.2,948.1L946.2,948.1z"/>
		<path class="st1" d="M189.5,611.3c-23.3,52.4-41.4,107.5-53.5,164.6L945.8,948L189.5,611.3z"/>
		<path class="st1" d="M948.1,948.5l809.3-172c-11.6-57.5-29.2-112.6-52.8-165.3L947.3,948.4L948.1,948.5z"/>
		<path class="st1" d="M946.4,948.2l414.7-718.4c-50.2-29.6-103.1-53.3-158.4-71L946.3,948.1L946.4,948.2z"/>
		<path class="st1" d="M946.9,948.3l669.8-486.7c-24-32.4-50.8-63.5-80.2-93.5c-11.8-12-23.9-23.7-36.1-34.8l-553.7,615H946.9z"/>
		<path class="st1" d="M946.5,949l413.6,716.4c50.3-29,97.2-63.2,140.1-101.8L946.8,949H946.5z"/>
		<path class="st1" d="M946.2,949l86.4,822.5c58.4-6,115.1-18.2,169.3-35.7L946.4,949H946.2z"/>
		<path class="st1" d="M947.2,949l669,486.1c33.9-46.5,63.1-96.8,86.8-149.9L948.1,949H947.2z"/>
		<path class="st1" d="M118.2,949c0.1,59.1,6.4,116.6,18.2,172l809.3-172H118.2z"/>
		<path class="st1" d="M945.8,949L190,1285.5c23.8,53.1,52.9,103.2,86.8,149.6L945.8,949L945.8,949z"/>
		<path class="st1" d="M946,949l-255.6,786.6c54.3,17.6,110.9,29.8,169.2,35.9L946,949L946,949z"/>
		<path class="st1" d="M945.9,949l-553.2,614.5c42.9,38.6,89.7,72.7,139.8,101.7L945.9,949L945.9,949z"/>
	</g>
	<g>
		<polygon class="st4" points="946,948.9 946,949 946,949 946.1,948.9 		"/>
		<polygon class="st4" points="946.1,948.9 946,949 946.1,948.9 		"/>
		<polygon class="st4" points="946.1,948.8 946,948.9 946,948.9 946.1,948.9 		"/>
		<polygon class="st4" points="946.3,948.8 946.3,948.9 946.4,948.9 946.4,948.8 		"/>
		<polygon class="st4" points="946.2,948.8 946.2,948.9 946.3,948.9 946.3,948.8 		"/>
		<polygon class="st4" points="946.1,948.9 946.1,948.9 946.2,948.9 946.2,948.8 		"/>
		<polygon class="st4" points="946.1,948.9 946.1,948.8 946.1,948.8 		"/>
		<polygon class="st4" points="946.2,948.4 946.2,948.4 946.2,948.4 946.2,948.5 		"/>
		<polygon class="st4" points="946.2,948.5 946.2,948.5 946.2,948.5 946.2,948.6 		"/>
		<polygon class="st4" points="946.2,948.4 946.2,948.5 946.2,948.5 946.2,948.5 		"/>
		<polygon class="st4" points="946.2,948.5 946.2,948.6 946.2,948.6 946.2,948.6 		"/>
		<polygon class="st4" points="946.2,948.6 946.2,948.6 946.2,948.6 946.2,948.7 		"/>
		<polygon class="st4" points="946.2,948.8 946.2,948.7 946.1,948.7 946.1,948.8 		"/>
		<polygon class="st4" points="946.2,948.6 946.1,948.7 946.1,948.7 946.2,948.7 		"/>
		<polygon class="st4" points="946.1,948.7 946.1,948.8 946.1,948.8 946.1,948.8 		"/>
		<polygon class="st4" points="946.1,948.2 946.1,948.1 946,948.1 946.1,948.1 		"/>
		<polygon class="st4" points="946.2,948.2 946.2,948.1 946.1,948.1 946.1,948.2 		"/>
		<polygon class="st4" points="946.1,948.1 946,948.1 946,948.1 946,948.1 		"/>
		<polygon class="st4" points="946,948.1 946,948.1 945.9,948.1 		"/>
		<polygon class="st4" points="946.3,948.2 946.3,948.1 946.2,948.1 946.2,948.2 		"/>
		<polygon class="st4" points="945.9,948.1 946,948.1 946,948.1 		"/>
		<polygon class="st4" points="945.9,948.1 945.9,948 945.9,948.1 946,948.1 		"/>
		<polygon class="st4" points="946.7,948.4 946.9,948.3 946.6,948.2 946.5,948.3 		"/>
		<polygon class="st4" points="946.7,948.6 946.9,948.8 947.3,948.7 946.9,948.5 		"/>
		<polygon class="st4" points="946.4,948.3 946.4,948.2 946.3,948.1 946.3,948.2 		"/>
		<polygon class="st4" points="947.3,948.7 948.1,948.5 947.3,948.4 946.9,948.5 		"/>
		<polygon class="st4" points="946.5,948.7 946.6,948.8 946.9,948.8 946.7,948.6 		"/>
		<polygon class="st4" points="946.5,948.3 946.6,948.2 946.4,948.2 946.4,948.3 		"/>
		<polygon class="st4" points="946.9,948.5 947.3,948.4 946.9,948.3 946.7,948.4 		"/>
		<polygon class="st4" points="946.4,948.8 946.4,948.9 946.6,948.8 946.5,948.7 		"/>
		<polygon class="st4" points="946.3,948.5 946.4,948.4 946.3,948.4 		"/>
		<polygon class="st4" points="946.2,948.3 946.2,948.4 946.2,948.4 946.3,948.3 		"/>
		<polygon class="st4" points="946.3,948.6 946.3,948.7 946.4,948.6 946.3,948.5 		"/>
		<polygon class="st4" points="946.4,948.6 946.5,948.5 946.4,948.4 946.3,948.5 		"/>
		<polygon class="st4" points="946.3,948.5 946.3,948.5 946.2,948.5 946.3,948.6 		"/>
		<polygon class="st4" points="946.2,948.4 946.2,948.5 946.2,948.5 946.3,948.5 		"/>
		<polygon class="st4" points="946.3,948.4 946.3,948.3 946.2,948.4 946.3,948.5 		"/>
		<polygon class="st4" points="946.2,948.5 946.2,948.6 946.2,948.6 946.3,948.6 		"/>
		<polygon class="st4" points="945.7,949 945.8,949 945.8,949 		"/>
		<polygon class="st4" points="946,948.1 946,948.1 946,948.1 946,948.2 		"/>
		<polygon class="st4" points="945.8,948 945.9,948.1 945.9,948 		"/>
		<polygon class="st4" points="946.1,948.8 946.1,948.9 946.2,948.8 946.2,948.8 		"/>
		<polygon class="st4" points="946,948.9 945.9,949 946,949 		"/>
		<polygon class="st4" points="946,948.1 946,948.2 946.1,948.2 946.1,948.1 		"/>
		<polygon class="st4" points="946.1,948.2 946.1,948.3 946.1,948.3 		"/>
		<polygon class="st4" points="946.3,948.3 946.3,948.2 946.2,948.2 946.2,948.3 		"/>
		<polygon class="st4" points="946.3,948.4 946.4,948.3 946.3,948.2 946.3,948.3 		"/>
		<polygon class="st4" points="946.2,948.3 946.2,948.2 946.1,948.2 946.1,948.2 		"/>
		<polygon class="st4" points="946.1,948.3 946.1,948.4 946.2,948.4 946.2,948.4 		"/>
		<polygon class="st4" points="946.2,948.3 946.1,948.2 946.1,948.3 946.2,948.4 		"/>
		<polygon class="st4" points="946.4,948.4 946.5,948.3 946.4,948.3 946.3,948.4 		"/>
		<polygon class="st4" points="946.1,948.2 946.1,948.1 946.1,948.2 		"/>
		<polygon class="st4" points="946.5,948.5 946.7,948.4 946.5,948.3 946.4,948.4 		"/>
		<polygon class="st4" points="946.3,948.7 946.3,948.8 946.4,948.8 		"/>
		<polygon class="st4" points="946.2,948.8 946.2,948.8 946.3,948.8 946.3,948.7 		"/>
		<polygon class="st4" points="946.3,948.7 946.4,948.8 946.5,948.7 946.4,948.6 		"/>
		<polygon class="st4" points="946.7,948.6 946.9,948.5 946.7,948.4 946.5,948.5 		"/>
		<polygon class="st4" points="946.3,948.7 946.3,948.6 946.2,948.6 		"/>
		<polygon class="st4" points="946.4,948.6 946.5,948.7 946.7,948.6 946.5,948.5 		"/>
		<polygon class="st4" points="946.2,948.6 946.2,948.7 946.2,948.8 946.3,948.7 		"/>
		<polygon class="st4" points="946,948.1 946.1,948.2 946,948.2 		"/>
		<path class="st4" d="M946.1,948.1l-86.5-823.6c-58.7,6-115.4,18.1-169.5,35.6L946.1,948.1L946.1,948.1z"/>
		<path class="st4" d="M945.8,949L945.8,949l0.2-0.1l0.1-0.1l0.1-0.1v-0.1v-0.1v-0.1v-0.1l-0.1-0.1l-0.1-0.1l-0.1-0.1h-0.1
			L136,775.9c-11.2,53-17.4,107.8-17.9,163.6c0,3.2,0,6.3,0,9.5h827.6H945.8z"/>
		<polygon class="st4" points="947.3,948.7 948.1,949 950.5,949 948.1,948.5 		"/>
		<path class="st4" d="M947.3,948.4l757.3-337.2c-23.4-52.3-52.7-102.2-87.9-149.6L946.9,948.3L947.3,948.4z"/>
		<path class="st4" d="M950.5,949h823.7c0-59.6-5.6-117.2-16.7-172.5l-809.4,172L950.5,949z"/>
		<path class="st4" d="M946.6,948.2l553.7-615c-43.9-40.1-90.3-74.6-139.2-103.4L946.4,948.2H946.6z"/>
		<path class="st4" d="M946.3,948.1l256.5-789.3c-54.3-17.3-111-28.9-170-34.6L946.3,948.1L946.3,948.1z"/>
		<path class="st4" d="M945.9,948L276.1,461.4c-33.9,46.6-62.9,96.9-86.6,149.9L945.9,948L945.9,948z"/>
		<path class="st4" d="M946.4,949l255.6,786.8c55.5-18,108.5-41.7,158.2-70.4L946.4,949L946.4,949z"/>
		<path class="st4" d="M950.5,949H948l754.9,336.1c23.3-52.3,41.3-107.4,53.4-164.8L950.5,949z"/>
		<path class="st4" d="M946.8,949l553.4,614.6c43-38.7,81.9-81.8,116-128.6l-669-486.1L946.8,949L946.8,949z"/>
		<path class="st4" d="M946.1,949l-86.4,822.5c28.4,2.9,57.1,4.4,86.2,4.4c29.3,0,58.3-1.5,86.8-4.4L946.3,949H946.1z"/>
		<path class="st4" d="M945.8,949l-669,486.1c34.1,46.8,73,89.8,115.8,128.4L945.8,949L945.8,949z"/>
		<path class="st4" d="M945.7,949l-809.3,172c12.2,57.3,30.3,112.3,53.6,164.4L945.7,949L945.7,949z"/>
		<path class="st4" d="M945.9,949l-413.5,716.1c49.7,28.8,102.6,52.5,157.9,70.5L945.9,949L945.9,949z"/>
		<path class="st4" d="M946,948.1L531.7,230.6c-50.3,29.1-97.2,63.4-140,102L946,948.1L946,948.1z"/>
		<polygon class="st4" points="946.2,948.6 946.2,948.6 946.2,948.6 946.1,948.7 		"/>
		<polygon class="st4" points="946.2,948.6 946.1,948.7 946.1,948.7 		"/>
		<polygon class="st4" points="946.2,948.5 946.2,948.6 946.2,948.6 		"/>
		<polygon class="st4" points="946.9,948.8 947.2,949 948.1,949 947.3,948.7 		"/>
		<polygon class="st4" points="946.2,948.5 946.2,948.5 946.2,948.5 946.2,948.6 		"/>
		<polygon class="st4" points="946.1,948.8 946.1,948.8 946.1,948.8 946,948.9 		"/>
		<polygon class="st4" points="946.1,948.7 946.1,948.8 946.1,948.8 		"/>
		<polygon class="st4" points="946.1,948.7 946.1,948.7 946.1,948.7 946.1,948.8 		"/>
		<polygon class="st4" points="946.1,948.2 946.1,948.3 946.1,948.3 		"/>
		<polygon class="st4" points="946.1,948.2 946,948.2 946.1,948.2 946.1,948.3 		"/>
		<polygon class="st4" points="946.1,948.3 946.1,948.3 946.1,948.3 946.1,948.4 		"/>
		<polygon class="st4" points="946.1,948.3 946.2,948.4 946.1,948.4 		"/>
		<polygon class="st4" points="946.2,948.4 946.1,948.4 946.2,948.4 946.2,948.5 		"/>
		<polygon class="st4" points="946.2,948.4 946.2,948.5 946.2,948.5 		"/>
		<polygon class="st4" points="946.1,948.8 946,948.9 946,948.9 		"/>
		<polygon class="st4" points="946.1,948.9 946.1,949 946.2,949 946.2,948.9 		"/>
		<polygon class="st4" points="946,949 946,949 946.1,949 946.1,948.9 		"/>
		<polygon class="st4" points="946.2,948.9 946.2,949 946.4,949 946.3,948.9 		"/>
		<polygon class="st4" points="946,949 945.9,949 946,949 		"/>
		<polygon class="st4" points="946.6,948.8 946.8,949 947.2,949 946.9,948.8 		"/>
		<polygon class="st4" points="946.4,948.9 946.5,949 946.8,949 946.6,948.8 		"/>
		<polygon class="st4" points="946.3,948.9 946.4,949 946.5,949 946.4,948.9 		"/>
		<polygon class="st4" points="945.9,949 946,948.9 945.9,949 		"/>
		<path class="st4" d="M945.9,949L945.9,949L945.9,949z"/>
		<polygon class="st4" points="946,948.9 946,948.9 946,948.9 		"/>
		<path class="st4" d="M946,948.9L946,948.9L946,948.9z"/>
		<polygon class="st4" points="945.9,949 945.8,949 945.9,949 		"/>
		<polygon class="st4" points="945.9,949 945.9,949 945.9,949 946,949 		"/>
		<polygon class="st4" points="945.8,949 945.8,949 945.8,949 945.9,949 		"/>
	</g>
</g>
<path class="st5" d="M1774.2,949c0-59.6-5.6-117.2-16.7-172.5c-11.6-57.5-29.2-112.6-52.8-165.3c-23.4-52.3-52.7-102.2-87.9-149.6
	c-24-32.4-50.8-63.5-80.2-93.5c-11.8-12-23.9-23.7-36.1-34.8c-43.9-40.1-90.3-74.6-139.2-103.4c-50.2-29.6-103.1-53.3-158.4-71
	c-54.3-17.3-111-28.9-170-34.6c-24.6-2.4-49.7-3.8-75.1-4.1c-33.3-0.4-66,1-98.1,4.3c-58.7,6-115.4,18.1-169.5,35.6
	c-55.7,18-108.7,41.7-158.3,70.5c-50.3,29.1-97.2,63.4-140,102c-42.9,38.8-81.7,82-115.7,128.8c-33.9,46.6-62.9,96.9-86.6,149.9
	c-23.3,52.4-41.4,107.5-53.5,164.6c-11.2,53-17.4,107.8-17.9,163.6c0,3.2,0,6.3,0,9.5c0.1,59.1,6.4,116.6,18.2,172
	c12.2,57.3,30.3,112.3,53.6,164.4c23.8,53.1,52.9,103.2,86.8,149.6c34.1,46.8,73,89.8,115.8,128.4c42.9,38.6,89.7,72.7,139.8,101.7
	c49.7,28.8,102.6,52.5,157.9,70.5c54.3,17.6,110.9,29.8,169.2,35.9c28.4,2.9,57.1,4.4,86.2,4.4c29.3,0,58.3-1.5,86.8-4.4
	c58.4-6,115.1-18.2,169.3-35.7c55.5-18,108.5-41.7,158.2-70.4c50.3-29,97.2-63.2,140.1-101.8c43-38.7,81.9-81.8,116-128.6
	c33.9-46.5,63.1-96.8,86.8-149.9c23.3-52.3,41.3-107.4,53.4-164.8c11.5-54.7,17.7-111.5,17.8-169.7
	C1774.2,950.1,1774.2,949.6,1774.2,949z M1741.7,1117.2c-11.9,56.3-29.6,110.5-52.5,161.8c-23.3,52.2-51.9,101.5-85.2,147.2
	c-33.5,46-71.7,88.3-113.9,126.3c-42.1,37.9-88.2,71.4-137.5,99.9c-48.8,28.2-100.8,51.4-155.3,69.1
	c-53.2,17.2-108.9,29.1-166.3,35.1c-28,2.9-56.4,4.4-85.2,4.4c-28.6,0-56.8-1.5-84.7-4.3c-57.3-5.9-112.9-17.9-166.2-35.2
	c-54.4-17.7-106.3-41-155.1-69.2c-49.2-28.5-95.2-62-137.3-99.9s-80.3-80.1-113.7-126c-33.2-45.6-61.9-94.7-85.2-146.9
	c-22.9-51.2-40.7-105.2-52.7-161.5c-11.6-54.4-17.8-110.9-17.9-168.9c0-3.1,0-6.2,0-9.3c0.5-54.9,6.5-108.6,17.5-160.7
	c11.9-56.1,29.6-110.2,52.5-161.6c23.2-52.1,51.7-101.4,85-147.2c33.4-46,71.4-88.4,113.6-126.5c42-37.9,88-71.6,137.4-100.2
	c48.7-28.2,100.7-51.5,155.4-69.2c53.1-17.2,108.8-29.1,166.5-35c31.6-3.2,63.7-4.7,96.3-4.3c25,0.3,49.6,1.7,73.8,4
	c57.9,5.6,113.6,16.9,166.9,34c54.3,17.3,106.2,40.6,155.5,69.7c48,28.3,93.6,62.2,136.6,101.5c12,11,23.8,22.4,35.5,34.2
	c28.9,29.5,55.2,60.1,78.8,91.8c34.5,46.5,63.3,95.5,86.3,146.9c23.2,51.7,40.5,105.9,51.9,162.3c11,54.3,16.4,110.8,16.4,169.4
	c0,0.5,0,1.1,0,1.6C1759.1,1007.7,1753,1063.5,1741.7,1117.2z"/>
<g>
	<circle class="st5" cx="951.5" cy="951.2" r="201"/>
	<circle class="st2" cx="951.5" cy="951.2" r="184.6"/>
	<g>
		<path class="st6" d="M1004.7,870.5c-13.7,8-26.8,15.6-40,23.2c-20.1,11.6-40.1,23.4-60.3,34.8c-3.1,1.8-4.3,3.7-4,7.2
			c0.3,4.4,0.1,8.8,0.1,13.4c3.3-0.4,5.2-2.1,7.3-3.3c36.3-21,72.6-42,108.9-63.1c3.1-1.8,5.5-2.2,8.7-0.1c6.1,4,12.6,7.5,19,11
			c2.5,1.4,3.5,3,3.4,5.9c-0.2,7-0.4,14,0.1,20.9c0.3,4.4-1.5,6.7-5.1,8.8c-36.8,21.2-73.6,42.5-110.3,63.9c-1.5,0.9-3,1.8-5.1,3
			c5.1,3,9.8,5.6,14.3,8.4c2.5,1.5,4-0.1,5.8-1.1c31.4-18.2,62.7-36.3,94.1-54.5c6.2-3.6,6.2-3.6,6.2,3.3c0,16.8-0.1,33.6,0.1,50.4
			c0,3.1-1,4.8-3.7,6.3c-29.7,17.1-59.4,34.3-89,51.6c-2.7,1.6-4.6,1.6-7.3,0c-29.7-17.2-59.3-34.3-89.1-51.3
			c-2.8-1.6-3.9-3.4-3.8-6.7c0.1-34.1,0.1-68.3,0-102.4c0-3.1,1-4.8,3.6-6.3c29.9-17.2,59.7-34.5,89.5-51.7c1.5-0.9,2.8-2.1,4.8-0.9
			C970,850.7,987,860.4,1004.7,870.5z"/>
	</g>
</g>
</svg>
